SplineFontDB: 3.0
FontName: Muli-Light
FullName: Muli Light
FamilyName: Muli
Weight: Light
Copyright: Digitized data Copyright (c) 2011-2014, vernon adams.
Version: 2
ItalicAngle: 0
UnderlinePosition: 0
UnderlineWidth: 0
Ascent: 1638
Descent: 410
UFOAscent: 1560
UFODescent: -556
LayerCount: 2
Layer: 0 0 "Back"  1
Layer: 1 0 "Fore"  0
OS2Version: 0
OS2_WeightWidthSlopeOnly: 0
OS2_UseTypoMetrics: 0
CreationTime: 1393388509
ModificationTime: 1393388509
PfmFamily: 0
TTFWeight: 300
TTFWidth: 5
LineGap: 0
VLineGap: 0
OS2TypoAscent: 2412
OS2TypoAOffset: 0
OS2TypoDescent: -607
OS2TypoDOffset: 0
OS2TypoLinegap: 0
OS2WinAscent: 2412
OS2WinAOffset: 0
OS2WinDescent: 607
OS2WinDOffset: 0
HheadAscent: 2412
HheadAOffset: 0
HheadDescent: -607
HheadDOffset: 0
OS2Vendor: 'NeWT'
Lookup: 258 0 0 "kernHorizontalKerninginLatinloo"  {"kernHorizontalKerninginLatinloo subtable"  } ['kern' ('latn' <'dflt' > ) ]
DEI: 91125
LangName: 1033 "" "" "" "" "" "Version 2" "" "Muli is a trademark of Vernon Adams and may be registered in certain jurisdictions." "newtypography" "Vernon Adams" "" "newtypography.co.uk" "newtypography.co.uk" "Copyright (c) 2014, vernon adams.+AAoACgAA-This Font Software is licensed under the SIL Open Font License, Version 1.1.+AAoA-This license is available with a FAQ at:+AAoA-http://scripts.sil.org/OFL+AAoA" "http://scripts.sil.org/OFL" "" "Muli" "Light" 
PickledData: "(dp1
S'com.typemytype.robofont.foreground.layerStrokeColor'
p2
(F0.5
F0
F0.5
F0.69999999999999996
tp3
sS'com.schriftgestaltung.fontMasterID'
p4
S'CAA31E91-2985-420A-82BA-6B4D8404D924'
p5
sS'GSDimensionPlugin.Dimensions'
p6
(dp7
S'CAA31E91-2985-420A-82BA-6B4D8404D924'
p8
(dp9
ssS'com.superpolator.editor.generateInfo'
p10
S'Generated with LTR Superpolator version 120823_1018_beta_'
p11
sS'com.typemytype.robofont.b.layerStrokeColor'
p12
(F1
F0.75
F0
F0.69999999999999996
tp13
sS'com.schriftgestaltung.useNiceNames'
p14
I01
sS'com.typemytype.robofont.layerOrder'
p15
(S'b'
tp16

StartChar: A
Encoding: 65 65 0
Width: 1364
VWidth: 0
GlyphClass: 2
Flags: W
PickledData: "(dp1
S'org.robofab.postScriptHintData'
p2
(dp3
sS'com.typemytype.robofont.layerData'
p4
(dp5
s."
AnchorPoint: "top" 682 1456 basechar 0
LayerCount: 2
Fore
SplineSet
399 509 m 257
 965 509 l 257
 871.102 777.102 776.441 1044.44 681 1311 c 257
 587 1043.67 493 776.333 399 509 c 257
50 0 m 257
 597 1456 l 257
 766 1456 l 257
 1315 0 l 257
 1154 0 l 257
 1008 394 l 257
 359 394 l 257
 214 0 l 257
 50 0 l 257
EndSplineSet
EndChar

StartChar: AE
Encoding: 198 198 1
Width: 1961
VWidth: 0
GlyphClass: 2
Flags: W
PickledData: "(dp1
S'org.robofab.postScriptHintData'
p2
(dp3
sS'com.typemytype.robofont.layerData'
p4
(dp5
S'b'
(dp6
S'name'
p7
S'AE'
p8
sS'lib'
p9
(dp10
sS'unicodes'
p11
(tsS'width'
p12
F2073.5500000000002
sS'contours'
p13
(tsS'components'
p14
(tsS'anchors'
p15
(tsss."
AnchorPoint: "top" 1307 1456 basechar 0
LayerCount: 2
Fore
SplineSet
484 542 m 257
 1048 542 l 257
 987 1330 l 257
 931 1330 l 257
 484 542 l 257
30 0 m 257
 869 1456 l 257
 1832 1456 l 257
 1832 1330 l 257
 1121 1330 l 257
 1164 812 l 257
 1781 812 l 257
 1781 695 l 257
 1172 695 l 257
 1223 123 l 257
 1857 123 l 257
 1857 0 l 257
 1099 0 l 257
 1060 430 l 257
 429 430 l 257
 184 0 l 257
 30 0 l 257
EndSplineSet
EndChar

StartChar: B
Encoding: 66 66 18
Width: 1354
VWidth: 0
GlyphClass: 2
Flags: W
PickledData: "(dp1
S'org.robofab.postScriptHintData'
p2
(dp3
sS'com.typemytype.robofont.layerData'
p4
(dp5
S'b'
(dp6
S'name'
p7
S'B'
sS'lib'
p8
(dp9
sS'unicodes'
p10
(tsS'width'
p11
F1346.45
sS'contours'
p12
(tsS'components'
p13
(tsS'anchors'
p14
(tsss."
AnchorPoint: "top" 648 1456 basechar 0
LayerCount: 2
Fore
SplineSet
364 817 m 257
 665 817 l 258
 888 817 1005 898 1005 1089 c 256
 1005 1264 873 1332 625 1332 c 258
 364 1332 l 257
 364 817 l 257
363 124 m 257
 706 124 l 258
 947 124 1075 221 1075 402 c 256
 1075 606 965 695 673 695 c 258
 363 695 l 257
 363 124 l 257
213 0 m 257
 213 1456 l 257
 612 1456 l 258
 924 1456 1160 1371 1160 1100 c 256
 1160 915 1070 799 898 767 c 257
 1106 741 1231 610 1231 399 c 256
 1231 159 1058 0 722 0 c 258
 213 0 l 257
EndSplineSet
EndChar

StartChar: C
Encoding: 67 67 20
Width: 1394
VWidth: 0
GlyphClass: 2
Flags: W
PickledData: "(dp1
S'org.robofab.postScriptHintData'
p2
(dp3
sS'com.typemytype.robofont.guides'
p4
(tsS'com.typemytype.robofont.layerData'
p5
(dp6
S'b'
(dp7
S'name'
p8
S'C'
sS'lib'
p9
(dp10
sS'unicodes'
p11
(tsS'width'
p12
F1394.1500000000001
sS'contours'
p13
((dp14
S'points'
p15
((dp16
S'segmentType'
p17
S'curve'
p18
sS'x'
F785
sS'smooth'
p19
I01
sS'y'
F-23
s(dp20
S'y'
F-23
sS'x'
F346
sg19
I00
s(dp21
S'y'
F309
sS'x'
F108
sg19
I00
s(dp22
g17
S'curve'
p23
sS'x'
F108
sg19
I01
sS'y'
F713
s(dp24
S'y'
F1125
sS'x'
F108
sg19
I00
s(dp25
S'y'
F1483
sS'x'
F371
sg19
I00
s(dp26
g17
S'curve'
p27
sS'x'
F814
sg19
I01
sS'y'
F1483
s(dp28
S'y'
F1483
sS'x'
F995
sg19
I00
s(dp29
S'y'
F1437
sS'x'
F1144
sg19
I00
s(dp30
g17
S'curve'
p31
sS'x'
F1265
sg19
I00
sS'y'
F1329
s(dp32
g17
S'line'
p33
sS'x'
F1200
sg19
I00
sS'y'
F1219
s(dp34
S'y'
F1295
sS'x'
F1099
sg19
I00
s(dp35
S'y'
F1334
sS'x'
F969
sg19
I00
s(dp36
g17
S'curve'
p37
sS'x'
F833
sg19
I01
sS'y'
F1334
s(dp38
S'y'
F1334
sS'x'
F464
sg19
I00
s(dp39
S'y'
F1022
sS'x'
F291
sg19
I00
s(dp40
g17
S'curve'
p41
sS'x'
F291
sg19
I01
sS'y'
F712
s(dp42
S'y'
F398
sS'x'
F291
sg19
I00
s(dp43
S'y'
F125
sS'x'
F453
sg19
I00
s(dp44
g17
S'curve'
p45
sS'x'
F811
sg19
I01
sS'y'
F125
s(dp46
S'y'
F125
sS'x'
F974
sg19
I00
s(dp47
S'y'
F172
sS'x'
F1134
sg19
I00
s(dp48
g17
S'curve'
p49
sS'x'
F1243
sg19
I00
sS'y'
F268
s(dp50
g17
S'line'
p51
sS'x'
F1301
sg19
I00
sS'y'
F127
s(dp52
S'y'
F28
sS'x'
F1178
sg19
I00
s(dp53
S'y'
F-23
sS'x'
F996
sg19
I00
stp54
stp55
sS'components'
p56
(tsS'anchors'
p57
(tsss."
AnchorPoint: "top" 811 1456 basechar 0
LayerCount: 2
Fore
SplineSet
817 -22 m 256
 412 -22 108 247 108 709 c 256
 108 1178 401 1481 820 1481 c 256
 990 1481 1140 1437 1259 1337 c 257
 1199 1238 l 257
 1091 1320 964 1358 828 1358 c 256
 484 1358 264 1091 264 709 c 256
 264 336 489 102 822 102 c 256
 969 102 1113 146 1242 236 c 257
 1291 123 l 257
 1149 25 985 -22 817 -22 c 256
EndSplineSet
EndChar

StartChar: D
Encoding: 68 68 27
Width: 1531
VWidth: 0
GlyphClass: 2
Flags: W
PickledData: "(dp1
S'org.robofab.postScriptHintData'
p2
(dp3
sS'com.typemytype.robofont.layerData'
p4
(dp5
S'b'
(dp6
S'name'
p7
S'D'
sS'lib'
p8
(dp9
sS'unicodes'
p10
(tsS'width'
p11
F1526.5999999999999
sS'contours'
p12
(tsS'components'
p13
(tsS'anchors'
p14
(tsss."
AnchorPoint: "top" 718 1456 basechar 0
LayerCount: 2
Fore
SplineSet
213 0 m 257
 213 1456 l 257
 579 1456 l 258
 1111 1456 1407 1216 1407 719 c 256
 1407 255 1134 0 622 0 c 258
 213 0 l 257
362 124 m 257
 628 124 l 258
 1040 124 1251 337 1251 719 c 256
 1251 1129 1028 1332 588 1332 c 258
 362 1332 l 257
 362 124 l 257
EndSplineSet
EndChar

StartChar: uni007F
Encoding: 127 127 28
Width: 1521
VWidth: 0
GlyphClass: 2
Flags: W
PickledData: "(dp1
S'org.robofab.postScriptHintData'
p2
(dp3
s."
LayerCount: 2
Fore
SplineSet
188 0 m 257
 188 1456 l 257
 1333 1456 l 257
 1333 0 l 257
 188 0 l 257
360 124 m 257
 1161 124 l 257
 1161 1330 l 257
 360 1330 l 257
 360 124 l 257
EndSplineSet
EndChar

StartChar: uni0394
Encoding: 916 916 32
Width: 1302
VWidth: 0
GlyphClass: 2
Flags: W
PickledData: "(dp1
S'org.robofab.postScriptHintData'
p2
(dp3
s."
LayerCount: 2
Fore
SplineSet
196 109 m 257
 1101 109 l 257
 652 1266 l 257
 196 109 l 257
49 0 m 257
 49 66 l 257
 609 1453 l 257
 701 1453 l 257
 1253 66 l 257
 1253 0 l 257
 49 0 l 257
EndSplineSet
EndChar

StartChar: E
Encoding: 69 69 35
Width: 1211
VWidth: 0
GlyphClass: 2
Flags: W
PickledData: "(dp1
S'org.robofab.postScriptHintData'
p2
(dp3
sS'com.typemytype.robofont.layerData'
p4
(dp5
s."
AnchorPoint: "top" 642 1456 basechar 0
LayerCount: 2
Fore
SplineSet
213 0 m 257
 213 1456 l 257
 1054 1456 l 257
 1054 1332 l 257
 362 1332 l 257
 362 812 l 257
 1015 812 l 257
 1015 688 l 257
 362 688 l 257
 362 124 l 257
 1084 124 l 257
 1084 0 l 257
 213 0 l 257
EndSplineSet
EndChar

StartChar: Eng
Encoding: 330 330 46
Width: 1536
VWidth: 0
GlyphClass: 2
Flags: W
PickledData: "(dp1
S'org.robofab.postScriptHintData'
p2
(dp3
sS'com.typemytype.robofont.layerData'
p4
(dp5
s."
LayerCount: 2
Fore
SplineSet
1378 1456 m 257
 1378 28 l 257
 1377 -245 1300 -432 947 -432 c 257
 947 -318 l 257
 1136 -318 1232 -238 1232 -56 c 258
 1232 28 l 257
 471 1091 l 257
 366 1251 l 257
 366 0 l 257
 221 0 l 257
 221 1456 l 257
 378 1456 l 257
 1115 411 l 257
 1232 234 l 257
 1232 1456 l 257
 1378 1456 l 257
EndSplineSet
EndChar

StartChar: Euro
Encoding: 8364 8364 50
Width: 1407
VWidth: 0
GlyphClass: 2
Flags: W
PickledData: "(dp1
S'org.robofab.postScriptHintData'
p2
(dp3
sS'com.typemytype.robofont.layerData'
p4
(dp5
S'b'
(dp6
S'name'
p7
S'Euro'
p8
sS'lib'
p9
(dp10
sS'unicodes'
p11
(tsS'width'
p12
I1190
sS'contours'
p13
(tsS'components'
p14
(tsS'anchors'
p15
(tsss."
LayerCount: 2
Fore
SplineSet
863 -22 m 256
 1031 -22 1195 25 1337 123 c 257
 1288 236 l 257
 1159 146 1015 102 868 102 c 256
 591.365 102 389.264 263.488 328.772 532 c 257
 859 532 l 257
 866 620 l 257
 314.484 620 l 257
 311.516 648.695 310 678.379 310 709 c 256
 310 753.652 313.006 796.733 318.865 838 c 257
 895 838 l 257
 902 932 l 257
 337.938 932 l 257
 407.348 1190.92 601.876 1358 874 1358 c 256
 1010 1358 1137 1320 1245 1238 c 257
 1305 1337 l 257
 1186 1437 1036 1481 866 1481 c 256
 517.846 1481 256.685 1271.8 178.322 932 c 257
 -12 932 l 257
 -17 838 l 257
 161.783 838 l 257
 156.642 796.575 154 753.536 154 709 c 256
 154 678.484 155.326 648.81 157.92 620 c 257
 -11 620 l 257
 -16 532 l 257
 170.243 532 l 257
 238.247 179.034 512.883 -22 863 -22 c 256
EndSplineSet
EndChar

StartChar: F
Encoding: 70 70 51
Width: 1103
VWidth: 0
GlyphClass: 2
Flags: W
PickledData: "(dp1
S'org.robofab.postScriptHintData'
p2
(dp3
sS'com.typemytype.robofont.layerData'
p4
(dp5
s."
AnchorPoint: "top" 634 1456 basechar 0
LayerCount: 2
Fore
SplineSet
213 0 m 257
 213 1456 l 257
 1021 1456 l 257
 1021 1332 l 257
 362 1332 l 257
 362 808 l 257
 970 808 l 257
 970 684 l 257
 362 684 l 257
 362 0 l 257
 213 0 l 257
EndSplineSet
EndChar

StartChar: G
Encoding: 71 71 53
Width: 1520
VWidth: 0
GlyphClass: 2
Flags: W
PickledData: "(dp1
S'org.robofab.postScriptHintData'
p2
(dp3
sS'com.typemytype.robofont.layerData'
p4
(dp5
S'b'
(dp6
S'name'
p7
S'G'
sS'lib'
p8
(dp9
sS'unicodes'
p10
(tsS'width'
p11
F1528.2
sS'contours'
p12
((dp13
S'points'
p14
((dp15
S'segmentType'
p16
S'curve'
p17
sS'x'
F841
sS'smooth'
p18
I01
sS'y'
F-23
s(dp19
S'y'
F-23
sS'x'
F361
sg18
I00
s(dp20
S'y'
F267
sS'x'
F108
sg18
I00
s(dp21
g16
S'curve'
p22
sS'x'
F108
sg18
I01
sS'y'
F701
s(dp23
S'y'
F1129
sS'x'
F108
sg18
I00
s(dp24
S'y'
F1483
sS'x'
F382
sg18
I00
s(dp25
g16
S'curve'
p26
sS'x'
F852
sg18
I01
sS'y'
F1483
s(dp27
S'y'
F1483
sS'x'
F1059
sg18
I00
s(dp28
S'y'
F1415
sS'x'
F1233
sg18
I00
s(dp29
g16
S'curve'
p30
sS'x'
F1334
sg18
I00
sS'y'
F1308
s(dp31
g16
S'line'
p32
sS'x'
F1262
sg18
I00
sS'y'
F1196
s(dp33
S'y'
F1291
sS'x'
F1164
sg18
I00
s(dp34
S'y'
F1334
sS'x'
F1034
sg18
I00
s(dp35
g16
S'curve'
p36
sS'x'
F848
sg18
I01
sS'y'
F1334
s(dp37
S'y'
F1334
sS'x'
F477
sg18
I00
s(dp38
S'y'
F1033
sS'x'
F286
sg18
I00
s(dp39
g16
S'curve'
p40
sS'x'
F286
sg18
I01
sS'y'
F714
s(dp41
S'y'
F365
sS'x'
F286
sg18
I00
s(dp42
S'y'
F125
sS'x'
F472
sg18
I00
s(dp43
g16
S'curve'
p44
sS'x'
F855
sg18
I01
sS'y'
F125
s(dp45
S'y'
F125
sS'x'
F968
sg18
I00
s(dp46
S'y'
F143
sS'x'
F1088
sg18
I00
s(dp47
g16
S'curve'
p48
sS'x'
F1184
sg18
I00
sS'y'
F182
s(dp49
g16
S'line'
p50
sS'x'
F1184
sg18
I00
sS'y'
F608
s(dp51
g16
S'line'
p52
sS'x'
F811
sg18
I00
sS'y'
F608
s(dp53
g16
S'line'
p54
sS'x'
F811
sg18
I00
sS'y'
F757
s(dp55
g16
S'line'
p56
sS'x'
F1356
sg18
I00
sS'y'
F757
s(dp57
g16
S'line'
p58
sS'x'
F1356
sg18
I00
sS'y'
F81
s(dp59
S'y'
F6
sS'x'
F1195
sg18
I00
s(dp60
S'y'
F-23
sS'x'
F1012
sg18
I00
stp61
stp62
sS'components'
p63
(tsS'anchors'
p64
(tsss."
AnchorPoint: "top" 845 1456 basechar 0
LayerCount: 2
Fore
SplineSet
839 -21 m 256
 376 -21 109 265 109 705 c 256
 109 1167 405 1481 851 1481 c 256
 977 1481 1150 1464 1325 1335 c 257
 1263 1230 l 257
 1111 1332 972 1358 853 1358 c 256
 495 1358 263 1093 263 709 c 256
 263 345 471 102 843 102 c 256
 964 102 1109 121 1209 163 c 257
 1209 624 l 257
 821 624 l 257
 821 749 l 257
 1353 749 l 257
 1353 82 l 257
 1197 9 1011 -21 839 -21 c 256
EndSplineSet
EndChar

StartChar: H
Encoding: 72 72 60
Width: 1558
VWidth: 0
GlyphClass: 2
Flags: W
PickledData: "(dp1
S'org.robofab.postScriptHintData'
p2
(dp3
sS'com.typemytype.robofont.layerData'
p4
(dp5
S'b'
(dp6
S'name'
p7
S'H'
sS'lib'
p8
(dp9
sS'unicodes'
p10
(tsS'width'
p11
F1576.45
sS'contours'
p12
(tsS'components'
p13
(tsS'anchors'
p14
(tsss."
AnchorPoint: "top" 785 1456 basechar 0
LayerCount: 2
Fore
SplineSet
213 0 m 257
 213 1456 l 257
 365 1456 l 257
 365 806 l 257
 1198 806 l 257
 1198 1456 l 257
 1346 1456 l 257
 1346 0 l 257
 1197 0 l 257
 1197 683 l 257
 363 683 l 257
 363 0 l 257
 213 0 l 257
EndSplineSet
EndChar

StartChar: Hbar
Encoding: 294 294 61
Width: 1580
VWidth: 0
GlyphClass: 2
Flags: W
PickledData: "(dp1
S'org.robofab.postScriptHintData'
p2
(dp3
sS'com.typemytype.robofont.layerData'
p4
(dp5
S'b'
(dp6
S'name'
p7
S'Hbar'
p8
sS'lib'
p9
(dp10
sS'unicodes'
p11
(tsS'width'
p12
F1532.55
sS'contours'
p13
(tsS'components'
p14
(tsS'anchors'
p15
(tsss."
LayerCount: 2
Fore
SplineSet
117 1192 m 257
 1457 1192 l 257
 1457 1274 l 257
 116 1274 l 257
 117 1192 l 257
EndSplineSet
Refer: 60 72 N 1 0 0 1 0 0 2
EndChar

StartChar: I
Encoding: 73 73 63
Width: 597
VWidth: 0
GlyphClass: 2
Flags: W
PickledData: "(dp1
S'org.robofab.postScriptHintData'
p2
(dp3
sS'com.typemytype.robofont.layerData'
p4
(dp5
s."
AnchorPoint: "top" 310 1456 basechar 0
LayerCount: 2
Fore
SplineSet
230 0 m 257
 230 1456 l 257
 380 1456 l 257
 380 0 l 257
 230 0 l 257
EndSplineSet
EndChar

StartChar: J
Encoding: 74 74 77
Width: 727
VWidth: 0
GlyphClass: 2
Flags: W
PickledData: "(dp1
S'org.robofab.postScriptHintData'
p2
(dp3
sS'com.typemytype.robofont.layerData'
p4
(dp5
S'b'
(dp6
S'name'
p7
S'J'
sS'lib'
p8
(dp9
sS'unicodes'
p10
(tsS'width'
p11
F731.54999999999995
sS'contours'
p12
(tsS'components'
p13
(tsS'anchors'
p14
(tsss."
AnchorPoint: "top" 411 1456 basechar 0
LayerCount: 2
Fore
SplineSet
161 -319 m 256
 104 -319 45 -308 -4 -297 c 257
 11 -179 l 257
 54 -187 103 -196 151 -196 c 256
 321 -196 366 -125 366 126 c 258
 366 1456 l 257
 515 1456 l 257
 515 126 l 258
 515 -222 396 -319 161 -319 c 256
EndSplineSet
EndChar

StartChar: K
Encoding: 75 75 79
Width: 1264
VWidth: 0
GlyphClass: 2
Flags: W
PickledData: "(dp1
S'org.robofab.postScriptHintData'
p2
(dp3
sS'com.typemytype.robofont.layerData'
p4
(dp5
S'b'
(dp6
S'name'
p7
S'K'
sS'lib'
p8
(dp9
sS'unicodes'
p10
(tsS'width'
p11
F1289.95
sS'contours'
p12
(tsS'components'
p13
(tsS'anchors'
p14
(tsss."
AnchorPoint: "top" 659 1456 basechar 0
LayerCount: 2
Fore
SplineSet
213 0 m 257
 213 1456 l 257
 362 1456 l 257
 362 787 l 257
 1033 1456 l 257
 1218 1456 l 257
 517 756 l 257
 1264 0 l 257
 1080 0 l 257
 362 719 l 257
 362 0 l 257
 213 0 l 257
EndSplineSet
EndChar

StartChar: L
Encoding: 76 76 82
Width: 1077
VWidth: 0
GlyphClass: 2
Flags: W
PickledData: "(dp1
S'org.robofab.postScriptHintData'
p2
(dp3
sS'com.typemytype.robofont.layerData'
p4
(dp5
s."
AnchorPoint: "top" 300 1456 basechar 0
AnchorPoint: "caron.alt" 307 1026 basechar 0
LayerCount: 2
Fore
SplineSet
213 0 m 257
 213 1456 l 257
 362 1456 l 257
 362 124 l 257
 1041 124 l 257
 1041 0 l 257
 213 0 l 257
EndSplineSet
EndChar

StartChar: Lslash
Encoding: 321 321 88
Width: 1108
VWidth: 0
GlyphClass: 2
Flags: W
PickledData: "(dp1
S'org.robofab.postScriptHintData'
p2
(dp3
sS'com.typemytype.robofont.layerData'
p4
(dp5
s."
LayerCount: 2
Fore
SplineSet
58 505 m 257
 58 622 l 257
 213 718.647 l 257
 213 1456 l 257
 362 1456 l 257
 362 811.553 l 257
 653 993 l 257
 653 876 l 257
 362 694.553 l 257
 362 124 l 257
 1041 124 l 257
 1041 0 l 257
 213 0 l 257
 213 601.647 l 257
 58 505 l 257
EndSplineSet
EndChar

StartChar: M
Encoding: 77 77 89
Width: 1886
VWidth: 0
GlyphClass: 2
Flags: W
PickledData: "(dp1
S'org.robofab.postScriptHintData'
p2
(dp3
sS'com.typemytype.robofont.layerData'
p4
(dp5
S'b'
(dp6
S'name'
p7
S'M'
sS'lib'
p8
(dp9
sS'unicodes'
p10
(tsS'width'
p11
F1905.0999999999999
sS'contours'
p12
(tsS'components'
p13
(tsS'anchors'
p14
(tsss."
AnchorPoint: "top" 951 1456 basechar 0
LayerCount: 2
Fore
SplineSet
213 0 m 257
 213 1456 l 257
 398 1456 l 257
 579.388 1035.06 765.608 618.942 943 194 c 257
 1124.52 619.144 1315.31 1035.02 1501 1456 c 257
 1673 1456 l 257
 1673 0 l 257
 1530 0 l 257
 1530 1212 l 257
 1468 1058 l 257
 992 0 l 257
 892 0 l 257
 428 1054 l 257
 357 1236 l 257
 357 0 l 257
 213 0 l 257
EndSplineSet
EndChar

StartChar: N
Encoding: 78 78 91
Width: 1585
VWidth: 0
GlyphClass: 2
Flags: W
PickledData: "(dp1
S'org.robofab.postScriptHintData'
p2
(dp3
sS'com.typemytype.robofont.layerData'
p4
(dp5
S'b'
(dp6
S'name'
p7
S'N'
sS'lib'
p8
(dp9
sS'unicodes'
p10
(tsS'width'
p11
F1578.1500000000001
sS'contours'
p12
(tsS'components'
p13
(tsS'anchors'
p14
(tsss."
AnchorPoint: "top" 814 1456 basechar 0
LayerCount: 2
Fore
SplineSet
213 0 m 257
 213 1456 l 257
 368 1456 l 257
 1110 383 l 257
 1228 202 l 257
 1228 1456 l 257
 1372 1456 l 257
 1372 0 l 257
 1218 0 l 257
 474 1061 l 257
 356 1245 l 257
 356 0 l 257
 213 0 l 257
EndSplineSet
EndChar

StartChar: O
Encoding: 79 79 98
Width: 1599
VWidth: 0
GlyphClass: 2
Flags: W
PickledData: "(dp1
S'org.robofab.postScriptHintData'
p2
(dp3
sS'com.typemytype.robofont.guides'
p4
((dp5
S'y'
I727
sS'x'
I231
sS'magnetic'
p6
I5
sS'angle'
p7
I0
sS'isGlobal'
p8
I00
s(dp9
S'y'
I1254
sS'x'
I804
sg6
I5
sg7
F90
sg8
I00
stp10
sS'com.typemytype.robofont.layerData'
p11
(dp12
S'b'
(dp13
S'name'
p14
S'O'
sS'lib'
p15
(dp16
sS'unicodes'
p17
(tsS'width'
p18
F1630.8
sS'contours'
p19
(tsS'components'
p20
(tsS'anchors'
p21
(tsss."
AnchorPoint: "top" 802 1456 basechar 0
LayerCount: 2
Fore
SplineSet
802 -21 m 256
 374 -21 108 271 108 726 c 256
 108 1180 372 1481 803 1481 c 256
 1223 1481 1491 1180 1491 726 c 256
 1491 272 1227 -21 802 -21 c 256
801 102 m 256
 1139 102 1332 347 1332 726 c 256
 1332 1104 1139 1358 802 1358 c 256
 465 1358 266 1104 266 726 c 256
 266 347 464 102 801 102 c 256
EndSplineSet
EndChar

StartChar: OE
Encoding: 338 338 99
Width: 2043
VWidth: 0
GlyphClass: 2
Flags: W
PickledData: "(dp1
S'org.robofab.postScriptHintData'
p2
(dp3
sS'com.typemytype.robofont.layerData'
p4
(dp5
S'b'
(dp6
S'name'
p7
S'OE'
p8
sS'lib'
p9
(dp10
sS'unicodes'
p11
(tsS'width'
p12
F2049.1500000000001
sS'contours'
p13
(tsS'components'
p14
(tsS'anchors'
p15
(tsss."
LayerCount: 2
Fore
SplineSet
819.984 98.9975 m 256
 985.864 98.9975 1099.96 165.949 1161 246 c 257
 1161 1225 l 257
 1099.8 1292.03 988.584 1357.17 828.27 1357.17 c 256
 438.956 1357.17 266 1041.47 266 726 c 256
 266 396.552 419.485 98.9975 819.984 98.9975 c 256
1161 115 m 257
 1101.7 45.1154 970.004 -21.1869 800.666 -21.1869 c 256
 345.309 -21.1869 109 293.114 109 728 c 256
 109 1161.01 374.271 1482.02 816.41 1482.02 c 256
 949.933 1482.02 1082.86 1437.17 1161 1362 c 257
 1161 1456 l 257
 1956 1456 l 257
 1956 1324 l 257
 1313 1324 l 257
 1313 812 l 257
 1917 812 l 257
 1917 680 l 257
 1311 680 l 257
 1311 132 l 257
 1986 132 l 257
 1986 0 l 257
 1161 0 l 257
 1161 115 l 257
EndSplineSet
EndChar

StartChar: uni03A9
Encoding: 937 937 111
Width: 1603
VWidth: 0
GlyphClass: 2
Flags: W
PickledData: "(dp1
S'org.robofab.postScriptHintData'
p2
(dp3
sS'com.typemytype.robofont.layerData'
p4
(dp5
s."
LayerCount: 2
Fore
SplineSet
123 0 m 257
 108 117 l 257
 469 117 l 257
 268 256 123 485 123 773 c 256
 123 1183 419 1447 816 1447 c 256
 1228 1447 1486 1154 1486 770 c 256
 1486 475 1310 252 1134 117 c 257
 1491 117 l 257
 1478 0 l 257
 972 0 l 257
 971 110 l 257
 1178 248 1330 473 1330 751 c 256
 1330 1056 1155 1319 810 1319 c 256
 496 1319 279 1093 279 756 c 256
 279 480 422 247 634 110 c 257
 635 0 l 257
 123 0 l 257
EndSplineSet
EndChar

StartChar: Oslash
Encoding: 216 216 113
Width: 1599
VWidth: 0
GlyphClass: 2
Flags: W
PickledData: "(dp1
S'org.robofab.postScriptHintData'
p2
(dp3
sS'com.typemytype.robofont.layerData'
p4
(dp5
S'b'
(dp6
S'name'
p7
S'Oslash'
p8
sS'lib'
p9
(dp10
sS'unicodes'
p11
(tsS'width'
p12
F1663
sS'contours'
p13
(tsS'components'
p14
(tsS'anchors'
p15
(tsss."
LayerCount: 2
Fore
SplineSet
802 -21 m 256
 1227 -21 1491 272 1491 726 c 256
 1491 1009.37 1386.59 1233.14 1205.98 1361.31 c 257
 1307 1548 l 257
 1231 1589 l 257
 1131.83 1406.32 l 257
 1037.41 1454.84 926.809 1481 803 1481 c 256
 372 1481 108 1180 108 726 c 256
 108 431.89 219.142 205.885 413.338 82.8278 c 257
 313 -102 l 257
 392 -143 l 257
 491.507 40.8973 l 257
 581.697 0.491022 685.887 -21 802 -21 c 256
1139.98 1239.34 m 257
 1264.63 1129.39 1332 949.338 1332 726 c 256
 1332 347 1139 102 801 102 c 256
 707.514 102 624.725 120.854 553.892 156.191 c 257
 1139.98 1239.34 l 257
1069.04 1290.65 m 257
 478.708 203.243 l 257
 341.537 308.937 266 491.908 266 726 c 256
 266 1104 465 1358 802 1358 c 256
 904.903 1358 994.38 1334.32 1069.04 1290.65 c 257
EndSplineSet
EndChar

StartChar: P
Encoding: 80 80 116
Width: 1240
VWidth: 0
GlyphClass: 2
Flags: W
PickledData: "(dp1
S'org.robofab.postScriptHintData'
p2
(dp3
sS'com.typemytype.robofont.layerData'
p4
(dp5
S'b'
(dp6
S'name'
p7
S'P'
sS'lib'
p8
(dp9
sS'unicodes'
p10
(tsS'width'
p11
F1252.6500000000001
sS'contours'
p12
((dp13
S'points'
p14
((dp15
S'segmentType'
p16
S'line'
p17
sS'x'
F360
sS'smooth'
p18
I00
sS'y'
F828
s(dp19
g16
S'line'
p20
sS'x'
F580
sg18
I01
sS'y'
F828
s(dp21
S'y'
F828
sS'x'
F775
sg18
I00
s(dp22
S'y'
F881
sS'x'
F973
sg18
I00
s(dp23
g16
S'curve'
p24
sS'x'
F973
sg18
I01
sS'y'
F1077
s(dp25
S'y'
F1272
sS'x'
F973
sg18
I00
s(dp26
S'y'
F1308
sS'x'
F807
sg18
I00
s(dp27
g16
S'curve'
p28
sS'x'
F592
sg18
I01
sS'y'
F1308
s(dp29
g16
S'line'
p30
sS'x'
F360
sg18
I00
sS'y'
F1308
stp31
s(dp32
g14
((dp33
g16
S'line'
p34
sS'x'
F360
sg18
I00
sS'y'
F148
s(dp35
g16
S'line'
p36
sS'x'
F667
sg18
I01
sS'y'
F148
s(dp37
S'y'
F148
sS'x'
F906
sg18
I00
s(dp38
S'y'
F230
sS'x'
F1041
sg18
I00
s(dp39
g16
S'curve'
p40
sS'x'
F1041
sg18
I01
sS'y'
F406
s(dp41
S'y'
F617
sS'x'
F1041
sg18
I00
s(dp42
S'y'
F680
sS'x'
F889
sg18
I00
s(dp43
g16
S'curve'
p44
sS'x'
F610
sg18
I01
sS'y'
F680
s(dp45
g16
S'line'
p46
sS'x'
F360
sg18
I00
sS'y'
F680
stp47
s(dp48
g14
((dp49
g16
S'line'
p50
sS'x'
F188
sg18
I00
sS'y'
F0
s(dp51
g16
S'line'
p52
sS'x'
F188
sg18
I00
sS'y'
F1456
s(dp53
g16
S'line'
p54
sS'x'
F502
sg18
I01
sS'y'
F1456
s(dp55
S'y'
F1456
sS'x'
F765
sg18
I00
s(dp56
S'y'
F1443
sS'x'
F1154
sg18
I00
s(dp57
g16
S'curve'
p58
sS'x'
F1154
sg18
I01
sS'y'
F1105
s(dp59
S'y'
F944
sS'x'
F1154
sg18
I00
s(dp60
S'y'
F814
sS'x'
F1045
sg18
I00
s(dp61
g16
S'curve'
p62
sS'x'
F889
sg18
I00
sS'y'
F769
s(dp63
S'y'
F734
sS'x'
F1086
sg18
I00
s(dp64
S'y'
F605
sS'x'
F1223
sg18
I00
s(dp65
g16
S'curve'
p66
sS'x'
F1223
sg18
I01
sS'y'
F403
s(dp67
S'y'
F189
sS'x'
F1223
sg18
I00
s(dp68
S'y'
F0
sS'x'
F1059
sg18
I00
s(dp69
g16
S'curve'
p70
sS'x'
F739
sg18
I01
sS'y'
F0
stp71
stp72
sS'components'
p73
(tsS'anchors'
p74
(tsss."
AnchorPoint: "top" 648 1456 basechar 0
LayerCount: 2
Fore
SplineSet
362 804 m 257
 657 804 l 258
 912 804 1020 874 1020 1067 c 256
 1020 1267 906.445 1332.39 672.323 1332.39 c 256
 661.793 1332.39 651.019 1332.26 640 1332 c 258
 362 1332 l 257
 362 804 l 257
213 0 m 257
 213 1456 l 257
 638 1456 l 258
 981 1456 1169 1367 1169 1068 c 256
 1169 786 995 681 658 681 c 258
 362 681 l 257
 362 0 l 257
 213 0 l 257
EndSplineSet
EndChar

StartChar: Q
Encoding: 81 81 118
Width: 1599
VWidth: 0
GlyphClass: 2
Flags: W
PickledData: "(dp1
S'org.robofab.postScriptHintData'
p2
(dp3
sS'com.typemytype.robofont.layerData'
p4
(dp5
S'b'
(dp6
S'name'
p7
S'Q'
sS'lib'
p8
(dp9
sS'unicodes'
p10
(tsS'width'
p11
F1628.2
sS'contours'
p12
(tsS'components'
p13
(tsS'anchors'
p14
(tsss."
LayerCount: 2
Fore
SplineSet
1197 -417 m 257
 1197 -417 971 -184 872 32 c 257
 997 58 l 257
 1089 -127 1284 -328 1284 -328 c 257
 1197 -417 l 257
EndSplineSet
Refer: 98 79 N 1 0 0 1 0 0 2
EndChar

StartChar: R
Encoding: 82 82 119
Width: 1367
VWidth: 0
GlyphClass: 2
Flags: W
PickledData: "(dp1
S'org.robofab.postScriptHintData'
p2
(dp3
sS'com.typemytype.robofont.guides'
p4
(tsS'com.typemytype.robofont.layerData'
p5
(dp6
S'b'
(dp7
S'name'
p8
S'R'
sS'lib'
p9
(dp10
sS'unicodes'
p11
(tsS'width'
p12
F1341
sS'contours'
p13
((dp14
S'points'
p15
((dp16
S'segmentType'
p17
S'line'
p18
sS'x'
F360
sS'smooth'
p19
I00
sS'y'
F799
s(dp20
g17
S'line'
p21
sS'x'
F615
sg19
I01
sS'y'
F799
s(dp22
S'y'
F799
sS'x'
F795
sg19
I00
s(dp23
S'y'
F854
sS'x'
F932
sg19
I00
s(dp24
g17
S'curve'
p25
sS'x'
F932
sg19
I01
sS'y'
F1058
s(dp26
S'y'
F1259
sS'x'
F932
sg19
I00
s(dp27
S'y'
F1308
sS'x'
F833
sg19
I00
s(dp28
g17
S'curve'
p29
sS'x'
F626
sg19
I01
sS'y'
F1308
s(dp30
g17
S'line'
p31
sS'x'
F360
sg19
I00
sS'y'
F1308
stp32
s(dp33
g15
((dp34
g17
S'line'
p35
sS'x'
F188
sg19
I00
sS'y'
F0
s(dp36
g17
S'line'
p37
sS'x'
F188
sg19
I00
sS'y'
F1456
s(dp38
g17
S'line'
p39
sS'x'
F533
sg19
I01
sS'y'
F1456
s(dp40
S'y'
F1456
sS'x'
F771
sg19
I00
s(dp41
S'y'
F1452
sS'x'
F1114
sg19
I00
s(dp42
g17
S'curve'
p43
sS'x'
F1114
sg19
I01
sS'y'
F1074
s(dp44
S'y'
F890
sS'x'
F1114
sg19
I00
s(dp45
S'y'
F762
sS'x'
F1035
sg19
I00
s(dp46
g17
S'curve'
p47
sS'x'
F847
sg19
I00
sS'y'
F715
s(dp48
g17
S'line'
p49
sS'x'
F848
sg19
I00
sS'y'
F715
s(dp50
S'y'
F662
sS'x'
F1012
sg19
I00
s(dp51
S'y'
F510
sS'x'
F1039
sg19
I00
s(dp52
g17
S'curve'
p53
sS'x'
F1159
sg19
I01
sS'y'
F214
s(dp54
g17
S'line'
p55
sS'x'
F1246
sg19
I00
sS'y'
F0
s(dp56
g17
S'line'
p57
sS'x'
F1061
sg19
I00
sS'y'
F0
s(dp58
g17
S'line'
p59
sS'x'
F896
sg19
I01
sS'y'
F419
s(dp60
S'y'
F600
sS'x'
F825
sg19
I00
s(dp61
S'y'
F652
sS'x'
F797
sg19
I00
s(dp62
g17
S'curve'
p63
sS'x'
F619
sg19
I01
sS'y'
F652
s(dp64
g17
S'line'
p65
sS'x'
F360
sg19
I00
sS'y'
F652
s(dp66
g17
S'line'
p67
sS'x'
F360
sg19
I00
sS'y'
F0
stp68
stp69
sS'components'
p70
(tsS'anchors'
p71
(tsss."
AnchorPoint: "top" 622 1456 basechar 0
LayerCount: 2
Fore
SplineSet
363 783 m 257
 676 783 l 258
 887 783 1003 868 1003 1067 c 256
 1003 1261.04 905.188 1332.36 691.837 1332.36 c 256
 683.086 1332.36 674.141 1332.24 665 1332 c 258
 363 1332 l 257
 363 783 l 257
213 0 m 257
 213 1456 l 257
 663 1456 l 258
 973 1456 1155 1364 1155 1073 c 256
 1155 887 1064 745 864 716 c 257
 1007 683 1043 605 1106 435 c 258
 1267 0 l 257
 1115 0 l 257
 963 418 l 258
 893 609 858 660 686 660 c 258
 362 660 l 257
 362 0 l 257
 213 0 l 257
EndSplineSet
EndChar

StartChar: S
Encoding: 83 83 125
Width: 1172
VWidth: 0
GlyphClass: 2
Flags: W
PickledData: "(dp1
S'org.robofab.postScriptHintData'
p2
(dp3
sS'com.typemytype.robofont.layerData'
p4
(dp5
S'b'
(dp6
S'name'
p7
S'S'
sS'lib'
p8
(dp9
sS'unicodes'
p10
(tsS'width'
p11
F1211
sS'contours'
p12
((dp13
S'points'
p14
((dp15
S'segmentType'
p16
S'curve'
p17
sS'x'
F596
sS'smooth'
p18
I01
sS'y'
F-23
s(dp19
S'y'
F-23
sS'x'
F321
sg18
I00
s(dp20
S'y'
F120
sS'x'
F158
sg18
I00
s(dp21
g16
S'curve'
p22
sS'x'
F140
sg18
I00
sS'y'
F141
s(dp23
g16
S'line'
p24
sS'x'
F219
sg18
I00
sS'y'
F271
s(dp25
S'y'
F243
sS'x'
F256
sg18
I00
s(dp26
S'y'
F125
sS'x'
F393
sg18
I00
s(dp27
g16
S'curve'
p28
sS'x'
F595
sg18
I01
sS'y'
F125
s(dp29
S'y'
F125
sS'x'
F797
sg18
I00
s(dp30
S'y'
F204
sS'x'
F898
sg18
I00
s(dp31
g16
S'curve'
p32
sS'x'
F898
sg18
I01
sS'y'
F360
s(dp33
S'y'
F536
sS'x'
F898
sg18
I00
s(dp34
S'y'
F601
sS'x'
F709
sg18
I00
s(dp35
g16
S'curve'
p36
sS'x'
F521
sg18
I01
sS'y'
F681
s(dp37
S'y'
F761
sS'x'
F333
sg18
I00
s(dp38
S'y'
F857
sS'x'
F145
sg18
I00
s(dp39
g16
S'curve'
p40
sS'x'
F145
sg18
I01
sS'y'
F1095
s(dp41
S'y'
F1350
sS'x'
F145
sg18
I00
s(dp42
S'y'
F1483
sS'x'
F357
sg18
I00
s(dp43
g16
S'curve'
p44
sS'x'
F620
sg18
I01
sS'y'
F1483
s(dp45
S'y'
F1483
sS'x'
F891
sg18
I00
s(dp46
S'y'
F1362
sS'x'
F1009
sg18
I00
s(dp47
g16
S'curve'
p48
sS'x'
F1034
sg18
I00
sS'y'
F1335
s(dp49
g16
S'line'
p50
sS'x'
F951
sg18
I00
sS'y'
F1217
s(dp51
S'y'
F1242
sS'x'
F921
sg18
I00
s(dp52
S'y'
F1334
sS'x'
F819
sg18
I00
s(dp53
g16
S'curve'
p54
sS'x'
F640
sg18
I01
sS'y'
F1334
s(dp55
S'y'
F1334
sS'x'
F478
sg18
I00
s(dp56
S'y'
F1270
sS'x'
F328
sg18
I00
s(dp57
g16
S'curve'
p58
sS'x'
F328
sg18
I01
sS'y'
F1105
s(dp59
S'y'
F934
sS'x'
F328
sg18
I00
s(dp60
S'y'
F868
sS'x'
F515
sg18
I00
s(dp61
g16
S'curve'
p62
sS'x'
F703
sg18
I01
sS'y'
F785
s(dp63
S'y'
F702
sS'x'
F891
sg18
I00
s(dp64
S'y'
F602
sS'x'
F1078
sg18
I00
s(dp65
g16
S'curve'
p66
sS'x'
F1078
sg18
I01
sS'y'
F364
s(dp67
S'y'
F78
sS'x'
F1078
sg18
I00
s(dp68
S'y'
F-23
sS'x'
F868
sg18
I00
stp69
stp70
sS'components'
p71
(tsS'anchors'
p72
(tsss."
AnchorPoint: "top" 615 1456 basechar 0
LayerCount: 2
Fore
SplineSet
1070.22 390.353 m 256
 1070.22 125.624 881.563 -21 597 -21 c 256
 334 -21 182 100 136 142 c 257
 203 248 l 257
 258 202 392 102 593 102 c 256
 805.142 102 921.198 211.639 921.198 386.96 c 256
 921.198 541.32 861.894 605.321 622 674 c 256
 614 677 514 703 503 706 c 256
 260 774 131 870 131 1105 c 256
 131 1346 319 1481 598 1481 c 256
 867 1481 975 1381 1019 1341 c 257
 948 1239 l 257
 902 1284 792 1358 609 1358 c 256
 413 1358 286 1271 286 1109 c 256
 286 952 336 896 540 838 c 256
 549 835 647 809 657 806 c 256
 985.34 715.658 1070.22 606.443 1070.22 390.353 c 256
EndSplineSet
EndChar

StartChar: T
Encoding: 84 84 132
Width: 1121
VWidth: 0
GlyphClass: 2
Flags: W
PickledData: "(dp1
S'org.robofab.postScriptHintData'
p2
(dp3
sS'com.typemytype.robofont.layerData'
p4
(dp5
s."
AnchorPoint: "top" 560 1456 basechar 0
LayerCount: 2
Fore
SplineSet
484 0 m 257
 484 1332 l 257
 9 1332 l 257
 9 1456 l 257
 1111 1456 l 257
 1111 1332 l 257
 634 1332 l 257
 634 0 l 257
 484 0 l 257
EndSplineSet
EndChar

StartChar: Thorn
Encoding: 222 222 137
Width: 1267
VWidth: 0
GlyphClass: 2
Flags: W
PickledData: "(dp1
S'org.robofab.postScriptHintData'
p2
(dp3
sS'com.typemytype.robofont.layerData'
p4
(dp5
s."
LayerCount: 2
Fore
SplineSet
358 484 m 257
 640 484 l 258
 870 484 1033 574 1033 777 c 256
 1033 1021 860 1080 595 1080 c 258
 358 1080 l 257
 358 484 l 257
207 0 m 257
 207 1456 l 257
 358 1456 l 257
 358 1211 l 257
 581 1211 l 258
 920 1211 1194 1136 1194 780 c 256
 1194 478 961 352 643 352 c 258
 358 352 l 257
 358 0 l 257
 207 0 l 257
EndSplineSet
EndChar

StartChar: U
Encoding: 85 85 138
Width: 1487
VWidth: 0
GlyphClass: 2
Flags: W
PickledData: "(dp1
S'org.robofab.postScriptHintData'
p2
(dp3
sS'com.typemytype.robofont.layerData'
p4
(dp5
S'b'
(dp6
S'name'
p7
S'U'
sS'lib'
p8
(dp9
sS'unicodes'
p10
(tsS'width'
p11
F1496.9000000000001
sS'contours'
p12
(tsS'components'
p13
(tsS'anchors'
p14
(tsss."
AnchorPoint: "top" 747 1456 basechar 0
LayerCount: 2
Fore
SplineSet
738 -21 m 256
 340 -21 173 194 173 537 c 258
 173 1456 l 257
 322 1456 l 257
 322 531 l 258
 322 242 467 102 739 102 c 256
 1007 102 1156 241 1156 529 c 258
 1156 1456 l 257
 1305 1456 l 257
 1305 538 l 257
 1303 191 1129 -21 738 -21 c 256
EndSplineSet
EndChar

StartChar: V
Encoding: 86 86 152
Width: 1365
VWidth: 0
GlyphClass: 2
Flags: W
PickledData: "(dp1
S'org.robofab.postScriptHintData'
p2
(dp3
sS'com.typemytype.robofont.layerData'
p4
(dp5
S'b'
(dp6
S'name'
p7
S'V'
sS'lib'
p8
(dp9
sS'unicodes'
p10
(tsS'width'
p11
F1320.1500000000001
sS'contours'
p12
(tsS'components'
p13
(tsS'anchors'
p14
(tsss."
LayerCount: 2
Fore
SplineSet
602 0 m 257
 62 1456 l 257
 224 1456 l 257
 377.997 1023.66 532.436 591.769 686 159 c 257
 835.779 594.888 992.715 1023.62 1146 1456 c 257
 1303 1456 l 257
 767 0 l 257
 602 0 l 257
EndSplineSet
EndChar

StartChar: W
Encoding: 87 87 153
Width: 2029
VWidth: 0
GlyphClass: 2
Flags: W
PickledData: "(dp1
S'org.robofab.postScriptHintData'
p2
(dp3
sS'com.typemytype.robofont.layerData'
p4
(dp5
S'b'
(dp6
S'name'
p7
S'W'
sS'lib'
p8
(dp9
sS'unicodes'
p10
(tsS'width'
p11
F1988.8499999999999
sS'contours'
p12
(tsS'components'
p13
(tsS'anchors'
p14
(tsss."
AnchorPoint: "top" 1027 1456 basechar 0
LayerCount: 2
Fore
SplineSet
477 0 m 257
 90 1456 l 257
 250 1456 l 257
 533 333 l 257
 569 160 l 257
 687.087 600.246 822.706 1022.96 948 1456 c 257
 1097 1456 l 257
 1432 330 l 257
 1476 169 l 257
 1578.83 598.502 1682.73 1026.94 1786 1456 c 257
 1939 1456 l 257
 1565 0 l 257
 1389 0 l 257
 1022 1260 l 257
 651 0 l 257
 477 0 l 257
EndSplineSet
EndChar

StartChar: X
Encoding: 88 88 158
Width: 1310
VWidth: 0
GlyphClass: 2
Flags: W
PickledData: "(dp1
S'org.robofab.postScriptHintData'
p2
(dp3
sS'com.typemytype.robofont.layerData'
p4
(dp5
S'b'
(dp6
S'name'
p7
S'X'
sS'lib'
p8
(dp9
sS'unicodes'
p10
(tsS'width'
p11
F1257.7
sS'contours'
p12
(tsS'components'
p13
(tsS'anchors'
p14
(tsss."
LayerCount: 2
Fore
SplineSet
78 0 m 257
 578 740 l 257
 94 1456 l 257
 269 1456 l 257
 665 855 l 257
 1052 1456 l 257
 1217 1456 l 257
 749 746 l 257
 1235 0 l 257
 1066 0 l 257
 664 626 l 257
 245 0 l 257
 78 0 l 257
EndSplineSet
EndChar

StartChar: Y
Encoding: 89 89 159
Width: 1237
VWidth: 0
GlyphClass: 2
Flags: W
PickledData: "(dp1
S'org.robofab.postScriptHintData'
p2
(dp3
sS'com.typemytype.robofont.layerData'
p4
(dp5
S'b'
(dp6
S'name'
p7
S'Y'
sS'lib'
p8
(dp9
sS'unicodes'
p10
(tsS'width'
p11
F1225.45
sS'contours'
p12
(tsS'components'
p13
(tsS'anchors'
p14
(tsss."
AnchorPoint: "top" 627 1456 basechar 0
LayerCount: 2
Fore
SplineSet
541 0 m 257
 541 583 l 257
 50 1456 l 257
 211 1456 l 257
 619 713 l 257
 1032 1456 l 257
 1191 1456 l 257
 691 586 l 257
 691 0 l 257
 541 0 l 257
EndSplineSet
EndChar

StartChar: Z
Encoding: 90 90 166
Width: 1183
VWidth: 0
GlyphClass: 2
Flags: W
PickledData: "(dp1
S'org.robofab.postScriptHintData'
p2
(dp3
sS'com.typemytype.robofont.layerData'
p4
(dp5
S'b'
(dp6
S'name'
p7
S'Z'
sS'lib'
p8
(dp9
sS'unicodes'
p10
(tsS'width'
p11
F1179.45
sS'contours'
p12
(tsS'components'
p13
(tsS'anchors'
p14
(tsss."
AnchorPoint: "top" 617 1456 basechar 0
LayerCount: 2
Fore
SplineSet
116 0 m 257
 116 82 l 257
 888 1332 l 257
 149 1332 l 257
 149 1456 l 257
 1080 1456 l 257
 1080 1378 l 257
 304 124 l 257
 1076 124 l 257
 1076 0 l 257
 116 0 l 257
EndSplineSet
EndChar

StartChar: a
Encoding: 97 97 170
Width: 1263
VWidth: 0
GlyphClass: 2
Flags: W
PickledData: "(dp1
S'org.robofab.postScriptHintData'
p2
(dp3
sS'com.typemytype.robofont.layerData'
p4
(dp5
S'b'
(dp6
S'name'
p7
S'a'
sS'lib'
p8
(dp9
sS'unicodes'
p10
(tsS'width'
p11
I1268
sS'contours'
p12
((dp13
S'points'
p14
((dp15
S'segmentType'
p16
S'curve'
p17
sS'x'
F595
sS'smooth'
p18
I01
sS'y'
F-22
s(dp19
S'y'
F-22
sS'x'
F262
sg18
I00
s(dp20
S'y'
F221
sS'x'
F100
sg18
I00
s(dp21
g16
S'curve'
p22
sS'x'
F100
sg18
I01
sS'y'
F518
s(dp23
S'y'
F824
sS'x'
F100
sg18
I00
s(dp24
S'y'
F1052
sS'x'
F287
sg18
I00
s(dp25
g16
S'curve'
p26
sS'x'
F603
sg18
I01
sS'y'
F1052
s(dp27
S'y'
F1052
sS'x'
F816
sg18
I00
s(dp28
S'y'
F903
sS'x'
F905
sg18
I00
s(dp29
g16
S'curve'
p30
sS'x'
F928
sg18
I00
sS'y'
F847
s(dp31
g16
S'line'
p32
sS'x'
F928
sg18
I00
sS'y'
F1026
s(dp33
g16
S'line'
p34
sS'x'
F1092
sg18
I00
sS'y'
F1026
s(dp35
g16
S'line'
p36
sS'x'
F1092
sg18
I00
sS'y'
F0
s(dp37
g16
S'line'
p38
sS'x'
F928
sg18
I00
sS'y'
F0
s(dp39
g16
S'line'
p40
sS'x'
F928
sg18
I00
sS'y'
F185
s(dp41
S'y'
F82
sS'x'
F881
sg18
I00
s(dp42
S'y'
F-22
sS'x'
F769
sg18
I00
stp43
s(dp44
g14
((dp45
g16
S'curve'
p46
sS'x'
F608
sg18
I01
sS'y'
F918
s(dp47
S'y'
F918
sS'x'
F359
sg18
I00
s(dp48
S'y'
F725
sS'x'
F270
sg18
I00
s(dp49
g16
S'curve'
p50
sS'x'
F270
sg18
I01
sS'y'
F516
s(dp51
S'y'
F308
sS'x'
F270
sg18
I00
s(dp52
S'y'
F112
sS'x'
F364
sg18
I00
s(dp53
g16
S'curve'
p54
sS'x'
F609
sg18
I01
sS'y'
F112
s(dp55
S'y'
F112
sS'x'
F813
sg18
I00
s(dp56
S'y'
F277
sS'x'
F934
sg18
I00
s(dp57
g16
S'curve'
p58
sS'x'
F934
sg18
I01
sS'y'
F526
s(dp59
S'y'
F734
sS'x'
F934
sg18
I00
s(dp60
S'y'
F918
sS'x'
F826
sg18
I00
stp61
stp62
sS'components'
p63
(tsS'anchors'
p64
(tsss."
AnchorPoint: "top" 590 1026 basechar 0
LayerCount: 2
Fore
SplineSet
598 95 m 256
 820 95 938 265 938 522 c 256
 938 767 814 936 597 936 c 256
 369 936 241 765 241 521 c 256
 241 271 369 95 598 95 c 256
583 -21 m 256
 279 -21 98 208 98 518 c 256
 98 828 287 1052 585 1052 c 256
 748 1052 877 963 935 844 c 257
 935 1026 l 257
 1075 1026 l 257
 1075 0 l 257
 934 0 l 257
 934 195 l 257
 874 66 752 -21 583 -21 c 256
EndSplineSet
EndChar

StartChar: acute
Encoding: 180 180 175
Width: 607
VWidth: 0
GlyphClass: 4
Flags: W
PickledData: "(dp1
S'org.robofab.postScriptHintData'
p2
(dp3
s."
AnchorPoint: "top" 143 1026 mark 0
LayerCount: 2
Fore
SplineSet
96 1173 m 257
 312 1494 l 257
 497 1494 l 257
 200 1173 l 257
 96 1173 l 257
EndSplineSet
EndChar

StartChar: ae
Encoding: 230 230 179
Width: 1801
VWidth: 0
GlyphClass: 2
Flags: W
PickledData: "(dp1
S'org.robofab.postScriptHintData'
p2
(dp3
sS'com.typemytype.robofont.layerData'
p4
(dp5
S'b'
(dp6
S'name'
p7
S'ae'
p8
sS'lib'
p9
(dp10
sS'unicodes'
p11
(tsS'width'
p12
F1790.05
sS'contours'
p13
(tsS'components'
p14
((dp15
S'transformation'
p16
(I1
I0
I0
I1
I642
I0
tp17
sS'baseGlyph'
p18
S'e'
stp19
sS'anchors'
p20
(tsss."
AnchorPoint: "top" 911 1026 basechar 0
LayerCount: 2
Fore
SplineSet
971 595 m 257
 1586 595 l 257
 1584 618 l 257
 1574 774 1481 938 1285 938 c 256
 1091 938 980 762 971 595 c 257
477 93 m 256
 716 93 820 276 820 496 c 257
 633 496 l 258
 368 496 232 459 232 287 c 256
 232 147 347 93 477 93 c 256
1300.14 -21.0511 m 256
 1102.29 -21.0511 954.219 87.7631 892 253 c 257
 840 111 700 -22 469 -22 c 256
 248 -22 93 91 93 280 c 256
 93 554 313 596 682 596 c 258
 817 596 l 257
 818 793 717 937 530 937 c 256
 371 937 252 882 194 853 c 257
 149 958 l 257
 180 974 318 1052 544 1052 c 256
 712 1052 859 960 903 803 c 257
 970.551 951.208 1108.1 1052.01 1282.98 1052.01 c 256
 1547.63 1052.01 1710 853.357 1710 525 c 256
 1710 520 1709 497 1709 497 c 257
 970 497 l 257
 970 466 l 257
 973.063 264.852 1070.7 94.8997 1304.88 94.8997 c 256
 1496.43 94.8997 1625 208 1625 208 c 257
 1670 106 l 257
 1670 106 1534.15 -21.0511 1300.14 -21.0511 c 256
EndSplineSet
EndChar

StartChar: ampersand
Encoding: 38 38 185
Width: 1503
VWidth: 0
GlyphClass: 2
Flags: W
PickledData: "(dp1
S'org.robofab.postScriptHintData'
p2
(dp3
sS'com.typemytype.robofont.layerData'
p4
(dp5
S'b'
(dp6
S'name'
p7
S'ampersand'
p8
sS'lib'
p9
(dp10
sS'unicodes'
p11
(tsS'width'
p12
F1539.95
sS'contours'
p13
(tsS'components'
p14
(tsS'anchors'
p15
(tsss."
LayerCount: 2
Fore
SplineSet
583 895 m 257
 697 962 823 1068 823 1190 c 256
 823 1313 722 1363 633 1363 c 256
 528 1363 442 1304 442 1190 c 256
 442 1082 494 982 583 895 c 257
625 107 m 256
 799 107 901 174 997 278 c 257
 557 750 l 257
 413 671 293 586 293 406 c 256
 293 232 423 107 625 107 c 256
630 -21 m 256
 351 -21 142 135 142 404 c 256
 142 629 308 736 480 839 c 257
 386 943 310 1050 310 1194 c 256
 310 1382 452 1480 628 1480 c 256
 791 1480 957 1391 957 1200 c 256
 957 1038 812 906 663 820 c 257
 1063 385 l 257
 1148 511 1211 710 1211 876 c 257
 1342 862 l 257
 1331 660 1265 441 1155 286 c 257
 1181 261 1302 119 1470 83 c 257
 1372 -4 l 257
 1263 13 1095 167 1076 185 c 257
 969 64 831 -21 630 -21 c 256
EndSplineSet
EndChar

StartChar: approxequal
Encoding: 8776 8776 187
Width: 1351
VWidth: 0
GlyphClass: 2
Flags: W
PickledData: "(dp1
S'org.robofab.postScriptHintData'
p2
(dp3
sS'com.typemytype.robofont.layerData'
p4
(dp5
s."
LayerCount: 2
Fore
SplineSet
273 269 m 257
 182 291 l 257
 219 444 321 538 472 538 c 256
 562 538 645 495 722 452 c 256
 798 409 867 369 931 369 c 256
 1023 369 1076 430 1116 535 c 257
 1204 512 l 257
 1173 365 1082 266 925 266 c 256
 846 266 772 298 659 363 c 256
 588 405 529 433 467 433 c 256
 362 433 304 368 273 269 c 257
272 667 m 257
 180 690 l 257
 215 841 319 935 469 935 c 256
 553 935 627 901 718 848 c 256
 809 794 872 768 929 768 c 256
 1021 768 1077 826 1113 934 c 257
 1202 910 l 257
 1172 763 1080 664 923 664 c 256
 841 664 765 699 655 762 c 256
 585 803 525 832 465 832 c 256
 359 832 300 768 272 667 c 257
EndSplineSet
EndChar

StartChar: asciicircum
Encoding: 94 94 190
Width: 1675
VWidth: 0
GlyphClass: 2
Flags: W
PickledData: "(dp1
S'org.robofab.postScriptHintData'
p2
(dp3
sS'com.typemytype.robofont.layerData'
p4
(dp5
S'b'
(dp6
S'name'
p7
S'asciicircum'
p8
sS'lib'
p9
(dp10
sS'unicodes'
p11
(tsS'width'
p12
F1623.3499999999999
sS'contours'
p13
(tsS'components'
p14
(tsS'anchors'
p15
(tsss."
LayerCount: 2
Fore
SplineSet
330 584 m 257
 790 1456 l 257
 876 1456 l 257
 1345 584 l 257
 1214 584 l 257
 832 1309 l 257
 461 584 l 257
 330 584 l 257
EndSplineSet
EndChar

StartChar: asciitilde
Encoding: 126 126 191
Width: 1085
VWidth: 0
GlyphClass: 2
Flags: W
PickledData: "(dp1
S'org.robofab.postScriptHintData'
p2
(dp3
sS'com.typemytype.robofont.layerData'
p4
(dp5
s."
LayerCount: 2
Fore
SplineSet
146 396 m 257
 51 442 l 257
 80 577 156 662 319 662 c 256
 392 662 476 633 557 604 c 256
 666 564 728 537 782 537 c 256
 876 537 933 624 955 715 c 257
 1058 682 l 257
 1022 527 933 417 780 417 c 256
 720 417 639 449 557 479 c 256
 451 521 390 543 321 543 c 256
 211 543 167 490 146 396 c 257
EndSplineSet
EndChar

StartChar: asterisk
Encoding: 42 42 192
Width: 1151
VWidth: 0
GlyphClass: 2
Flags: W
PickledData: "(dp1
S'org.robofab.postScriptHintData'
p2
(dp3
sS'com.typemytype.robofont.guides'
p4
((dp5
S'y'
I1149
sS'x'
I567
sS'magnetic'
p6
I5
sS'angle'
p7
I0
sS'isGlobal'
p8
I00
stp9
sS'com.typemytype.robofont.layerData'
p10
(dp11
S'b'
(dp12
S'name'
p13
S'asterisk'
p14
sS'lib'
p15
(dp16
sS'unicodes'
p17
(tsS'width'
p18
F1107.9000000000001
sS'contours'
p19
(tsS'components'
p20
(tsS'anchors'
p21
(tsss."
LayerCount: 2
Fore
SplineSet
747 755 m 257
 589 1029 l 257
 438 765 l 257
 329 829 l 257
 508 1071 l 257
 243 1149 l 257
 277 1268 l 257
 538 1150 l 257
 508 1458 l 257
 635 1458 l 257
 631 1150 l 257
 859 1268 l 257
 918 1149 l 257
 666 1071 l 257
 859 816 l 257
 747 755 l 257
EndSplineSet
EndChar

StartChar: at
Encoding: 64 64 193
Width: 1737
VWidth: 0
GlyphClass: 2
Flags: W
PickledData: "(dp1
S'org.robofab.postScriptHintData'
p2
(dp3
sS'com.typemytype.robofont.layerData'
p4
(dp5
S'b'
(dp6
S'name'
p7
S'at'
p8
sS'lib'
p9
(dp10
sS'unicodes'
p11
(tsS'width'
p12
F1771.2
sS'contours'
p13
(tsS'components'
p14
(tsS'anchors'
p15
(tsss."
LayerCount: 2
Fore
SplineSet
1103.51 823.8 m 256
 1103.51 961.21 1036.07 1045.28 920.724 1045.28 c 256
 730.658 1045.28 607 840.958 607 605 c 256
 607 466 681 375 793 375 c 256
 966.859 375 1103.51 571.162 1103.51 823.8 c 256
913.832 1145.26 m 256
 1042.04 1145.26 1132.49 1076.72 1149 957 c 257
 1186 1111 l 257
 1300 1111 l 257
 1178 580 l 258
 1161 507 1154 462 1154 426 c 256
 1154 380 1183 344 1237 344 c 256
 1392 344 1521 536 1521 804 c 256
 1521 1157 1263 1380 912 1380 c 256
 516 1380 231 1106 231 679 c 256
 231 256 522 17 917 17 c 256
 1124 17 1320 86 1428 198 c 257
 1492 139 l 257
 1387 1 1162 -77 912 -77 c 256
 438 -77 109 208 109 679 c 256
 109 1161 446 1475 910 1475 c 256
 1334 1475 1621 1206 1621 802 c 256
 1621 487 1441 267 1239 267 c 256
 1139.56 267 1072.22 323.184 1072.22 427.641 c 256
 1072.22 439.78 1073.13 452.57 1075 466 c 257
 1030 354 920 273 781 273 c 256
 616.206 273 480.978 397.175 480.978 610.305 c 256
 480.978 920.879 674.245 1145.26 913.832 1145.26 c 256
EndSplineSet
EndChar

StartChar: b
Encoding: 98 98 195
Width: 1266
VWidth: 0
GlyphClass: 2
Flags: W
PickledData: "(dp1
S'org.robofab.postScriptHintData'
p2
(dp3
sS'com.typemytype.robofont.layerData'
p4
(dp5
S'b'
(dp6
S'name'
p7
S'b'
sS'lib'
p8
(dp9
sS'unicodes'
p10
(tsS'width'
p11
F1270.0999999999999
sS'contours'
p12
(tsS'components'
p13
(tsS'anchors'
p14
(tsss."
AnchorPoint: "top" 691 1026 basechar 0
LayerCount: 2
Fore
SplineSet
688 95 m 256
 904 95 1021 265 1021 522 c 256
 1021 769 901 936 687 936 c 256
 463 936 322 768 322 518 c 256
 322 264 461 95 688 95 c 256
700 -21 m 256
 520 -21 376 75 323 207 c 257
 320 0 l 257
 177 0 l 257
 178 51 184 193 184 269 c 258
 184 1501 l 257
 325 1501 l 257
 325 825 l 257
 378 950 517 1052 701 1052 c 256
 984 1052 1166 844 1166 523 c 256
 1166 191 976 -21 700 -21 c 256
EndSplineSet
EndChar

StartChar: backslash
Encoding: 92 92 196
Width: 813
VWidth: 0
GlyphClass: 2
Flags: W
PickledData: "(dp1
S'org.robofab.postScriptHintData'
p2
(dp3
sS'com.typemytype.robofont.layerData'
p4
(dp5
s."
LayerCount: 2
Fore
SplineSet
593 40 m 257
 96 1456 l 257
 227 1456 l 257
 727 40 l 257
 593 40 l 257
EndSplineSet
EndChar

StartChar: bar
Encoding: 124 124 197
Width: 1317
VWidth: 0
GlyphClass: 2
Flags: W
PickledData: "(dp1
S'org.robofab.postScriptHintData'
p2
(dp3
sS'com.typemytype.robofont.layerData'
p4
(dp5
s."
LayerCount: 2
Fore
SplineSet
590 -499 m 257
 590 1554 l 257
 727 1554 l 257
 727 -499 l 257
 590 -499 l 257
EndSplineSet
EndChar

StartChar: braceleft
Encoding: 123 123 199
Width: 848
VWidth: 0
GlyphClass: 2
Flags: W
PickledData: "(dp1
S'org.robofab.postScriptHintData'
p2
(dp3
sS'com.typemytype.robofont.layerData'
p4
(dp5
s."
LayerCount: 2
Fore
SplineSet
483 1145 m 258
 483 869 l 258
 483 716 417 625 306 589 c 257
 420 550 483 452 483 297 c 258
 483 25 l 258
 483 -95.5988 512.801 -145.059 710.02 -145.059 c 256
 713.946 -145.059 717.939 -145.039 722 -145 c 257
 722 -256 l 257
 394 -254 342 -139 342 18 c 258
 342 285 l 258
 342 446 299 530 114 550 c 257
 114 634 l 257
 293 652 341 734 342 890 c 257
 342 1157 l 258
 342 1311 385 1438 722 1438 c 257
 722 1328 l 257
 718.835 1328.03 715.711 1328.04 712.628 1328.04 c 256
 503.395 1328.04 483 1261.29 483 1145 c 258
EndSplineSet
EndChar

StartChar: braceright
Encoding: 125 125 200
Width: 816
VWidth: 0
GlyphClass: 2
Flags: W
PickledData: "(dp1
S'org.robofab.postScriptHintData'
p2
(dp3
sS'com.typemytype.robofont.layerData'
p4
(dp5
s."
LayerCount: 2
Fore
SplineSet
106 -256 m 257
 106 -145 l 257
 109.18 -145.029 112.318 -145.044 115.414 -145.044 c 256
 325.577 -145.044 345 -78.2866 345 38 c 258
 345 314 l 258
 345 467 412 558 522 593 c 257
 408 633 345 731 345 886 c 258
 345 1158 l 258
 345 1278.6 316.16 1328.06 118.979 1328.06 c 256
 115.053 1328.06 111.061 1328.04 107 1328 c 257
 107 1438 l 257
 435 1437 487 1322 487 1165 c 258
 487 898 l 258
 487 737 530 653 715 633 c 257
 715 549 l 257
 536 531 487 449 487 293 c 258
 487 26 l 258
 487 -128 443 -256 106 -256 c 257
EndSplineSet
EndChar

StartChar: bracketleft
Encoding: 91 91 201
Width: 688
VWidth: 0
GlyphClass: 2
Flags: W
PickledData: "(dp1
S'org.robofab.postScriptHintData'
p2
(dp3
sS'com.typemytype.robofont.layerData'
p4
(dp5
s."
LayerCount: 2
Fore
SplineSet
192 -274 m 257
 192 1447 l 257
 595 1447 l 257
 595 1340 l 257
 331 1340 l 257
 331 -168 l 257
 596 -168 l 257
 596 -274 l 257
 192 -274 l 257
EndSplineSet
EndChar

StartChar: bracketright
Encoding: 93 93 202
Width: 688
VWidth: 0
GlyphClass: 2
Flags: W
PickledData: "(dp1
S'org.robofab.postScriptHintData'
p2
(dp3
sS'com.typemytype.robofont.layerData'
p4
(dp5
s."
LayerCount: 2
Fore
SplineSet
149 -274 m 257
 149 -168 l 257
 414 -168 l 257
 414 1340 l 257
 147 1340 l 257
 147 1447 l 257
 553 1447 l 257
 553 -274 l 257
 149 -274 l 257
EndSplineSet
EndChar

StartChar: breve
Encoding: 728 728 203
Width: 559
VWidth: 0
GlyphClass: 4
Flags: W
PickledData: "(dp1
S'org.robofab.postScriptHintData'
p2
(dp3
sS'com.typemytype.robofont.layerData'
p4
(dp5
S'b'
(dp6
S'name'
p7
S'breve'
p8
sS'lib'
p9
(dp10
sS'unicodes'
p11
(tsS'width'
p12
F621.60000000000002
sS'contours'
p13
(tsS'components'
p14
(tsS'anchors'
p15
(tsss."
AnchorPoint: "top" 285 1026 mark 0
LayerCount: 2
Fore
SplineSet
281 1171 m 256
 123 1171 45 1246 33 1408 c 257
 136 1408 l 257
 141 1314 189 1275 281 1275 c 256
 374 1275 413 1321 425 1408 c 257
 526 1408 l 257
 515 1250 430 1171 281 1171 c 256
EndSplineSet
EndChar

StartChar: brokenbar
Encoding: 166 166 204
Width: 500
VWidth: 0
GlyphClass: 2
Flags: W
PickledData: "(dp1
S'org.robofab.postScriptHintData'
p2
(dp3
sS'com.typemytype.robofont.layerData'
p4
(dp5
s."
LayerCount: 2
Fore
SplineSet
203 702 m 257
 203 1554 l 257
 331 1554 l 257
 331 702 l 257
 203 702 l 257
203 -499 m 257
 203 388 l 257
 331 388 l 257
 331 -499 l 257
 203 -499 l 257
EndSplineSet
EndChar

StartChar: bullet
Encoding: 8226 8226 205
Width: 990
VWidth: 0
GlyphClass: 2
Flags: W
PickledData: "(dp1
S'org.robofab.postScriptHintData'
p2
(dp3
sS'com.typemytype.robofont.layerData'
p4
(dp5
S'b'
(dp6
S'name'
p7
S'bullet'
p8
sS'lib'
p9
(dp10
sS'unicodes'
p11
(tsS'width'
p12
F989.64999999999998
sS'contours'
p13
(tsS'components'
p14
(tsS'anchors'
p15
(tsss."
LayerCount: 2
Fore
SplineSet
497 391 m 256
 315 391 181 530 181 696 c 256
 181 867 317 1010 497 1010 c 256
 677 1010 818 864 818 696 c 256
 818 525 679 391 497 391 c 256
EndSplineSet
EndChar

StartChar: c
Encoding: 99 99 207
Width: 1043
VWidth: 0
GlyphClass: 2
Flags: W
PickledData: "(dp1
S'org.robofab.postScriptHintData'
p2
(dp3
sS'com.typemytype.robofont.layerData'
p4
(dp5
S'b'
(dp6
S'name'
p7
S'c'
sS'lib'
p8
(dp9
sS'unicodes'
p10
(tsS'width'
p11
F1035.55
sS'contours'
p12
((dp13
S'points'
p14
((dp15
S'segmentType'
p16
S'curve'
p17
sS'x'
F605
sS'smooth'
p18
I01
sS'y'
F-22
s(dp19
S'y'
F-22
sS'x'
F302
sg18
I00
s(dp20
S'y'
F180
sS'x'
F98
sg18
I00
s(dp21
g16
S'curve'
p22
sS'x'
F98
sg18
I01
sS'y'
F503
s(dp23
S'y'
F840
sS'x'
F98
sg18
I00
s(dp24
S'y'
F1052
sS'x'
F301
sg18
I00
s(dp25
g16
S'curve'
p26
sS'x'
F624
sg18
I01
sS'y'
F1052
s(dp27
S'y'
F1052
sS'x'
F750
sg18
I00
s(dp28
S'y'
F1001
sS'x'
F871
sg18
I00
s(dp29
g16
S'curve'
p30
sS'x'
F938
sg18
I00
sS'y'
F922
s(dp31
g16
S'line'
p32
sS'x'
F890
sg18
I00
sS'y'
F805
s(dp33
S'y'
F874
sS'x'
F825
sg18
I00
s(dp34
S'y'
F918
sS'x'
F721
sg18
I00
s(dp35
g16
S'curve'
p36
sS'x'
F619
sg18
I01
sS'y'
F918
s(dp37
S'y'
F918
sS'x'
F406
sg18
I00
s(dp38
S'y'
F756
sS'x'
F268
sg18
I00
s(dp39
g16
S'curve'
p40
sS'x'
F268
sg18
I01
sS'y'
F505
s(dp41
S'y'
F260
sS'x'
F268
sg18
I00
s(dp42
S'y'
F112
sS'x'
F407
sg18
I00
s(dp43
g16
S'curve'
p44
sS'x'
F611
sg18
I01
sS'y'
F112
s(dp45
S'y'
F112
sS'x'
F716
sg18
I00
s(dp46
S'y'
F145
sS'x'
F827
sg18
I00
s(dp47
g16
S'curve'
p48
sS'x'
F901
sg18
I00
sS'y'
F202
s(dp49
g16
S'line'
p50
sS'x'
F953
sg18
I00
sS'y'
F87
s(dp51
S'y'
F19
sS'x'
F873
sg18
I00
s(dp52
S'y'
F-22
sS'x'
F747
sg18
I00
stp53
stp54
sS'components'
p55
(tsS'anchors'
p56
(tsss."
AnchorPoint: "top" 591 1026 basechar 0
LayerCount: 2
Fore
SplineSet
618 -21 m 256
 300 -21 98 193 98 504 c 256
 98 833 306 1052 625 1052 c 256
 754 1052 875 1011 950 941 c 257
 901 844 l 257
 837 899 743 936 632 936 c 256
 401 936 244 776 244 505 c 256
 244 255 392 95 625 95 c 256
 751 95 852 140 924 195 c 257
 970 96 l 257
 885 22 759 -21 618 -21 c 256
EndSplineSet
EndChar

StartChar: caron
Encoding: 711 711 209
Width: 699
VWidth: 0
GlyphClass: 4
Flags: W
PickledData: "(dp1
S'org.robofab.postScriptHintData'
p2
(dp3
s."
AnchorPoint: "top" 347 1026 mark 0
LayerCount: 2
Fore
SplineSet
277 1185 m 257
 49 1494 l 257
 170 1494 l 257
 344 1268 l 257
 523 1494 l 257
 650 1494 l 257
 422 1185 l 257
 277 1185 l 257
EndSplineSet
EndChar

StartChar: caron.alt
Encoding: 65537 -1 210
Width: 600
VWidth: 0
GlyphClass: 4
Flags: W
PickledData: "(dp1
S'org.robofab.postScriptHintData'
p2
(dp3
s."
AnchorPoint: "caron.alt" 63 1026 mark 0
LayerCount: 2
Fore
SplineSet
326 1038 m 257
 432 1491 l 257
 595 1491 l 257
 436 1038 l 257
 326 1038 l 257
EndSplineSet
EndChar

StartChar: cedilla
Encoding: 184 184 215
Width: 529
VWidth: 0
GlyphClass: 2
Flags: W
PickledData: "(dp1
S'org.robofab.postScriptHintData'
p2
(dp3
sS'com.typemytype.robofont.layerData'
p4
(dp5
S'b'
(dp6
S'name'
p7
S'cedilla'
p8
sS'lib'
p9
(dp10
sS'unicodes'
p11
(tsS'width'
p12
I529
sS'contours'
p13
(tsS'components'
p14
(tsS'anchors'
p15
(tsss."
LayerCount: 2
Fore
SplineSet
78 -307 m 257
 103.874 -318.859 174.912 -335.107 229.737 -335.107 c 256
 306.255 -335.107 336 -309.314 336 -264 c 256
 336 -218 276 -188 168 -188 c 258
 154 -188 l 257
 187 7 l 257
 265 7 l 257
 243 -129 l 257
 352 -137 458 -172 458 -270 c 256
 458 -380.137 350.654 -418.076 238.735 -418.076 c 256
 164.485 -418.076 88.4726 -393.193 66 -384 c 257
 78 -307 l 257
EndSplineSet
EndChar

StartChar: cent
Encoding: 162 162 216
Width: 999
VWidth: 0
GlyphClass: 2
Flags: W
PickledData: "(dp1
S'org.robofab.postScriptHintData'
p2
(dp3
sS'com.typemytype.robofont.layerData'
p4
(dp5
S'b'
(dp6
S'name'
p7
S'cent'
p8
sS'lib'
p9
(dp10
sS'unicodes'
p11
(tsS'width'
p12
F1033.2
sS'contours'
p13
(tsS'components'
p14
(tsS'anchors'
p15
(tsss."
LayerCount: 2
Fore
SplineSet
652 -20.1577 m 257
 652 -196 l 257
 573 -196 l 257
 573 -19.5325 l 257
 281.065 -0.223336 98 207.935 98 504 c 256
 98 814.766 283.583 1027.39 573 1050 c 257
 573 1253 l 257
 652 1253 l 257
 652 1051.4 l 257
 770.74 1046.11 880.258 1006.09 950 941 c 257
 901 844 l 257
 840.88 895.665 754.288 931.447 652 935.596 c 257
 652 95.6958 l 257
 765.488 101.575 857.218 143.986 924 195 c 257
 970 96 l 257
 891.894 28.0022 779.17 -13.8205 652 -20.1577 c 257
573 97.7829 m 257
 573 932.343 l 257
 374.675 907.089 244 752.239 244 505 c 256
 244 274.143 370.203 120.031 573 97.7829 c 257
EndSplineSet
EndChar

StartChar: circumflex
Encoding: 710 710 217
Width: 699
VWidth: 0
GlyphClass: 4
Flags: W
PickledData: "(dp1
S'org.robofab.postScriptHintData'
p2
(dp3
sS'com.typemytype.robofont.layerData'
p4
(dp5
S'b'
(dp6
S'name'
p7
S'circumflex'
p8
sS'lib'
p9
(dp10
sS'unicodes'
p11
(tsS'width'
p12
I699
sS'contours'
p13
(tsS'components'
p14
(tsS'anchors'
p15
(tsss."
AnchorPoint: "top" 345 1026 mark 0
LayerCount: 2
Fore
SplineSet
75 1185 m 257
 295 1494 l 257
 405 1494 l 257
 623 1185 l 257
 517 1185 l 257
 346 1386 l 257
 175 1185 l 257
 75 1185 l 257
EndSplineSet
EndChar

StartChar: colon
Encoding: 58 58 218
Width: 508
VWidth: 0
GlyphClass: 2
Flags: W
PickledData: "(dp1
S'org.robofab.postScriptHintData'
p2
(dp3
sS'com.typemytype.robofont.layerData'
p4
(dp5
S'b'
(dp6
S'name'
p7
S'colon'
p8
sS'lib'
p9
(dp10
sS'unicodes'
p11
(tsS'width'
p12
F544.60000000000002
sS'contours'
p13
(tsS'components'
p14
(tsS'anchors'
p15
(tsss."
LayerCount: 2
Fore
SplineSet
167 845 m 257
 167 1041 l 257
 353 1041 l 257
 353 845 l 257
 167 845 l 257
167 4 m 257
 167 201 l 257
 353 201 l 257
 353 4 l 257
 167 4 l 257
EndSplineSet
EndChar

StartChar: comma
Encoding: 44 44 219
Width: 448
VWidth: 0
GlyphClass: 2
Flags: W
PickledData: "(dp1
S'org.robofab.postScriptHintData'
p2
(dp3
sS'com.typemytype.robofont.layerData'
p4
(dp5
S'b'
(dp6
S'name'
p7
S'comma'
p8
sS'lib'
p9
(dp10
sS'unicodes'
p11
(tsS'width'
p12
F491.10000000000002
sS'contours'
p13
(tsS'components'
p14
(tsS'anchors'
p15
(tsss."
LayerCount: 2
Fore
SplineSet
85 -260 m 257
 191 193 l 257
 354 193 l 257
 195 -260 l 257
 85 -260 l 257
EndSplineSet
EndChar

StartChar: copyright
Encoding: 169 169 220
Width: 1738
VWidth: 0
GlyphClass: 2
Flags: W
PickledData: "(dp1
S'org.robofab.postScriptHintData'
p2
(dp3
sS'com.typemytype.robofont.layerData'
p4
(dp5
S'b'
(dp6
S'name'
p7
S'copyright'
p8
sS'lib'
p9
(dp10
sS'unicodes'
p11
(tsS'width'
p12
I1733
sS'contours'
p13
(tsS'components'
p14
(tsS'anchors'
p15
(tsss."
LayerCount: 2
Fore
SplineSet
868 -32 m 256
 451 -32 109 308 109 726 c 256
 109 1143 451 1485 868 1485 c 256
 1287 1485 1630 1143 1630 726 c 256
 1630 308 1287 -32 868 -32 c 256
870 60 m 256
 1230 60 1522 362 1522 722 c 256
 1522 1083 1230 1387 870 1387 c 256
 509 1387 217 1083 217 722 c 256
 217 362 509 60 870 60 c 256
891 276 m 256
 645 276 462 436 462 716 c 256
 462 1006 651 1179 899 1179 c 256
 997 1179 1093 1146 1155 1086 c 257
 1114 1004 l 257
 1060 1049 977 1078 900 1078 c 256
 757 1078 586 989 586 718 c 256
 586 503 706 376 887 376 c 256
 969 376 1063 398 1133 452 c 257
 1173 366 l 257
 1107 312 1010 276 891 276 c 256
EndSplineSet
EndChar

StartChar: currency
Encoding: 164 164 221
Width: 1218
VWidth: 0
GlyphClass: 2
Flags: W
PickledData: "(dp1
S'org.robofab.postScriptHintData'
p2
(dp3
s."
LayerCount: 2
Fore
SplineSet
609 713 m 256
 783 713 911 853 911 1027 c 256
 911 1201 783 1334 609 1334 c 256
 435 1334 307 1201 307 1027 c 256
 307 853 435 713 609 713 c 256
171 546 m 257
 120 597 l 257
 307 784 l 257
 252 850 219 934 219 1027 c 256
 219 1124 255 1212 314 1279 c 257
 119 1474 l 257
 170 1525 l 257
 367 1329 l 257
 433 1381 518 1412 610 1412 c 256
 702 1412 786 1381 853 1330 c 257
 1048 1525 l 257
 1099 1474 l 257
 906 1281 l 257
 966 1213 1002 1125 1002 1027 c 256
 1002 934 969 849 913 782 c 257
 1099 597 l 257
 1048 546 l 257
 862 732 l 257
 794 676 706 642 610 642 c 256
 514 642 426 676 358 733 c 257
 171 546 l 257
EndSplineSet
EndChar

StartChar: d
Encoding: 100 100 222
Width: 1260
VWidth: 0
GlyphClass: 2
Flags: W
PickledData: "(dp1
S'org.robofab.postScriptHintData'
p2
(dp3
sS'com.typemytype.robofont.layerData'
p4
(dp5
S'b'
(dp6
S'name'
p7
S'd'
sS'lib'
p8
(dp9
sS'unicodes'
p10
(tsS'width'
p11
F1265.05
sS'contours'
p12
(tsS'components'
p13
(tsS'anchors'
p14
(tsss."
AnchorPoint: "top" 567 1026 basechar 0
AnchorPoint: "caron.alt" 905 1026 basechar 0
LayerCount: 2
Fore
SplineSet
578 95 m 256
 804 95 937 264 937 521 c 256
 937 768 803 936 580 936 c 256
 364 936 243 768 243 517 c 256
 243 265 361 95 578 95 c 256
565 -21 m 256
 288 -21 98 187 98 515 c 256
 98 834 278 1052 570 1052 c 256
 744 1052 883 957 935 835 c 257
 935 1501 l 257
 1076 1501 l 257
 1076 267 l 257
 1077 183 1081 64 1083 0 c 257
 940 0 l 257
 936 207 l 257
 889 79 752 -21 565 -21 c 256
EndSplineSet
EndChar

StartChar: dagger
Encoding: 8224 8224 223
Width: 1022
VWidth: 0
GlyphClass: 2
Flags: W
PickledData: "(dp1
S'org.robofab.postScriptHintData'
p2
(dp3
sS'com.typemytype.robofont.layerData'
p4
(dp5
s."
LayerCount: 2
Fore
SplineSet
449 0 m 257
 449 946 l 257
 118 946 l 257
 118 1051 l 257
 449 1051 l 257
 449 1465 l 257
 582 1465 l 257
 582 1051 l 257
 917 1051 l 257
 917 946 l 257
 579 946 l 257
 579 0 l 257
 449 0 l 257
EndSplineSet
EndChar

StartChar: daggerdbl
Encoding: 8225 8225 224
Width: 1028
VWidth: 0
GlyphClass: 2
Flags: W
PickledData: "(dp1
S'org.robofab.postScriptHintData'
p2
(dp3
sS'com.typemytype.robofont.layerData'
p4
(dp5
S'b'
(dp6
S'name'
p7
S'daggerdbl'
p8
sS'lib'
p9
(dp10
sS'unicodes'
p11
(tsS'width'
p12
F1092.6500000000001
sS'contours'
p13
(tsS'components'
p14
(tsS'anchors'
p15
(tsss."
LayerCount: 2
Fore
SplineSet
108 1051 m 257
 443 1051 l 257
 443 1466 l 257
 579 1466 l 257
 579 1051 l 257
 914 1051 l 257
 914 954 l 257
 579 954 l 257
 579 497 l 257
 911 497 l 257
 911 402 l 257
 579 402 l 257
 579 0 l 257
 443 0 l 257
 443 402 l 257
 106 402 l 257
 106 497 l 257
 443 497 l 257
 443 954 l 257
 108 954 l 257
 108 1051 l 257
EndSplineSet
EndChar

StartChar: degree
Encoding: 176 176 228
Width: 833
VWidth: 0
GlyphClass: 2
Flags: W
PickledData: "(dp1
S'org.robofab.postScriptHintData'
p2
(dp3
sS'com.typemytype.robofont.layerData'
p4
(dp5
S'b'
(dp6
S'name'
p7
S'degree'
p8
sS'lib'
p9
(dp10
sS'unicodes'
p11
(tsS'width'
p12
F856.60000000000002
sS'contours'
p13
(tsS'components'
p14
(tsS'anchors'
p15
(tsss."
LayerCount: 2
Fore
SplineSet
416 857 m 256
 244 857 119 989 119 1149 c 256
 119 1309 243 1439 416 1439 c 256
 590 1439 714 1309 714 1149 c 256
 714 989 588 857 416 857 c 256
416 957 m 256
 540 957 604 1048 604 1150 c 256
 604 1252 537 1341 416 1341 c 256
 296 1341 228 1252 228 1150 c 256
 228 1048 292 957 416 957 c 256
EndSplineSet
EndChar

StartChar: dieresis
Encoding: 168 168 229
Width: 743
VWidth: 0
GlyphClass: 4
Flags: W
PickledData: "(dp1
S'org.robofab.postScriptHintData'
p2
(dp3
s."
AnchorPoint: "top" 373 1026 mark 0
LayerCount: 2
Fore
SplineSet
486 1196 m 257
 486 1344 l 257
 629 1344 l 257
 629 1196 l 257
 486 1196 l 257
116 1196 m 257
 116 1344 l 257
 259 1344 l 257
 259 1196 l 257
 116 1196 l 257
EndSplineSet
EndChar

StartChar: divide
Encoding: 247 247 230
Width: 1146
VWidth: 0
GlyphClass: 2
Flags: W
PickledData: "(dp1
S'org.robofab.postScriptHintData'
p2
(dp3
sS'com.typemytype.robofont.layerData'
p4
(dp5
s."
LayerCount: 2
Fore
SplineSet
493 880 m 257
 493 1077 l 257
 688 1077 l 257
 688 880 l 257
 493 880 l 257
142 493 m 257
 142 617 l 257
 1027 617 l 257
 1027 493 l 257
 142 493 l 257
492 30 m 257
 492 226 l 257
 687 226 l 257
 687 30 l 257
 492 30 l 257
EndSplineSet
EndChar

StartChar: dollar
Encoding: 36 36 232
Width: 1170
VWidth: 0
GlyphClass: 2
Flags: W
PickledData: "(dp1
S'org.robofab.postScriptHintData'
p2
(dp3
sS'com.typemytype.robofont.layerData'
p4
(dp5
S'b'
(dp6
S'name'
p7
S'dollar'
p8
sS'lib'
p9
(dp10
sS'unicodes'
p11
(tsS'width'
p12
F1200.0999999999999
sS'contours'
p13
(tsS'components'
p14
(tsS'anchors'
p15
(tsss."
LayerCount: 2
Fore
SplineSet
574 1357.04 m 257
 574 828.524 l 257
 556.896 833.167 543.116 836.961 540 838 c 256
 336 896 286 952 286 1109 c 256
 286 1261.14 398.014 1347.13 574 1357.04 c 257
654 105.369 m 257
 654 664.534 l 257
 867.23 599.235 921.198 534.213 921.198 386.96 c 256
 921.198 228.792 828.069 125.37 654 105.369 c 257
1070.22 390.353 m 256
 1070.22 609.046 982.913 714.722 654 806.859 c 257
 654 1356.47 l 257
 810.202 1345.65 905.902 1280.18 948 1239 c 257
 1019 1341 l 257
 978.19 1378.1 882.322 1466.82 654 1479.48 c 257
 654 1625 l 257
 574 1625 l 257
 574 1480.66 l 257
 308.272 1473.09 131 1339.02 131 1105 c 256
 131 870 260 774 503 706 c 256
 509.199 704.309 543.665 695.314 574 687.247 c 257
 574 102.299 l 257
 383.545 108.315 256.248 203.465 203 248 c 257
 136 142 l 257
 180.642 101.24 325.119 -13.9254 574 -20.6888 c 257
 574 -198 l 257
 654 -198 l 257
 654 -18.8883 l 257
 907.476 0.272925 1070.22 143.408 1070.22 390.353 c 256
EndSplineSet
EndChar

StartChar: dotaccent
Encoding: 729 729 233
Width: 524
VWidth: 0
GlyphClass: 4
Flags: W
PickledData: "(dp1
S'org.robofab.postScriptHintData'
p2
(dp3
sS'com.typemytype.robofont.layerData'
p4
(dp5
S'b'
(dp6
S'name'
p7
S'dotaccent'
p8
sS'lib'
p9
(dp10
sS'unicodes'
p11
(tsS'width'
p12
F524
sS'contours'
p13
(tsS'components'
p14
(tsS'anchors'
p15
(tsss."
AnchorPoint: "top" 264 1026 mark 0
LayerCount: 2
Fore
SplineSet
185 1247 m 257
 185 1401 l 257
 339 1401 l 257
 339 1247 l 257
 185 1247 l 257
EndSplineSet
EndChar

StartChar: dotlessi
Encoding: 305 305 234
Width: 503
VWidth: 0
GlyphClass: 2
Flags: W
PickledData: "(dp1
S'org.robofab.postScriptHintData'
p2
(dp3
sS'com.typemytype.robofont.layerData'
p4
(dp5
s."
AnchorPoint: "top" 253 1026 basechar 0
LayerCount: 2
Fore
SplineSet
182 0 m 257
 181 1026 l 257
 324 1026 l 257
 325 0 l 257
 182 0 l 257
EndSplineSet
EndChar

StartChar: uni0237
Encoding: 567 567 235
Width: 503
VWidth: 0
GlyphClass: 2
Flags: W
PickledData: "(dp1
S'org.robofab.postScriptHintData'
p2
(dp3
s."
AnchorPoint: "top" 264 1026 basechar 0
LayerCount: 2
Fore
SplineSet
20 -434 m 256
 -16 -434 -54 -433 -91 -424 c 257
 -93 -297 l 257
 -66 -302 -40 -305 -19 -305 c 256
 125 -305 189 -203 189 23 c 258
 189 1026 l 257
 333 1026 l 257
 333 109 l 258
 333 -126 308 -434 20 -434 c 256
EndSplineSet
EndChar

StartChar: e
Encoding: 101 101 238
Width: 1150
VWidth: 0
GlyphClass: 2
Flags: W
PickledData: "(dp1
S'org.robofab.postScriptHintData'
p2
(dp3
sS'com.typemytype.robofont.layerData'
p4
(dp5
S'b'
(dp6
S'name'
p7
S'e'
sS'lib'
p8
(dp9
sS'unicodes'
p10
(tsS'width'
p11
F1169.75
sS'contours'
p12
(tsS'components'
p13
(tsS'anchors'
p14
(tsssS'com.fontlab.hintData'
p15
(dp16
S'vhints'
p17
((dp18
S'position'
p19
I106
sg11
I195
stp20
sS'hhints'
p21
((dp22
g19
I-22
sg11
I154
s(dp23
g19
I486
sg11
I131
s(dp24
g19
I901
sg11
I151
stp25
ssS'com.typemytype.robofont.guides'
p26
(ts."
HStem: -22 154 486 131 901 151
VStem: 106 195
AnchorPoint: "top" 588 1026 basechar 0
LayerCount: 2
Fore
SplineSet
249 596 m 257
 924 596 l 257
 910 810 787 938 602 938 c 256
 409 938 272 807 249 596 c 257
625 -21 m 256
 303 -21 98 188 98 509 c 256
 98 831 294 1052 599 1052 c 256
 885 1052 1049 848 1049 551 c 256
 1049 548 1049 507 1048 497 c 257
 244 497 l 257
 244 244 398 95 630 95 c 256
 755 95 873 136 966 209 c 257
 1012 107 l 257
 910 25 768 -21 625 -21 c 256
EndSplineSet
EndChar

StartChar: eight
Encoding: 56 56 247
Width: 1205
VWidth: 0
GlyphClass: 2
Flags: W
PickledData: "(dp1
S'org.robofab.postScriptHintData'
p2
(dp3
sS'com.typemytype.robofont.layerData'
p4
(dp5
S'b'
(dp6
S'name'
p7
S'eight'
p8
sS'lib'
p9
(dp10
sS'unicodes'
p11
(tsS'width'
p12
F1235.45
sS'contours'
p13
(tsS'components'
p14
(tsS'anchors'
p15
(tsss."
LayerCount: 2
Fore
SplineSet
604 832 m 257
 793 867 900 962 900 1116 c 256
 900 1279 761 1366 605 1366 c 256
 451 1366 311 1279 311 1118 c 256
 311 962 418 867 604 832 c 257
604 101 m 256
 792 101 927 200 927 379 c 256
 927 554 795 651 602 689 c 257
 416 651 281 550 281 379 c 256
 281 198 419 101 604 101 c 256
603 -23 m 256
 362 -23 134 117 134 371 c 256
 134 561 248 702 456 762 c 257
 276 816 169 941 169 1117 c 256
 169 1347 365 1483 605 1483 c 256
 839 1483 1041 1348 1041 1120 c 256
 1041 944 933 819 753 764 c 257
 965 702 1075 563 1075 372 c 256
 1075 119 852 -23 603 -23 c 256
EndSplineSet
EndChar

StartChar: ellipsis
Encoding: 8230 8230 249
Width: 1620
VWidth: 0
GlyphClass: 2
Flags: W
PickledData: "(dp1
S'org.robofab.postScriptHintData'
p2
(dp3
s."
LayerCount: 2
Fore
SplineSet
1260 -11 m 257
 1260 185 l 257
 1456 185 l 257
 1456 -11 l 257
 1260 -11 l 257
715 -11 m 257
 715 185 l 257
 910 185 l 257
 910 -11 l 257
 715 -11 l 257
170 -11 m 257
 170 185 l 257
 366 185 l 257
 365 -11 l 257
 170 -11 l 257
EndSplineSet
EndChar

StartChar: emdash
Encoding: 8212 8212 251
Width: 2171
VWidth: 0
GlyphClass: 2
Flags: W
PickledData: "(dp1
S'org.robofab.postScriptHintData'
p2
(dp3
s."
LayerCount: 2
Fore
SplineSet
-13 497 m 257
 -13 619 l 257
 2166 619 l 257
 2166 497 l 257
 -13 497 l 257
EndSplineSet
EndChar

StartChar: endash
Encoding: 8211 8211 252
Width: 1085
VWidth: 0
GlyphClass: 2
Flags: W
PickledData: "(dp1
S'org.robofab.postScriptHintData'
p2
(dp3
sS'com.typemytype.robofont.layerData'
p4
(dp5
s."
LayerCount: 2
Fore
SplineSet
-5 501 m 257
 -5 619 l 257
 1081 619 l 257
 1081 501 l 257
 -5 501 l 257
EndSplineSet
EndChar

StartChar: eng
Encoding: 331 331 253
Width: 1265
VWidth: 0
GlyphClass: 2
Flags: W
PickledData: "(dp1
S'org.robofab.postScriptHintData'
p2
(dp3
sS'com.typemytype.robofont.layerData'
p4
(dp5
s."
LayerCount: 2
Fore
SplineSet
650 -399 m 257
 650 -288 l 257
 922 -288 948 -128 948 132 c 258
 948 515 l 258
 948 760 920 931 681 931 c 256
 455 931 333 736 332 660 c 257
 332 0 l 257
 189 0 l 257
 189 811 l 258
 189 907 186 1026 186 1026 c 257
 329 1026 l 257
 334 885 l 257
 419 996 540 1050 706 1050 c 256
 1023 1050 1092 822 1092 542 c 258
 1092 143 l 258
 1092 -189 1019 -399 650 -399 c 257
EndSplineSet
EndChar

StartChar: equal
Encoding: 61 61 255
Width: 1165
VWidth: 0
GlyphClass: 2
Flags: W
PickledData: "(dp1
S'org.robofab.postScriptHintData'
p2
(dp3
sS'com.typemytype.robofont.layerData'
p4
(dp5
S'b'
(dp6
S'name'
p7
S'equal'
p8
sS'lib'
p9
(dp10
sS'unicodes'
p11
(tsS'width'
p12
I1229
sS'contours'
p13
(tsS'components'
p14
(tsS'anchors'
p15
(tsss."
LayerCount: 2
Fore
SplineSet
140 694 m 257
 140 818 l 257
 1024 818 l 257
 1024 694 l 257
 140 694 l 257
142 313 m 257
 142 435 l 257
 1025 435 l 257
 1025 313 l 257
 142 313 l 257
EndSplineSet
EndChar

StartChar: estimated
Encoding: 8494 8494 256
Width: 1195
VWidth: 0
GlyphClass: 2
Flags: W
PickledData: "(dp1
S'org.robofab.postScriptHintData'
p2
(dp3
s."
LayerCount: 2
Fore
SplineSet
296 713 m 257
 902 713 l 257
 902 1037 769 1141 609 1141 c 256
 461 1141 298 1036 296 713 c 257
627 114 m 256
 342 114 126 294 126 652 c 256
 126 1050 370 1199 611 1199 c 256
 846 1199 1044 1075 1044 700 c 256
 1044 689 1043 671 1039 655 c 257
 296 655 l 257
 295.988 652.949 295.983 650.905 295.983 648.869 c 256
 295.983 301.524 465.166 176 664 176 c 256
 766 176 904 218 1029 299 c 257
 1056 247 l 257
 920 158 769 114 627 114 c 256
EndSplineSet
EndChar

StartChar: eth
Encoding: 240 240 257
Width: 1227
VWidth: 0
GlyphClass: 2
Flags: W
PickledData: "(dp1
S'org.robofab.postScriptHintData'
p2
(dp3
sS'com.typemytype.robofont.layerData'
p4
(dp5
S'b'
(dp6
S'name'
p7
S'eth'
p8
sS'lib'
p9
(dp10
sS'unicodes'
p11
(tsS'width'
p12
F1222.55
sS'contours'
p13
(tsS'components'
p14
(tsS'anchors'
p15
(tsss."
LayerCount: 2
Fore
SplineSet
610 99 m 256
 825 99 948 251 948 480 c 256
 948 659 794 781 599 781 c 256
 392 781 262 651 262 441 c 256
 262 231 400 99 610 99 c 256
608 -22 m 256
 303 -22 116 171 116 443 c 256
 116 716 305 898 597 898 c 256
 790 898 917 796 970 701 c 257
 962 878 878 1100 685 1249 c 257
 494 1116 l 257
 436 1200 l 257
 596 1312 l 257
 506 1368 399 1415 277 1450 c 257
 334 1551 l 257
 465 1516 591 1461 703 1385 c 257
 894 1518 l 257
 953 1435 l 257
 788 1320 l 257
 978 1163 1102 935 1102 613 c 256
 1102 209 927 -22 608 -22 c 256
EndSplineSet
EndChar

StartChar: exclam
Encoding: 33 33 259
Width: 512
VWidth: 0
GlyphClass: 2
Flags: W
PickledData: "(dp1
S'org.robofab.postScriptHintData'
p2
(dp3
sS'com.typemytype.robofont.layerData'
p4
(dp5
S'b'
(dp6
S'name'
p7
S'exclam'
p8
sS'lib'
p9
(dp10
sS'unicodes'
p11
(tsS'width'
p12
F590
sS'contours'
p13
(tsS'components'
p14
(tsS'anchors'
p15
(tsss."
LayerCount: 2
Fore
SplineSet
222 370 m 257
 179 1456 l 257
 348 1456 l 257
 304 370 l 257
 222 370 l 257
177 0 m 257
 177 190 l 257
 348 190 l 257
 348 0 l 257
 177 0 l 257
EndSplineSet
EndChar

StartChar: exclamdown
Encoding: 161 161 260
Width: 481
VWidth: 0
GlyphClass: 2
Flags: W
PickledData: "(dp1
S'org.robofab.postScriptHintData'
p2
(dp3
sS'com.typemytype.robofont.layerData'
p4
(dp5
S'b'
(dp6
S'name'
p7
S'exclamdown'
p8
sS'lib'
p9
(dp10
sS'unicodes'
p11
(tsS'width'
p12
F614.5
sS'contours'
p13
(tsS'components'
p14
(tsS'anchors'
p15
(tsss."
LayerCount: 2
Fore
SplineSet
151 1122 m 257
 322 1122 l 257
 322 932 l 257
 151 932 l 257
 151 1122 l 257
196 752 m 257
 278 752 l 257
 322 -334 l 257
 153 -334 l 257
 196 752 l 257
EndSplineSet
EndChar

StartChar: f
Encoding: 102 102 261
Width: 665
VWidth: 0
GlyphClass: 2
Flags: W
PickledData: "(dp1
S'org.robofab.postScriptHintData'
p2
(dp3
sS'com.typemytype.robofont.layerData'
p4
(dp5
S'b'
(dp6
S'name'
p7
S'f'
sS'lib'
p8
(dp9
sS'unicodes'
p10
(tsS'width'
p11
F733.10000000000002
sS'contours'
p12
(tsS'components'
p13
(tsS'anchors'
p14
(tsss."
AnchorPoint: "top" 320 1456 basechar 0
LayerCount: 2
Fore
SplineSet
247 0 m 257
 247 932 l 257
 68 932 l 257
 68 1026 l 257
 247 1026 l 257
 247 1147 l 258
 247 1388 295 1492 613 1492 c 258
 654 1492 l 257
 652 1379 l 257
 400 1379 388 1331 388 1167 c 258
 388 1026 l 257
 642 1026 l 257
 642 932 l 257
 388 932 l 257
 388 0 l 257
 247 0 l 257
EndSplineSet
EndChar

StartChar: uniFB00
Encoding: 64256 64256 262
Width: 1277
VWidth: 0
GlyphClass: 2
Flags: W
PickledData: "(dp1
S'org.robofab.postScriptHintData'
p2
(dp3
sS'com.typemytype.robofont.layerData'
p4
(dp5
s."
LayerCount: 2
Fore
SplineSet
1001 937 m 257
 1001 0 l 257
 867 0 l 257
 867 937 l 257
 379 937 l 257
 379 0 l 257
 245 0 l 257
 245 937 l 257
 67 937 l 257
 67 1026 l 257
 245 1026 l 257
 245 1144 l 258
 245 1382 294 1492 607 1492 c 258
 651 1492 l 257
 654 1384 l 257
 397 1384 379 1322 379 1173 c 258
 379 1026 l 257
 867 1026 l 257
 867 1144 l 258
 867 1382 916 1492 1229 1492 c 258
 1273 1492 l 257
 1276 1384 l 257
 1019 1384 1001 1322 1001 1173 c 258
 1001 1026 l 257
 1257 1026 l 257
 1257 937 l 257
 1001 937 l 257
EndSplineSet
EndChar

StartChar: uniFB03
Encoding: 64259 64259 263
Width: 1763
VWidth: 0
GlyphClass: 2
Flags: W
PickledData: "(dp1
S'org.robofab.postScriptHintData'
p2
(dp3
sS'com.typemytype.robofont.layerData'
p4
(dp5
s."
LayerCount: 2
Fore
SplineSet
1575 1320 m 257
 1442 1320 l 257
 1442 1456 l 257
 1575 1456 l 257
 1575 1320 l 257
1575 0 m 257
 1442 0 l 257
 1442 937 l 257
 992 937 l 257
 992 0 l 257
 858 0 l 257
 858 937 l 257
 379 937 l 257
 379 0 l 257
 245 0 l 257
 245 937 l 257
 67 937 l 257
 67 1026 l 257
 245 1026 l 257
 245 1143 l 258
 245 1382 294 1492 607 1492 c 258
 651 1492 l 257
 654 1383 l 257
 397 1383 379 1321 379 1172 c 258
 379 1026 l 257
 858 1026 l 257
 858 1143 l 258
 858 1382 907 1492 1220 1492 c 258
 1264 1492 l 257
 1266 1383 l 257
 1010 1383 992 1321 992 1172 c 258
 992 1026 l 257
 1575 1026 l 257
 1575 0 l 257
EndSplineSet
EndChar

StartChar: uniFB04
Encoding: 64260 64260 264
Width: 1805
VWidth: 0
GlyphClass: 2
Flags: W
PickledData: "(dp1
S'org.robofab.postScriptHintData'
p2
(dp3
sS'com.typemytype.robofont.layerData'
p4
(dp5
s."
AnchorPoint: "top" 319 1456 basechar 0
LayerCount: 2
Fore
SplineSet
246 0 m 257
 246 937 l 257
 67 937 l 257
 67 1026 l 257
 246 1026 l 257
 246 1140 l 258
 246 1381 294 1492 612 1492 c 258
 656 1492 l 257
 659 1379 l 257
 405 1379 387 1319 387 1167 c 258
 387 1026 l 257
 641 1026 l 257
 641 937 l 257
 387 937 l 257
 387 0 l 257
 246 0 l 257
EndSplineSet
Refer: 269 64258 N 1 0 0 1 533 0 2
EndChar

StartChar: uniFB01
Encoding: 64257 64257 266
Width: 1199
VWidth: 0
GlyphClass: 2
Flags: W
PickledData: "(dp1
S'org.robofab.postScriptHintData'
p2
(dp3
sS'com.typemytype.robofont.layerData'
p4
(dp5
S'b'
(dp6
S'name'
p7
S'fi'
p8
sS'lib'
p9
(dp10
sS'unicodes'
p11
(tsS'width'
p12
F1237.6500000000001
sS'contours'
p13
((dp14
S'points'
p15
((dp16
S'segmentType'
p17
S'line'
p18
sS'x'
F249
sS'smooth'
p19
I00
sS'y'
F0
s(dp20
g17
S'line'
p21
sS'x'
F249
sg19
I00
sS'y'
F919
s(dp22
g17
S'line'
p23
sS'x'
F68
sg19
I00
sS'y'
F919
s(dp24
g17
S'line'
p25
sS'x'
F68
sg19
I00
sS'y'
F1026
s(dp26
g17
S'line'
p27
sS'x'
F249
sg19
I00
sS'y'
F1026
s(dp28
g17
S'line'
p29
sS'x'
F249
sg19
I01
sS'y'
F1127
s(dp30
S'y'
F1378
sS'x'
F249
sg19
I00
s(dp31
S'y'
F1492
sS'x'
F295
sg19
I00
s(dp32
g17
S'curve'
p33
sS'x'
F630
sg19
I01
sS'y'
F1492
s(dp34
g17
S'line'
p35
sS'x'
F676
sg19
I00
sS'y'
F1492
s(dp36
g17
S'line'
p37
sS'x'
F676
sg19
I00
sS'y'
F1364
s(dp38
S'y'
F1364
sS'x'
F431
sg19
I00
s(dp39
S'y'
F1311
sS'x'
F413
sg19
I00
s(dp40
g17
S'curve'
p41
sS'x'
F413
sg19
I01
sS'y'
F1150
s(dp42
g17
S'line'
p43
sS'x'
F413
sg19
I00
sS'y'
F1026
s(dp44
g17
S'line'
p45
sS'x'
F662
sg19
I00
sS'y'
F1026
s(dp46
g17
S'line'
p47
sS'x'
F662
sg19
I00
sS'y'
F919
s(dp48
g17
S'line'
p49
sS'x'
F413
sg19
I00
sS'y'
F919
s(dp50
g17
S'line'
p51
sS'x'
F413
sg19
I00
sS'y'
F0
stp52
s(dp53
g15
((dp54
g17
S'line'
p55
sS'x'
F869
sg19
I00
sS'y'
F0
s(dp56
g17
S'line'
p57
sS'x'
F869
sg19
I00
sS'y'
F1026
s(dp58
g17
S'line'
p59
sS'x'
F1033
sg19
I00
sS'y'
F1026
s(dp60
g17
S'line'
p61
sS'x'
F1033
sg19
I00
sS'y'
F0
stp62
s(dp63
g15
((dp64
g17
S'line'
p65
sS'x'
F869
sg19
I00
sS'y'
F1307
s(dp66
g17
S'line'
p67
sS'x'
F869
sg19
I00
sS'y'
F1462
s(dp68
g17
S'line'
p69
sS'x'
F1033
sg19
I00
sS'y'
F1462
s(dp70
g17
S'line'
p71
sS'x'
F1033
sg19
I00
sS'y'
F1307
stp72
stp73
sS'components'
p74
(tsS'anchors'
p75
(tsss."
LayerCount: 2
Fore
SplineSet
246 0 m 257
 389 0 l 257
 389 933 l 257
 864 933 l 257
 864 0 l 257
 1005 0 l 257
 1005 1026 l 257
 389 1026 l 257
 389 1166 l 258
 389 1318 406 1378 660 1378 c 257
 658 1491 l 257
 614 1491 l 258
 296 1491 246 1380 246 1139 c 258
 246 1026 l 257
 68 1026 l 257
 68 933 l 257
 246 933 l 257
 246 0 l 257
865 1316 m 257
 1005 1316 l 257
 1005 1456 l 257
 865 1456 l 257
 865 1316 l 257
EndSplineSet
EndChar

StartChar: five
Encoding: 53 53 267
Width: 1204
VWidth: 0
GlyphClass: 2
Flags: W
PickledData: "(dp1
S'org.robofab.postScriptHintData'
p2
(dp3
sS'com.typemytype.robofont.layerData'
p4
(dp5
s."
LayerCount: 2
Fore
SplineSet
580 -22 m 256
 432 -22 278 25 157 128 c 257
 220 238 l 257
 332 144 464 100 584 100 c 256
 781 100 928 225 928 459 c 256
 928 651 810 790 616 790 c 256
 506 790 398 743 348 664 c 257
 218 681 l 257
 230 1456 l 257
 987 1456 l 257
 987 1330 l 257
 365 1330 l 257
 343 805 l 257
 406 877 517 917 627 917 c 256
 900 917 1082 728 1082 456 c 256
 1082 148 853 -22 580 -22 c 256
EndSplineSet
EndChar

StartChar: uniFB02
Encoding: 64258 64258 269
Width: 1247
VWidth: 0
GlyphClass: 2
Flags: W
PickledData: "(dp1
S'org.robofab.postScriptHintData'
p2
(dp3
sS'com.typemytype.robofont.layerData'
p4
(dp5
S'b'
(dp6
S'name'
p7
S'fl'
p8
sS'lib'
p9
(dp10
sS'unicodes'
p11
(tsS'width'
p12
F1252.7
sS'contours'
p13
(tsS'components'
p14
((dp15
S'transformation'
p16
(I1
I0
I0
I1
I20
I0
tp17
sS'baseGlyph'
p18
S'f'
s(dp19
g16
(I1
I0
I0
I1
I714
I0
tp20
sg18
S'l'
stp21
sS'anchors'
p22
(tsss."
LayerCount: 2
Fore
SplineSet
272 0 m 257
 272 937 l 257
 68 937 l 257
 68 1026 l 257
 272 1026 l 257
 272 1130 l 258
 272 1376 366 1467 760 1467 c 258
 1060 1467 l 257
 1060 0 l 257
 917 0 l 257
 917 1356 l 257
 747 1356 l 258
 459 1356 414 1308 414 1147 c 258
 414 1026 l 257
 668 1026 l 257
 668 937 l 257
 414 937 l 257
 414 0 l 257
 272 0 l 257
EndSplineSet
EndChar

StartChar: florin
Encoding: 402 402 270
Width: 1043
VWidth: 0
GlyphClass: 2
Flags: W
PickledData: "(dp1
S'org.robofab.postScriptHintData'
p2
(dp3
sS'com.typemytype.robofont.layerData'
p4
(dp5
S'b'
(dp6
S'name'
p7
S'florin'
p8
sS'lib'
p9
(dp10
sS'unicodes'
p11
(tsS'width'
p12
F1073.0999999999999
sS'contours'
p13
(tsS'components'
p14
(tsS'anchors'
p15
(tsss."
LayerCount: 2
Fore
SplineSet
199 -288 m 256
 165 -288 135 -283 97 -273 c 257
 108 -164 l 257
 118 -167 153 -176 176 -176 c 256
 286 -176 342 -103 361 0 c 258
 527 924 l 257
 364 924 l 257
 377 1024 l 257
 544 1024 l 257
 564 1139 l 257
 592 1327 662 1480 884 1480 c 256
 944 1480 1023 1454 1023 1454 c 257
 1007 1348 l 257
 989 1353 945 1367 900 1367 c 256
 764 1367 729 1297 711 1197 c 257
 674 1024 l 257
 903 1024 l 257
 883 924 l 257
 661 924 l 257
 516 111 l 257
 477 -118 452 -288 199 -288 c 256
EndSplineSet
EndChar

StartChar: foundryicon
Encoding: 65539 -1 271
Width: 1347
VWidth: 0
GlyphClass: 2
Flags: W
PickledData: "(dp1
S'org.robofab.postScriptHintData'
p2
(dp3
s."
LayerCount: 2
Fore
SplineSet
485 405 m 257
 591 405 l 257
 591 552 l 257
 761 405 l 257
 867 405 l 257
 867 672 l 257
 761 672 l 257
 761 523 l 257
 591 672 l 257
 485 672 l 257
 485 405 l 257
280 2 m 257
 423 461 l 257
 34 755 l 257
 519 755 l 257
 669 1215 l 257
 828 755 l 257
 1313 755 l 257
 922 461 l 257
 1066 2 l 257
 669 278 l 257
 280 2 l 257
EndSplineSet
EndChar

StartChar: four
Encoding: 52 52 272
Width: 1204
VWidth: 0
GlyphClass: 2
Flags: W
PickledData: "(dp1
S'org.robofab.postScriptHintData'
p2
(dp3
sS'com.typemytype.robofont.layerData'
p4
(dp5
S'b'
(dp6
S'name'
p7
S'four'
p8
sS'lib'
p9
(dp10
sS'unicodes'
p11
(tsS'width'
p12
F1234.0999999999999
sS'contours'
p13
(tsS'components'
p14
(tsS'anchors'
p15
(tsss."
LayerCount: 2
Fore
SplineSet
263 506 m 257
 758 506 l 257
 758 1329 l 257
 596.306 1051.36 428.42 779.913 263 506 c 257
759 0 m 257
 759 388 l 257
 103 388 l 257
 103 494 l 257
 701 1456 l 257
 909 1456 l 257
 909 506 l 257
 1118 506 l 257
 1118 388 l 257
 906 388 l 257
 906 0 l 257
 759 0 l 257
EndSplineSet
EndChar

StartChar: uni2074
Encoding: 8308 8308 273
Width: 1032
VWidth: 0
GlyphClass: 2
Flags: W
PickledData: "(dp1
S'org.robofab.postScriptHintData'
p2
(dp3
sS'com.typemytype.robofont.layerData'
p4
(dp5
s."
LayerCount: 2
Fore
SplineSet
326 939 m 257
 599 939 l 257
 599 1329 l 257
 326 939 l 257
601 664 m 257
 601 850 l 257
 213 850 l 257
 213 931 l 257
 585 1456 l 257
 703 1456 l 257
 703 939 l 257
 798 939 l 257
 797 850 l 257
 700 850 l 257
 700 664 l 257
 601 664 l 257
EndSplineSet
EndChar

StartChar: fraction
Encoding: 8260 8260 274
Width: 1034
VWidth: 0
GlyphClass: 2
Flags: W
PickledData: "(dp1
S'org.robofab.postScriptHintData'
p2
(dp3
sS'com.typemytype.robofont.layerData'
p4
(dp5
S'b'
(dp6
S'name'
p7
S'fraction'
p8
sS'lib'
p9
(dp10
sS'unicodes'
p11
(tsS'width'
p12
F1077.8
sS'contours'
p13
(tsS'components'
p14
(tsS'anchors'
p15
(tsss."
LayerCount: 2
Fore
SplineSet
12 0 m 257
 922 1456 l 257
 1046 1456 l 257
 138 0 l 257
 12 0 l 257
EndSplineSet
EndChar

StartChar: g
Encoding: 103 103 275
Width: 1268
VWidth: 0
GlyphClass: 2
Flags: W
PickledData: "(dp1
S'org.robofab.postScriptHintData'
p2
(dp3
sS'com.typemytype.robofont.layerData'
p4
(dp5
S'b'
(dp6
S'name'
p7
S'g'
sS'lib'
p8
(dp9
sS'unicodes'
p10
(tsS'width'
p11
I1254
sS'contours'
p12
((dp13
S'points'
p14
((dp15
S'segmentType'
p16
S'curve'
p17
sS'x'
F580
sS'smooth'
p18
I01
sS'y'
F134
s(dp19
S'y'
F134
sS'x'
F799
sg18
I00
s(dp20
S'y'
F295
sS'x'
F920
sg18
I00
s(dp21
g16
S'curve'
p22
sS'x'
F920
sg18
I01
sS'y'
F550
s(dp23
S'y'
F775
sS'x'
F920
sg18
I00
s(dp24
S'y'
F918
sS'x'
F796
sg18
I00
s(dp25
g16
S'curve'
p26
sS'x'
F600
sg18
I01
sS'y'
F918
s(dp27
S'y'
F918
sS'x'
F399
sg18
I00
s(dp28
S'y'
F762
sS'x'
F268
sg18
I00
s(dp29
g16
S'curve'
p30
sS'x'
F268
sg18
I01
sS'y'
F515
s(dp31
S'y'
F282
sS'x'
F268
sg18
I00
s(dp32
S'y'
F134
sS'x'
F389
sg18
I00
stp33
s(dp34
g14
((dp35
g16
S'curve'
p36
sS'x'
F534
sg18
I01
sS'y'
F-420
s(dp37
S'y'
F-420
sS'x'
F408
sg18
I00
s(dp38
S'y'
F-381
sS'x'
F289
sg18
I00
s(dp39
g16
S'curve'
p40
sS'x'
F189
sg18
I00
sS'y'
F-331
s(dp41
g16
S'line'
p42
sS'x'
F216
sg18
I00
sS'y'
F-187
s(dp43
S'y'
F-238
sS'x'
F300
sg18
I00
s(dp44
S'y'
F-282
sS'x'
F416
sg18
I00
s(dp45
g16
S'curve'
p46
sS'x'
F528
sg18
I01
sS'y'
F-282
s(dp47
S'y'
F-282
sS'x'
F790
sg18
I00
s(dp48
S'y'
F-183
sS'x'
F920
sg18
I00
s(dp49
g16
S'curve'
p50
sS'x'
F920
sg18
I01
sS'y'
F49
s(dp51
g16
S'line'
p52
sS'x'
F920
sg18
I00
sS'y'
F273
s(dp53
g16
S'line'
p54
sS'x'
F948
sg18
I00
sS'y'
F253
s(dp55
S'y'
F139
sS'x'
F905
sg18
I00
s(dp56
S'y'
F0
sS'x'
F802
sg18
I00
s(dp57
g16
S'curve'
p58
sS'x'
F579
sg18
I01
sS'y'
F0
s(dp59
S'y'
F0
sS'x'
F298
sg18
I00
s(dp60
S'y'
F201
sS'x'
F98
sg18
I00
s(dp61
g16
S'curve'
p62
sS'x'
F98
sg18
I01
sS'y'
F511
s(dp63
S'y'
F843
sS'x'
F98
sg18
I00
s(dp64
S'y'
F1052
sS'x'
F284
sg18
I00
s(dp65
g16
S'curve'
p66
sS'x'
F579
sg18
I01
sS'y'
F1052
s(dp67
S'y'
F1052
sS'x'
F820
sg18
I00
s(dp68
S'y'
F900
sS'x'
F903
sg18
I00
s(dp69
g16
S'curve'
p70
sS'x'
F958
sg18
I00
sS'y'
F798
s(dp71
g16
S'line'
p72
sS'x'
F919
sg18
I00
sS'y'
F787
s(dp73
g16
S'line'
p74
sS'x'
F926
sg18
I00
sS'y'
F1026
s(dp75
g16
S'line'
p76
sS'x'
F1090
sg18
I00
sS'y'
F1026
s(dp77
S'y'
F1026
sS'x'
F1090
sg18
I00
s(dp78
S'y'
F857
sS'x'
F1084
sg18
I00
s(dp79
g16
S'curve'
p80
sS'x'
F1084
sg18
I01
sS'y'
F773
s(dp81
g16
S'line'
p82
sS'x'
F1084
sg18
I01
sS'y'
F143
s(dp83
S'y'
F-255
sS'x'
F1084
sg18
I00
s(dp84
S'y'
F-420
sS'x'
F903
sg18
I00
stp85
stp86
sS'components'
p87
(tsS'anchors'
p88
(tsss."
AnchorPoint: "top" 566 1026 basechar 0
LayerCount: 2
Fore
SplineSet
579 112 m 256
 809 112 939 277 939 523 c 256
 939 773 808 936 594 936 c 256
 377 936 244 768 244 516 c 256
 244 266 370 112 579 112 c 256
564 -431 m 256
 440 -431 318 -408 199 -354 c 257
 220 -231 l 257
 337 -289 451 -314 560 -314 c 256
 785 -314 937 -194 937 100 c 258
 937 214 l 257
 880 86 750 -1 574 -1 c 256
 291 -1 98 197 98 515 c 256
 98 834 278 1052 581 1052 c 256
 754 1052 879 961 937 845 c 257
 944 1026 l 257
 1086 1026 l 257
 1086 1026 1077 849 1077 793 c 258
 1077 127 l 258
 1077 -228 890 -431 564 -431 c 256
EndSplineSet
EndChar

StartChar: germandbls
Encoding: 223 223 282
Width: 1246
VWidth: 0
GlyphClass: 2
Flags: W
PickledData: "(dp1
S'org.robofab.postScriptHintData'
p2
(dp3
sS'com.typemytype.robofont.layerData'
p4
(dp5
S'b'
(dp6
S'name'
p7
S'germandbls'
p8
sS'lib'
p9
(dp10
sS'unicodes'
p11
(tsS'width'
p12
F1250.95
sS'contours'
p13
(tsS'components'
p14
(tsS'anchors'
p15
(tsss."
LayerCount: 2
Fore
SplineSet
662 837 m 257
 905.893 776.027 1164 630.076 1164 336 c 256
 1164 115 999 -26 772 -26 c 256
 647 -26 518 13 459 37 c 257
 478 151 l 257
 535.626 128.327 654.831 89.5907 749.62 89.5907 c 256
 907.745 89.5907 1016 175.08 1016 330 c 256
 1016 542 870 662 547 778 c 257
 547 890 l 257
 812 961 859 1053 859 1191 c 256
 859 1320 757 1402 599 1402 c 256
 417 1402 321 1271 321 1045 c 258
 321 0 l 257
 182 0 l 257
 183 1044 l 258
 183 1354 334 1518 600 1518 c 256
 844 1518 1000 1390 1000 1194 c 256
 1000 1011 912 920 715 855 c 256
 708 851 670 839 662 837 c 257
EndSplineSet
EndChar

StartChar: grave
Encoding: 96 96 283
Width: 589
VWidth: 0
GlyphClass: 4
Flags: W
PickledData: "(dp1
S'org.robofab.postScriptHintData'
p2
(dp3
sS'com.typemytype.robofont.layerData'
p4
(dp5
s."
AnchorPoint: "top" 469 1026 mark 0
LayerCount: 2
Fore
SplineSet
414 1174 m 257
 87 1494 l 257
 274 1494 l 257
 517 1174 l 257
 414 1174 l 257
EndSplineSet
EndChar

StartChar: greater
Encoding: 62 62 284
Width: 1149
VWidth: 0
GlyphClass: 2
Flags: W
PickledData: "(dp1
S'org.robofab.postScriptHintData'
p2
(dp3
sS'com.typemytype.robofont.layerData'
p4
(dp5
S'b'
(dp6
S'name'
p7
S'greater'
p8
sS'lib'
p9
(dp10
sS'unicodes'
p11
(tsS'width'
p12
F1268.05
sS'contours'
p13
(tsS'components'
p14
(tsS'anchors'
p15
(tsss."
LayerCount: 2
Fore
SplineSet
214 87 m 257
 214 223 l 257
 901 551 l 257
 219 908 l 257
 219 1044 l 257
 1074 587 l 257
 1074 506 l 257
 214 87 l 257
EndSplineSet
EndChar

StartChar: greaterequal
Encoding: 8805 8805 285
Width: 1350
VWidth: 0
GlyphClass: 2
Flags: W
PickledData: "(dp1
S'org.robofab.postScriptHintData'
p2
(dp3
sS'com.typemytype.robofont.layerData'
p4
(dp5
S'b'
(dp6
S'name'
p7
S'greaterequal'
p8
sS'lib'
p9
(dp10
sS'unicodes'
p11
(tsS'width'
p12
F1350.3499999999999
sS'contours'
p13
(tsS'components'
p14
(tsS'anchors'
p15
(tsss."
LayerCount: 2
Fore
SplineSet
249 0 m 257
 249 103 l 257
 1161 103 l 257
 1161 0 l 257
 249 0 l 257
262 183 m 257
 262 322 l 257
 954 644 l 257
 266 1006 l 257
 266 1141 l 257
 1122 680 l 257
 1122 596 l 257
 262 183 l 257
EndSplineSet
EndChar

StartChar: guillemotleft
Encoding: 171 171 286
Width: 1079
VWidth: 0
GlyphClass: 2
Flags: W
PickledData: "(dp1
S'org.robofab.postScriptHintData'
p2
(dp3
sS'com.typemytype.robofont.layerData'
p4
(dp5
S'b'
(dp6
S'name'
p7
S'guillemotright'
p8
sS'lib'
p9
(dp10
sS'unicodes'
p11
(tsS'width'
p12
F1122.45
sS'contours'
p13
(tsS'components'
p14
(tsS'anchors'
p15
(tsss."
LayerCount: 2
Fore
SplineSet
811 178 m 257
 544 544 l 257
 815 916 l 257
 954 916 l 257
 699 545 l 257
 946 178 l 257
 811 178 l 257
388 178 m 257
 121 544 l 257
 393 916 l 257
 531 916 l 257
 278 545 l 257
 523 178 l 257
 388 178 l 257
EndSplineSet
EndChar

StartChar: guillemotright
Encoding: 187 187 287
Width: 1079
VWidth: 0
GlyphClass: 2
Flags: W
PickledData: "(dp1
S'org.robofab.postScriptHintData'
p2
(dp3
sS'com.typemytype.robofont.layerData'
p4
(dp5
S'b'
(dp6
S'name'
p7
S'guillemotright'
p8
sS'lib'
p9
(dp10
sS'unicodes'
p11
(tsS'width'
p12
F1122.45
sS'contours'
p13
(tsS'components'
p14
(tsS'anchors'
p15
(tsss."
LayerCount: 2
Fore
SplineSet
546 174 m 257
 801 544 l 257
 554 912 l 257
 689 912 l 257
 956 545 l 257
 684 174 l 257
 546 174 l 257
124 174 m 257
 378 544 l 257
 132 912 l 257
 267 912 l 257
 534 545 l 257
 262 174 l 257
 124 174 l 257
EndSplineSet
EndChar

StartChar: guilsinglleft
Encoding: 8249 8249 288
Width: 660
VWidth: 0
GlyphClass: 2
Flags: W
PickledData: "(dp1
S'org.robofab.postScriptHintData'
p2
(dp3
sS'com.typemytype.robofont.layerData'
p4
(dp5
S'b'
(dp6
S'name'
p7
S'guilsinglleft'
p8
sS'lib'
p9
(dp10
sS'unicodes'
p11
(tsS'width'
p12
F688.39999999999998
sS'contours'
p13
(tsS'components'
p14
(tsS'anchors'
p15
(tsss."
LayerCount: 2
Fore
SplineSet
405 174 m 257
 138 541 l 257
 410 912 l 257
 548 912 l 257
 294 542 l 257
 540 174 l 257
 405 174 l 257
EndSplineSet
EndChar

StartChar: guilsinglright
Encoding: 8250 8250 289
Width: 660
VWidth: 0
GlyphClass: 2
Flags: W
PickledData: "(dp1
S'org.robofab.postScriptHintData'
p2
(dp3
sS'com.typemytype.robofont.layerData'
p4
(dp5
S'b'
(dp6
S'name'
p7
S'guilsinglleft'
p8
sS'lib'
p9
(dp10
sS'unicodes'
p11
(tsS'width'
p12
F688.39999999999998
sS'contours'
p13
(tsS'components'
p14
(tsS'anchors'
p15
(tsss."
LayerCount: 2
Fore
SplineSet
124 174 m 257
 378 545 l 257
 132 912 l 257
 267 912 l 257
 534 545 l 257
 262 174 l 257
 124 174 l 257
EndSplineSet
EndChar

StartChar: h
Encoding: 104 104 290
Width: 1246
VWidth: 0
GlyphClass: 2
Flags: W
PickledData: "(dp1
S'org.robofab.postScriptHintData'
p2
(dp3
sS'com.typemytype.robofont.layerData'
p4
(dp5
S'b'
(dp6
S'name'
p7
S'h'
sS'lib'
p8
(dp9
sS'unicodes'
p10
(tsS'width'
p11
F1237.95
sS'contours'
p12
((dp13
S'points'
p14
((dp15
S'segmentType'
p16
S'line'
p17
sS'x'
F178
sS'smooth'
p18
I00
sS'y'
F0
s(dp19
g16
S'line'
p20
sS'x'
F178
sg18
I01
sS'y'
F779
s(dp21
S'y'
F902
sS'x'
F178
sg18
I00
s(dp22
S'y'
F1026
sS'x'
F172
sg18
I00
s(dp23
g16
S'curve'
p24
sS'x'
F172
sg18
I00
sS'y'
F1026
s(dp25
g16
S'line'
p26
sS'x'
F339
sg18
I00
sS'y'
F1026
s(dp27
g16
S'line'
p28
sS'x'
F343
sg18
I00
sS'y'
F864
s(dp29
S'y'
F976
sS'x'
F423
sg18
I00
s(dp30
S'y'
F1051
sS'x'
F548
sg18
I00
s(dp31
g16
S'curve'
p32
sS'x'
F700
sg18
I01
sS'y'
F1051
s(dp33
S'y'
F1051
sS'x'
F999
sg18
I00
s(dp34
S'y'
F844
sS'x'
F1082
sg18
I00
s(dp35
g16
S'curve'
p36
sS'x'
F1082
sg18
I01
sS'y'
F550
s(dp37
g16
S'line'
p38
sS'x'
F1082
sg18
I00
sS'y'
F0
s(dp39
g16
S'line'
p40
sS'x'
F917
sg18
I00
sS'y'
F0
s(dp41
g16
S'line'
p42
sS'x'
F917
sg18
I01
sS'y'
F531
s(dp43
S'y'
F764
sS'x'
F917
sg18
I00
s(dp44
S'y'
F917
sS'x'
F886
sg18
I00
s(dp45
g16
S'curve'
p46
sS'x'
F670
sg18
I01
sS'y'
F917
s(dp47
S'y'
F917
sS'x'
F471
sg18
I00
s(dp48
S'y'
F742
sS'x'
F344
sg18
I00
s(dp49
g16
S'curve'
p50
sS'x'
F343
sg18
I00
sS'y'
F652
s(dp51
g16
S'line'
p52
sS'x'
F343
sg18
I00
sS'y'
F0
stp53
stp54
sS'components'
p55
(tsS'anchors'
p56
(tsss."
AnchorPoint: "top" 701 1026 basechar 0
LayerCount: 2
Fore
SplineSet
181 0 m 257
 181 1501 l 257
 322 1501 l 257
 322 846 l 257
 389 966 528 1052 700 1052 c 256
 909 1052 1072 921 1072 650 c 258
 1072 0 l 257
 931 0 l 257
 931 637 l 258
 931 837 864 936 687 936 c 256
 495 936 322 786 322 625 c 258
 322 0 l 257
 181 0 l 257
EndSplineSet
EndChar

StartChar: hungarumlaut
Encoding: 733 733 293
Width: 969
VWidth: 0
GlyphClass: 4
Flags: W
PickledData: "(dp1
S'org.robofab.postScriptHintData'
p2
(dp3
s."
AnchorPoint: "top" 323 1026 mark 0
LayerCount: 2
Fore
SplineSet
412 1167 m 257
 627 1494 l 257
 789 1494 l 257
 515 1167 l 257
 412 1167 l 257
118 1167 m 257
 322 1494 l 257
 471 1494 l 257
 221 1167 l 257
 118 1167 l 257
EndSplineSet
EndChar

StartChar: hyphen
Encoding: 45 45 294
Width: 638
VWidth: 0
GlyphClass: 2
Flags: W
PickledData: "(dp1
S'org.robofab.postScriptHintData'
p2
(dp3
sS'com.typemytype.robofont.layerData'
p4
(dp5
S'b'
(dp6
S'name'
p7
S'hyphen'
p8
sS'lib'
p9
(dp10
sS'unicodes'
p11
(tsS'width'
p12
F683.5
sS'contours'
p13
(tsS'components'
p14
(tsS'anchors'
p15
(tsss."
LayerCount: 2
Fore
SplineSet
64 507 m 257
 64 614 l 257
 572 614 l 257
 572 507 l 257
 64 507 l 257
EndSplineSet
EndChar

StartChar: i
Encoding: 105 105 295
Width: 506
VWidth: 0
GlyphClass: 2
Flags: W
PickledData: "(dp1
S'org.robofab.postScriptHintData'
p2
(dp3
sS'com.typemytype.robofont.layerData'
p4
(dp5
S'b'
(dp6
S'name'
p7
S'i'
sS'lib'
p8
(dp9
sS'unicodes'
p10
(tsS'width'
p11
F521.10000000000002
sS'contours'
p12
(tsS'components'
p13
(tsS'anchors'
p14
(tsss."
LayerCount: 2
Fore
SplineSet
182 1316 m 257
 182 1456 l 257
 322 1456 l 257
 322 1316 l 257
 182 1316 l 257
181 0 m 257
 181 1026 l 257
 322 1026 l 257
 322 0 l 257
 181 0 l 257
EndSplineSet
EndChar

StartChar: Delta
Encoding: 8710 8710 307
Width: 1314
VWidth: 0
GlyphClass: 2
Flags: W
PickledData: "(dp1
S'org.robofab.postScriptHintData'
p2
(dp3
sS'com.typemytype.robofont.layerData'
p4
(dp5
S'b'
(dp6
S'name'
p7
S'uni2206'
p8
sS'lib'
p9
(dp10
sS'unicodes'
p11
(tsS'width'
p12
F1312.25
sS'contours'
p13
(tsS'components'
p14
(tsS'anchors'
p15
(tsss."
LayerCount: 2
Fore
SplineSet
196 109 m 257
 1101 109 l 257
 652 1266 l 257
 196 109 l 257
49 0 m 257
 49 66 l 257
 609 1453 l 257
 701 1453 l 257
 1253 66 l 257
 1253 0 l 257
 49 0 l 257
EndSplineSet
EndChar

StartChar: infinity
Encoding: 8734 8734 308
Width: 1720
VWidth: 0
GlyphClass: 2
Flags: W
PickledData: "(dp1
S'org.robofab.postScriptHintData'
p2
(dp3
s."
LayerCount: 2
Fore
SplineSet
1259 348 m 256
 1409 348 1483 465 1483 616 c 256
 1483 733 1386 831 1254 831 c 256
 1120 831 1005 713 922 590 c 257
 1042 432 1134 348 1259 348 c 256
457 348 m 256
 588 348 695 455 789 586 c 257
 695 724 588 831 447 831 c 256
 303 831 216 719 216 590 c 256
 216 466 313 348 457 348 c 256
458 237 m 256
 243 237 96 409 96 609 c 256
 96 792 265 937 453 937 c 256
 616 937 743 836 858 686 c 257
 969 832 1090 937 1257 937 c 256
 1475 937 1614 793 1614 592 c 256
 1614 382 1447 237 1255 237 c 256
 1108 237 988 322 856 489 c 257
 743 343 618 237 458 237 c 256
EndSplineSet
EndChar

StartChar: integral
Encoding: 8747 8747 309
Width: 702
VWidth: 0
GlyphClass: 2
Flags: W
PickledData: "(dp1
S'org.robofab.postScriptHintData'
p2
(dp3
sS'com.typemytype.robofont.layerData'
p4
(dp5
S'b'
(dp6
S'name'
p7
S'integral'
p8
sS'lib'
p9
(dp10
sS'unicodes'
p11
(tsS'width'
p12
F754
sS'contours'
p13
(tsS'components'
p14
(tsS'anchors'
p15
(tsss."
LayerCount: 2
Fore
SplineSet
144 -294 m 256
 65 -294 17 -274 17 -274 c 257
 17 -158 l 257
 17 -158 74 -173 124 -173 c 256
 273 -173 301 -93 301 56 c 258
 301 1210 l 258
 301 1425 352 1584 578 1584 c 256
 662 1584 694 1564 694 1564 c 257
 694 1450 l 257
 694 1450 659 1463 603 1463 c 256
 455 1463 435 1383 435 1234 c 258
 435 81 l 258
 435 -134 370 -294 144 -294 c 256
EndSplineSet
EndChar

StartChar: j
Encoding: 106 106 312
Width: 503
VWidth: 0
GlyphClass: 2
Flags: W
PickledData: "(dp1
S'org.robofab.postScriptHintData'
p2
(dp3
sS'com.typemytype.robofont.layerData'
p4
(dp5
S'b'
(dp6
S'name'
p7
S'j'
sS'lib'
p8
(dp9
sS'unicodes'
p10
(tsS'width'
p11
F536.89999999999998
sS'contours'
p12
((dp13
S'points'
p14
((dp15
S'segmentType'
p16
S'curve'
p17
sS'x'
F65
sS'smooth'
p18
I01
sS'y'
F-410
s(dp19
S'y'
F-410
sS'x'
F-24
sg18
I00
s(dp20
S'y'
F-390
sS'x'
F-117
sg18
I00
s(dp21
g16
S'curve'
p22
sS'x'
F-117
sg18
I00
sS'y'
F-390
s(dp23
g16
S'line'
p24
sS'x'
F-102
sg18
I00
sS'y'
F-267
s(dp25
S'y'
F-267
sS'x'
F-102
sg18
I00
s(dp26
S'y'
F-280
sS'x'
F-44
sg18
I00
s(dp27
g16
S'curve'
p28
sS'x'
F19
sg18
I01
sS'y'
F-280
s(dp29
S'y'
F-280
sS'x'
F153
sg18
I00
s(dp30
S'y'
F-208
sS'x'
F177
sg18
I00
s(dp31
g16
S'curve'
p32
sS'x'
F177
sg18
I01
sS'y'
F-2
s(dp33
g16
S'line'
p34
sS'x'
F177
sg18
I00
sS'y'
F1026
s(dp35
g16
S'line'
p36
sS'x'
F341
sg18
I00
sS'y'
F1026
s(dp37
g16
S'line'
p38
sS'x'
F341
sg18
I01
sS'y'
F-6
s(dp39
S'y'
F-274
sS'x'
F341
sg18
I00
s(dp40
S'y'
F-410
sS'x'
F246
sg18
I00
stp41
s(dp42
g14
((dp43
g16
S'line'
p44
sS'x'
F177
sg18
I00
sS'y'
F1307
s(dp45
g16
S'line'
p46
sS'x'
F177
sg18
I00
sS'y'
F1462
s(dp47
g16
S'line'
p48
sS'x'
F341
sg18
I00
sS'y'
F1462
s(dp49
g16
S'line'
p50
sS'x'
F341
sg18
I00
sS'y'
F1307
stp51
stp52
sS'components'
p53
(tsS'anchors'
p54
(tsss."
LayerCount: 2
Fore
SplineSet
188 1312 m 257
 188 1456 l 257
 328 1456 l 257
 328 1312 l 257
 188 1312 l 257
EndSplineSet
Refer: 235 567 N 1 0 0 1 0 0 2
EndChar

StartChar: k
Encoding: 107 107 315
Width: 1078
VWidth: 0
GlyphClass: 2
Flags: W
PickledData: "(dp1
S'org.robofab.postScriptHintData'
p2
(dp3
sS'com.typemytype.robofont.layerData'
p4
(dp5
S'b'
(dp6
S'name'
p7
S'k'
sS'lib'
p8
(dp9
sS'unicodes'
p10
(tsS'width'
p11
F1078.6500000000001
sS'contours'
p12
(tsS'components'
p13
(tsS'anchors'
p14
(tsss."
AnchorPoint: "top" 678 1026 basechar 0
LayerCount: 2
Fore
SplineSet
185 0 m 257
 185 1501 l 257
 326 1501 l 257
 326 568 l 257
 822 1026 l 257
 1013 1026 l 257
 474 540 l 257
 1052 0 l 257
 866 0 l 257
 326 510 l 257
 326 0 l 257
 185 0 l 257
EndSplineSet
EndChar

StartChar: kgreenlandic
Encoding: 312 312 318
Width: 1082
VWidth: 0
GlyphClass: 2
Flags: W
PickledData: "(dp1
S'org.robofab.postScriptHintData'
p2
(dp3
sS'com.typemytype.robofont.layerData'
p4
(dp5
s."
LayerCount: 2
Fore
SplineSet
187 0 m 257
 187 1026 l 257
 330 1026 l 257
 330 548 l 257
 825 1026 l 257
 1017 1026 l 257
 474 516 l 257
 1056 0 l 257
 869 0 l 257
 330 484 l 257
 330 0 l 257
 187 0 l 257
EndSplineSet
EndChar

StartChar: l
Encoding: 108 108 319
Width: 517
VWidth: 0
GlyphClass: 2
Flags: W
PickledData: "(dp1
S'org.robofab.postScriptHintData'
p2
(dp3
sS'com.typemytype.robofont.layerData'
p4
(dp5
S'b'
(dp6
S'name'
p7
S'l'
sS'lib'
p8
(dp9
sS'unicodes'
p10
(tsS'width'
p11
F521.79999999999995
sS'contours'
p12
(tsS'components'
p13
(tsS'anchors'
p14
(tsss."
AnchorPoint: "top" 259 1456 basechar 0
AnchorPoint: "caron.alt" 216 1026 basechar 0
LayerCount: 2
Fore
SplineSet
191 0 m 257
 191 1501 l 257
 332 1501 l 257
 332 0 l 257
 191 0 l 257
EndSplineSet
EndChar

StartChar: less
Encoding: 60 60 324
Width: 1150
VWidth: 0
GlyphClass: 2
Flags: W
PickledData: "(dp1
S'org.robofab.postScriptHintData'
p2
(dp3
sS'com.typemytype.robofont.layerData'
p4
(dp5
S'b'
(dp6
S'name'
p7
S'less'
p8
sS'lib'
p9
(dp10
sS'unicodes'
p11
(tsS'width'
p12
F1267.3499999999999
sS'contours'
p13
(tsS'components'
p14
(tsS'anchors'
p15
(tsss."
LayerCount: 2
Fore
SplineSet
931 88 m 257
 76 549 l 257
 76 633 l 257
 936 1045 l 257
 936 908 l 257
 244 585 l 257
 931 223 l 257
 931 88 l 257
EndSplineSet
EndChar

StartChar: lessequal
Encoding: 8804 8804 325
Width: 1350
VWidth: 0
GlyphClass: 2
Flags: W
PickledData: "(dp1
S'org.robofab.postScriptHintData'
p2
(dp3
sS'com.typemytype.robofont.layerData'
p4
(dp5
S'b'
(dp6
S'name'
p7
S'lessequal'
p8
sS'lib'
p9
(dp10
sS'unicodes'
p11
(tsS'width'
p12
F1350.3499999999999
sS'contours'
p13
(tsS'components'
p14
(tsS'anchors'
p15
(tsss."
LayerCount: 2
Fore
SplineSet
213 0 m 257
 213 103 l 257
 1124 103 l 257
 1124 0 l 257
 213 0 l 257
1101 184 m 257
 246 645 l 257
 246 729 l 257
 1107 1141 l 257
 1107 1004 l 257
 414 681 l 257
 1101 319 l 257
 1101 184 l 257
EndSplineSet
EndChar

StartChar: logicalnot
Encoding: 172 172 327
Width: 1468
VWidth: 0
GlyphClass: 2
Flags: W
PickledData: "(dp1
S'org.robofab.postScriptHintData'
p2
(dp3
sS'com.typemytype.robofont.layerData'
p4
(dp5
S'b'
(dp6
S'name'
p7
S'logicalnot'
p8
sS'lib'
p9
(dp10
sS'unicodes'
p11
(tsS'width'
p12
F1463.2
sS'contours'
p13
(tsS'components'
p14
(tsS'anchors'
p15
(tsss."
LayerCount: 2
Fore
SplineSet
1134 242 m 257
 1134 670 l 257
 220 670 l 257
 220 794 l 257
 1263 794 l 257
 1263 242 l 257
 1134 242 l 257
EndSplineSet
EndChar

StartChar: lozenge
Encoding: 9674 9674 329
Width: 1248
VWidth: 0
GlyphClass: 2
Flags: W
PickledData: "(dp1
S'org.robofab.postScriptHintData'
p2
(dp3
sS'com.typemytype.robofont.layerData'
p4
(dp5
s."
LayerCount: 2
Fore
SplineSet
621 70 m 257
 1005 715 l 257
 632 1363 l 257
 247 717 l 257
 621 70 l 257
575 -45 m 257
 123 715 l 257
 584 1478 l 257
 676 1478 l 257
 1132 716 l 257
 667 -45 l 257
 575 -45 l 257
EndSplineSet
EndChar

StartChar: lslash
Encoding: 322 322 330
Width: 503
VWidth: 0
GlyphClass: 2
Flags: W
PickledData: "(dp1
S'org.robofab.postScriptHintData'
p2
(dp3
s."
LayerCount: 2
Fore
SplineSet
181 0 m 257
 181 681 l 257
 -2 581 l 257
 -2 699 l 257
 181 799 l 257
 181 1500 l 257
 324 1500 l 257
 324 879 l 257
 513 981 l 257
 513 864 l 257
 324 762 l 257
 324 0 l 257
 181 0 l 257
EndSplineSet
EndChar

StartChar: m
Encoding: 109 109 331
Width: 1913
VWidth: 0
GlyphClass: 2
Flags: W
PickledData: "(dp1
S'org.robofab.postScriptHintData'
p2
(dp3
sS'com.typemytype.robofont.guides'
p4
(tsS'com.typemytype.robofont.layerData'
p5
(dp6
S'b'
(dp7
S'name'
p8
S'm'
sS'lib'
p9
(dp10
sS'unicodes'
p11
(tsS'width'
p12
F1873.95
sS'contours'
p13
(tsS'components'
p14
(tsS'anchors'
p15
(tsss."
AnchorPoint: "top" 998 1026 basechar 0
LayerCount: 2
Fore
SplineSet
190 0 m 257
 190 819 l 258
 190 894 184 996 182 1026 c 257
 322 1026 l 257
 328 840 l 257
 391 977 524 1052 684 1052 c 256
 845 1052 960 968 1005 809 c 257
 1078 968 1222 1052 1387 1052 c 256
 1620 1052 1739 897 1739 625 c 258
 1739 0 l 257
 1598 0 l 257
 1598 618 l 258
 1598 818 1528 936 1379 936 c 256
 1191 936 1061 808 1037 607 c 257
 1037 0 l 257
 895 0 l 257
 895 626 l 258
 895 815 826 936 670 936 c 256
 489 936 363 822 332 652 c 257
 332 0 l 257
 190 0 l 257
EndSplineSet
EndChar

StartChar: macron
Encoding: 175 175 332
Width: 697
VWidth: 0
GlyphClass: 4
Flags: W
PickledData: "(dp1
S'org.robofab.postScriptHintData'
p2
(dp3
sS'com.typemytype.robofont.layerData'
p4
(dp5
S'b'
(dp6
S'name'
p7
S'macron'
p8
sS'lib'
p9
(dp10
sS'unicodes'
p11
(tsS'width'
p12
F723
sS'contours'
p13
(tsS'components'
p14
(tsS'anchors'
p15
(tsss."
AnchorPoint: "top" 343 1026 mark 0
LayerCount: 2
Fore
SplineSet
70 1239 m 257
 70 1338 l 257
 627 1338 l 257
 627 1239 l 257
 70 1239 l 257
EndSplineSet
EndChar

StartChar: minus
Encoding: 8722 8722 335
Width: 1147
VWidth: 0
GlyphClass: 2
Flags: W
PickledData: "(dp1
S'org.robofab.postScriptHintData'
p2
(dp3
s."
LayerCount: 2
Fore
SplineSet
156 544 m 257
 156 666 l 257
 992 666 l 257
 992 544 l 257
 156 544 l 257
EndSplineSet
EndChar

StartChar: mu
Encoding: 181 181 336
Width: 1260
VWidth: 0
GlyphClass: 2
Flags: W
LayerCount: 2
Fore
SplineSet
320 -304 m 257
 179 -302 l 257
 179 1026 l 257
 320 1026 l 257
 320 400 l 258
 320 196 411 92 585 92 c 256
 805 92 922 253 922 379 c 258
 922 1026 l 257
 1064 1026 l 257
 1064 239 l 258
 1064 144 1068 46 1071 0 c 257
 932 0 l 257
 925 178 l 257
 859 65 744 -24 570 -24 c 256
 463 -24 379 3 320 57 c 257
 320 -304 l 257
EndSplineSet
EndChar

StartChar: multiply
Encoding: 215 215 337
Width: 1204
VWidth: 0
GlyphClass: 2
Flags: W
PickledData: "(dp1
S'org.robofab.postScriptHintData'
p2
(dp3
sS'com.typemytype.robofont.layerData'
p4
(dp5
s."
LayerCount: 2
Fore
SplineSet
303 162 m 257
 215 252 l 257
 518 556 l 257
 215 859 l 257
 303 949 l 257
 607 645 l 257
 909 949 l 257
 999 857 l 257
 695 556 l 257
 999 254 l 257
 909 162 l 257
 607 464 l 257
 303 162 l 257
EndSplineSet
EndChar

StartChar: n
Encoding: 110 110 338
Width: 1251
VWidth: 0
GlyphClass: 2
Flags: W
PickledData: "(dp1
S'org.robofab.postScriptHintData'
p2
(dp3
sS'com.typemytype.robofont.layerData'
p4
(dp5
S'b'
(dp6
S'name'
p7
S'n'
sS'lib'
p8
(dp9
sS'unicodes'
p10
(tsS'width'
p11
F1240.05
sS'contours'
p12
(tsS'components'
p13
(tsS'anchors'
p14
(tsss."
AnchorPoint: "top" 674 1026 basechar 0
LayerCount: 2
Fore
SplineSet
190 0 m 257
 190 811 l 258
 190 907 181 1026 181 1026 c 257
 321 1026 l 257
 327 842 l 257
 397 979 544 1052 703 1052 c 256
 957 1052 1077 899 1077 600 c 258
 1077 0 l 257
 935 0 l 257
 935 600 l 258
 935 820 867 936 687 936 c 256
 511 936 362 823 331 660 c 257
 331 0 l 257
 190 0 l 257
EndSplineSet
EndChar

StartChar: nine
Encoding: 57 57 343
Width: 1207
VWidth: 0
GlyphClass: 2
Flags: W
PickledData: "(dp1
S'org.robofab.postScriptHintData'
p2
(dp3
sS'com.typemytype.robofont.layerData'
p4
(dp5
S'b'
(dp6
S'name'
p7
S'nine'
p8
sS'lib'
p9
(dp10
sS'unicodes'
p11
(tsS'width'
p12
F1235.4000000000001
sS'contours'
p13
((dp14
S'points'
p15
((dp16
S'segmentType'
p17
S'curve'
p18
sS'x'
F314
sS'smooth'
p19
I01
sS'y'
F1010
s(dp20
S'y'
F827
sS'x'
F314
sg19
I00
s(dp21
S'y'
F687
sS'x'
F393
sg19
I00
s(dp22
g17
S'curve'
p23
sS'x'
F604
sg19
I01
sS'y'
F687
s(dp24
S'y'
F687
sS'x'
F784
sg19
I00
s(dp25
S'y'
F803
sS'x'
F908
sg19
I00
s(dp26
g17
S'curve'
p27
sS'x'
F908
sg19
I01
sS'y'
F991
s(dp28
S'y'
F1166
sS'x'
F908
sg19
I00
s(dp29
S'y'
F1334
sS'x'
F815
sg19
I00
s(dp30
g17
S'curve'
p31
sS'x'
F605
sg19
I01
sS'y'
F1334
s(dp32
S'y'
F1334
sS'x'
F419
sg19
I00
s(dp33
S'y'
F1196
sS'x'
F314
sg19
I00
stp34
s(dp35
g15
((dp36
g17
S'curve'
p37
sS'x'
F555
sg19
I01
sS'y'
F-24
s(dp38
S'y'
F-24
sS'x'
F434
sg19
I00
s(dp39
S'y'
F13
sS'x'
F304
sg19
I00
s(dp40
g17
S'curve'
p41
sS'x'
F175
sg19
I00
sS'y'
F79
s(dp42
g17
S'line'
p43
sS'x'
F232
sg19
I00
sS'y'
F211
s(dp44
S'y'
F152
sS'x'
F346
sg19
I00
s(dp45
S'y'
F124
sS'x'
F450
sg19
I00
s(dp46
g17
S'curve'
p47
sS'x'
F542
sg19
I01
sS'y'
F124
s(dp48
S'y'
F124
sS'x'
F773
sg19
I00
s(dp49
S'y'
F308
sS'x'
F920
sg19
I00
s(dp50
g17
S'curve'
p51
sS'x'
F920
sg19
I01
sS'y'
F657
s(dp52
g17
S'line'
p53
sS'x'
F920
sg19
I00
sS'y'
F722
s(dp54
S'y'
F600
sS'x'
F856
sg19
I00
s(dp55
S'y'
F544
sS'x'
F742
sg19
I00
s(dp56
g17
S'curve'
p57
sS'x'
F577
sg19
I01
sS'y'
F544
s(dp58
S'y'
F544
sS'x'
F298
sg19
I00
s(dp59
S'y'
F735
sS'x'
F138
sg19
I00
s(dp60
g17
S'curve'
p61
sS'x'
F138
sg19
I01
sS'y'
F1004
s(dp62
S'y'
F1275
sS'x'
F138
sg19
I00
s(dp63
S'y'
F1483
sS'x'
F311
sg19
I00
s(dp64
g17
S'curve'
p65
sS'x'
F613
sg19
I01
sS'y'
F1483
s(dp66
S'y'
F1483
sS'x'
F939
sg19
I00
s(dp67
S'y'
F1231
sS'x'
F1095
sg19
I00
s(dp68
g17
S'curve'
p69
sS'x'
F1095
sg19
I01
sS'y'
F774
s(dp70
S'y'
F203
sS'x'
F1095
sg19
I00
s(dp71
S'y'
F-24
sS'x'
F855
sg19
I00
stp72
stp73
sS'components'
p74
(tsS'anchors'
p75
(tsss."
LayerCount: 2
Fore
SplineSet
578 663 m 256
 796 663 923 812 923 946 c 256
 923 1151 837 1359 594 1359 c 256
 392 1359 280 1207 280 1006 c 256
 280 816 367 663 578 663 c 256
545 -23 m 256
 416 -23 304 21 216 74 c 257
 270 188 l 257
 339 140 434 101 539 101 c 256
 840 101 931 413 934 667 c 256
 935 683 935 715 935 726 c 257
 886 634 753 541 568 541 c 256
 311 541 128 724 128 1004 c 256
 128 1275 305 1483 593 1483 c 256
 932 1483 1085 1209 1085 772 c 256
 1085 303 902 -23 545 -23 c 256
EndSplineSet
EndChar

StartChar: notequal
Encoding: 8800 8800 345
Width: 1343
VWidth: 0
GlyphClass: 2
Flags: W
PickledData: "(dp1
S'org.robofab.postScriptHintData'
p2
(dp3
sS'com.typemytype.robofont.layerData'
p4
(dp5
S'b'
(dp6
S'name'
p7
S'notequal'
p8
sS'lib'
p9
(dp10
sS'unicodes'
p11
(tsS'width'
p12
F1362.5
sS'contours'
p13
(tsS'components'
p14
(tsS'anchors'
p15
(tsss."
LayerCount: 2
Fore
SplineSet
454 48 m 257
 351 63 l 257
 483 330 l 257
 171 330 l 257
 171 435 l 257
 535 435 l 257
 695 741 l 257
 171 741 l 257
 171 846 l 257
 743 846 l 257
 882 1124 l 257
 987 1108 l 257
 857 846 l 257
 1180 846 l 257
 1180 741 l 257
 807 741 l 257
 647 435 l 257
 1180 435 l 257
 1180 330 l 257
 596 330 l 257
 454 48 l 257
EndSplineSet
EndChar

StartChar: numbersign
Encoding: 35 35 347
Width: 1349
VWidth: 0
GlyphClass: 2
Flags: W
PickledData: "(dp1
S'org.robofab.postScriptHintData'
p2
(dp3
sS'com.typemytype.robofont.layerData'
p4
(dp5
s."
LayerCount: 2
Fore
SplineSet
490 605 m 257
 799 605 l 257
 859 914 l 257
 551 914 l 257
 490 605 l 257
277 75 m 257
 360 514 l 257
 105 514 l 257
 112 605 l 257
 378 605 l 257
 436 914 l 257
 177 914 l 257
 186 1006 l 257
 453 1006 l 257
 530 1410 l 257
 645 1410 l 257
 569 1006 l 257
 876 1006 l 257
 953 1410 l 257
 1064 1410 l 257
 986 1006 l 257
 1235 1006 l 257
 1223 914 l 257
 970 914 l 257
 911 605 l 257
 1165 605 l 257
 1154 514 l 257
 895 514 l 257
 810 75 l 257
 700 75 l 257
 782 514 l 257
 474 514 l 257
 387 75 l 257
 277 75 l 257
EndSplineSet
EndChar

StartChar: o
Encoding: 111 111 348
Width: 1244
VWidth: 0
GlyphClass: 2
Flags: W
PickledData: "(dp1
S'org.robofab.postScriptHintData'
p2
(dp3
sS'com.typemytype.robofont.layerData'
p4
(dp5
S'b'
(dp6
S'name'
p7
S'o'
sS'lib'
p8
(dp9
sS'unicodes'
p10
(tsS'width'
p11
F1259.2
sS'contours'
p12
(tsS'components'
p13
(tsS'anchors'
p14
(tsss."
AnchorPoint: "top" 625 1026 basechar 0
LayerCount: 2
Fore
SplineSet
623 -21 m 256
 295 -21 98 195 98 511 c 256
 98 834 297 1052 624 1052 c 256
 951 1052 1146 834 1146 511 c 256
 1146 195 949 -21 623 -21 c 256
623 95 m 256
 867 95 999 263 999 511 c 256
 999 766 865 936 623 936 c 256
 379 936 245 766 245 511 c 256
 245 263 378 95 623 95 c 256
EndSplineSet
EndChar

StartChar: oe
Encoding: 339 339 355
Width: 1962
VWidth: 0
GlyphClass: 2
Flags: W
PickledData: "(dp1
S'org.robofab.postScriptHintData'
p2
(dp3
sS'com.typemytype.robofont.layerData'
p4
(dp5
S'b'
(dp6
S'name'
p7
S'oe'
p8
sS'lib'
p9
(dp10
sS'unicodes'
p11
(tsS'width'
p12
F1979.8
sS'contours'
p13
(tsS'components'
p14
((dp15
S'transformation'
p16
(I1
I0
I0
I1
I-6
I0
tp17
sS'baseGlyph'
p18
S'o'
s(dp19
g16
(I1
I0
I0
I1
I811
I0
tp20
sg18
S'e'
stp21
sS'anchors'
p22
(tsss."
LayerCount: 2
Fore
SplineSet
1092 596 m 257
 1740 596 l 257
 1740 610 1739 631 1739 640 c 256
 1720 816 1602 936 1426 936 c 256
 1233 936 1097 794 1092 596 c 257
611 95 m 256
 830 95 954 269 954 511 c 256
 954 763 831 936 611 936 c 256
 381 936 242 760 242 505 c 256
 242 264 376 95 611 95 c 256
1091 489 m 257
 1091 250.27 1223.67 95 1456 95 c 256
 1598 95 1724 164 1782 206 c 257
 1828 104 l 257
 1766 57 1624 -21 1441 -21 c 256
 1258 -21 1087 77 1019 231 c 257
 956 77 796 -21 609 -21 c 256
 287 -21 90 194 90 508 c 256
 90 828 286 1052 612 1052 c 256
 807 1052 952 952 1020 794 c 257
 1078 956 1228 1053 1426 1053 c 256
 1701 1053 1867 849 1867 541 c 258
 1867 489 l 257
 1091 489 l 257
EndSplineSet
EndChar

StartChar: ogonek
Encoding: 731 731 356
Width: 508
VWidth: 0
GlyphClass: 2
Flags: W
PickledData: "(dp1
S'org.robofab.postScriptHintData'
p2
(dp3
s."
LayerCount: 2
Fore
SplineSet
305 -436 m 256
 177 -436 72 -359 72 -243 c 256
 72 -146 155 -53 262 10 c 257
 356 7 l 257
 254 -64 202 -162 202 -224 c 256
 202 -287 245 -331 326 -331 c 256
 359 -331 399 -323 431 -313 c 257
 431 -417 l 257
 388 -430 346 -436 305 -436 c 256
EndSplineSet
EndChar

StartChar: one
Encoding: 49 49 361
Width: 1204
VWidth: 0
GlyphClass: 2
Flags: W
PickledData: "(dp1
S'org.robofab.postScriptHintData'
p2
(dp3
sS'com.typemytype.robofont.layerData'
p4
(dp5
S'b'
(dp6
S'name'
p7
S'one'
p8
sS'lib'
p9
(dp10
sS'unicodes'
p11
(tsS'width'
p12
F1234.0999999999999
sS'contours'
p13
(tsS'components'
p14
(tsS'anchors'
p15
(tsss."
LayerCount: 2
Fore
SplineSet
275 0 m 257
 275 119 l 257
 562 119 l 257
 562 1285 l 257
 468 1230 360 1190 261 1149 c 257
 261 1284 l 257
 362 1320 523 1400 612 1456 c 257
 712 1456 l 257
 712 119 l 257
 979 119 l 257
 979 0 l 257
 275 0 l 257
EndSplineSet
EndChar

StartChar: onehalf
Encoding: 189 189 362
Width: 1845
VWidth: 0
GlyphClass: 2
Flags: W
PickledData: "(dp1
S'org.robofab.postScriptHintData'
p2
(dp3
sS'com.typemytype.robofont.layerData'
p4
(dp5
s."
LayerCount: 2
Fore
SplineSet
167 640 m 257
 167 727 l 257
 327 727 l 257
 327 1344 l 257
 163 1274 l 257
 164 1370 l 257
 176 1374 334 1451 342 1456 c 257
 435 1456 l 257
 435 726 l 257
 580 726 l 257
 580 640 l 257
 167 640 l 257
364 0 m 257
 1280 1456 l 257
 1393 1456 l 257
 486 0 l 257
 364 0 l 257
1378 833 m 256
 1541.58 833 1635.12 738.606 1635.12 602.298 c 256
 1635.12 485.495 1581.41 420.619 1450 297 c 257
 1244 97 l 257
 1636 97 l 257
 1636 0 l 257
 1100 0 l 257
 1100 98 l 257
 1383 376 l 258
 1492.66 483.752 1523.21 532.402 1523.21 599.983 c 256
 1523.21 674.622 1483.66 737 1374 737 c 256
 1291 737 1212 696 1185 594 c 257
 1111 643 l 257
 1143 763 1244 833 1378 833 c 256
EndSplineSet
EndChar

StartChar: onequarter
Encoding: 188 188 363
Width: 1812
VWidth: 0
GlyphClass: 2
Flags: W
PickledData: "(dp1
S'org.robofab.postScriptHintData'
p2
(dp3
sS'com.typemytype.robofont.layerData'
p4
(dp5
s."
LayerCount: 2
Fore
SplineSet
1125 278 m 257
 1401 278 l 257
 1401 670 l 257
 1125 278 l 257
407 0 m 257
 1323 1456 l 257
 1436 1456 l 257
 529 0 l 257
 407 0 l 257
1403 0 m 257
 1403 187 l 257
 1017 187 l 257
 1017 269 l 257
 1388 793 l 257
 1510 793 l 257
 1510 278 l 257
 1607 278 l 257
 1606 187 l 257
 1508 187 l 257
 1508 0 l 257
 1403 0 l 257
171 640 m 257
 171 727 l 257
 331 727 l 257
 331 1344 l 257
 166 1274 l 257
 167 1370 l 257
 179 1374 338 1451 346 1456 c 257
 439 1456 l 257
 439 726 l 257
 584 726 l 257
 584 640 l 257
 171 640 l 257
EndSplineSet
EndChar

StartChar: uni00B9
Encoding: 185 185 364
Width: 976
VWidth: 0
GlyphClass: 2
Flags: W
PickledData: "(dp1
S'org.robofab.postScriptHintData'
p2
(dp3
sS'com.typemytype.robofont.layerData'
p4
(dp5
s."
LayerCount: 2
Fore
SplineSet
283 633 m 257
 283 723 l 257
 435 723 l 257
 435 1332 l 257
 424 1326 289 1266 276 1260 c 257
 277 1361 l 257
 295 1367 436 1437 448 1444 c 257
 537 1448 l 257
 537 722 l 257
 677 722 l 257
 677 633 l 257
 283 633 l 257
EndSplineSet
EndChar

StartChar: ordfeminine
Encoding: 170 170 366
Width: 741
VWidth: 0
GlyphClass: 2
Flags: W
PickledData: "(dp1
S'org.robofab.postScriptHintData'
p2
(dp3
sS'com.typemytype.robofont.layerData'
p4
(dp5
S'b'
(dp6
S'name'
p7
S'ordfeminine'
p8
sS'lib'
p9
(dp10
sS'unicodes'
p11
(tsS'width'
p12
F797.10000000000002
sS'contours'
p13
(tsS'components'
p14
(tsS'anchors'
p15
(tsss."
LayerCount: 2
Fore
SplineSet
339 874 m 256
 487 874 544 978 544 1086 c 258
 544 1113 l 257
 527.333 1113 511.237 1113.03 495.719 1113.03 c 256
 301.738 1113.03 198 1108.74 198 993 c 256
 198 913 249 874 339 874 c 256
323 781 m 256
 176 781 80 864 80 986 c 256
 80 1110 176 1189 371 1189 c 258
 543 1189 l 257
 543 1215 l 258
 543 1335 512 1386 392 1386 c 256
 264 1386 152 1332 152 1332 c 257
 121 1413 l 257
 121 1413 240 1480 394 1480 c 256
 536 1480 653 1415 657 1256 c 256
 657 1231 654 918 654 918 c 257
 654 918 654 893 661 796 c 257
 544 796 l 257
 542 889 l 257
 499 819 414 781 323 781 c 256
EndSplineSet
EndChar

StartChar: ordmasculine
Encoding: 186 186 367
Width: 868
VWidth: 0
GlyphClass: 2
Flags: W
PickledData: "(dp1
S'org.robofab.postScriptHintData'
p2
(dp3
sS'com.typemytype.robofont.layerData'
p4
(dp5
S'b'
(dp6
S'name'
p7
S'ordmasculine'
p8
sS'lib'
p9
(dp10
sS'unicodes'
p11
(tsS'width'
p12
F887.85000000000002
sS'contours'
p13
(tsS'components'
p14
(tsS'anchors'
p15
(tsss."
LayerCount: 2
Fore
SplineSet
436 779 m 256
 201 779 79 934 79 1133 c 256
 79 1329 208 1483 436 1483 c 256
 667 1483 789 1329 789 1130 c 256
 789 937 664 779 436 779 c 256
438 886 m 256
 577 886 663 979 663 1126 c 256
 663 1279 577 1372 434 1372 c 256
 296 1372 211 1279 211 1130 c 256
 211 977 291 886 438 886 c 256
EndSplineSet
EndChar

StartChar: oslash
Encoding: 248 248 368
Width: 1242
VWidth: 0
GlyphClass: 2
Flags: W
PickledData: "(dp1
S'org.robofab.postScriptHintData'
p2
(dp3
sS'com.typemytype.robofont.layerData'
p4
(dp5
S'b'
(dp6
S'name'
p7
S'oslash'
p8
sS'lib'
p9
(dp10
sS'unicodes'
p11
(tsS'width'
p12
F1255
sS'contours'
p13
(tsS'components'
p14
(tsS'anchors'
p15
(tsss."
LayerCount: 2
Fore
SplineSet
623 -21 m 256
 949 -21 1146 195 1146 511 c 256
 1146 737.601 1050.03 912.523 879.832 996.751 c 257
 974 1208 l 257
 906 1238 l 257
 811.364 1024.4 l 257
 755.074 1042.45 692.427 1052 624 1052 c 256
 297 1052 98 834 98 511 c 256
 98 287.067 196.93 113.352 371.303 31.1368 c 257
 272 -193 l 257
 337 -221 l 257
 437.91 5.37326 l 257
 493.689 -11.8731 555.577 -21 623 -21 c 256
828.708 882.063 m 257
 939.684 812.69 999 680.658 999 511 c 256
 999 263 867 95 623 95 c 256
 572.897 95 527.478 102.026 486.922 115.325 c 257
 828.708 882.063 l 257
762.363 913.797 m 257
 421.534 144.513 l 257
 306.02 211.74 245 343.018 245 511 c 256
 245 766 379 936 623 936 c 256
 674.412 936 720.949 928.327 762.363 913.797 c 257
EndSplineSet
EndChar

StartChar: p
Encoding: 112 112 371
Width: 1263
VWidth: 0
GlyphClass: 2
Flags: W
PickledData: "(dp1
S'org.robofab.postScriptHintData'
p2
(dp3
sS'com.typemytype.robofont.layerData'
p4
(dp5
S'b'
(dp6
S'name'
p7
S'p'
sS'lib'
p8
(dp9
sS'unicodes'
p10
(tsS'width'
p11
F1260.25
sS'contours'
p12
(tsS'components'
p13
(tsS'anchors'
p14
(tsss."
AnchorPoint: "top" 691 1026 basechar 0
LayerCount: 2
Fore
SplineSet
686 92 m 256
 902 92 1020 260 1020 511 c 256
 1020 763 901 933 687 933 c 256
 463 933 328 753 328 497 c 256
 328 249 462 92 686 92 c 256
190 -459 m 257
 190 743 l 258
 190 839 183 983 181 1026 c 257
 327 1026 l 257
 330 811 l 257
 377 944 526 1049 703 1049 c 256
 985 1049 1165 831 1165 514 c 256
 1165 197 985 -24 701 -24 c 256
 526 -24 380 65 331 189 c 257
 331 -459 l 257
 190 -459 l 257
EndSplineSet
EndChar

StartChar: paragraph
Encoding: 182 182 372
Width: 1201
VWidth: 0
GlyphClass: 2
Flags: W
PickledData: "(dp1
S'org.robofab.postScriptHintData'
p2
(dp3
sS'com.typemytype.robofont.layerData'
p4
(dp5
S'b'
(dp6
S'name'
p7
S'paragraph'
p8
sS'lib'
p9
(dp10
sS'unicodes'
p11
(tsS'width'
p12
F1211.95
sS'contours'
p13
(tsS'components'
p14
(tsS'anchors'
p15
(tsss."
LayerCount: 2
Fore
SplineSet
504 -180 m 257
 504 828 l 257
 501.61 827.958 499.217 827.937 496.821 827.937 c 256
 326.784 827.937 143 932.862 143 1136 c 256
 143 1385 329 1457 606 1457 c 258
 1027 1457 l 257
 1027 1348 l 257
 930 1348 l 257
 930 -180 l 257
 825 -180 l 257
 825 1348 l 257
 608 1348 l 257
 608 -180 l 257
 504 -180 l 257
EndSplineSet
EndChar

StartChar: parenleft
Encoding: 40 40 373
Width: 600
VWidth: 0
GlyphClass: 2
Flags: W
PickledData: "(dp1
S'org.robofab.postScriptHintData'
p2
(dp3
sS'com.typemytype.robofont.layerData'
p4
(dp5
S'b'
(dp6
S'name'
p7
S'parenleft'
p8
sS'lib'
p9
(dp10
sS'unicodes'
p11
(tsS'width'
p12
F639.35000000000002
sS'contours'
p13
(tsS'components'
p14
(tsS'anchors'
p15
(tsss."
LayerCount: 2
Fore
SplineSet
416 -174 m 257
 263 61 151 351 151 662 c 256
 151 984 248 1251 415 1516 c 257
 551 1516 l 257
 385 1251 292 973 292 666 c 256
 292 381 392 74 552 -174 c 257
 416 -174 l 257
EndSplineSet
EndChar

StartChar: parenright
Encoding: 41 41 374
Width: 600
VWidth: 0
GlyphClass: 2
Flags: W
PickledData: "(dp1
S'org.robofab.postScriptHintData'
p2
(dp3
sS'com.typemytype.robofont.layerData'
p4
(dp5
S'b'
(dp6
S'name'
p7
S'parenright'
p8
sS'lib'
p9
(dp10
sS'unicodes'
p11
(tsS'width'
p12
F639.35000000000002
sS'contours'
p13
(tsS'components'
p14
(tsS'anchors'
p15
(tsss."
LayerCount: 2
Fore
SplineSet
48 -194 m 257
 214 70 307 348 307 656 c 256
 307 941 207 1247 47 1496 c 257
 183 1496 l 257
 337 1261 449 970 449 660 c 256
 449 337 352 69 185 -194 c 257
 48 -194 l 257
EndSplineSet
EndChar

StartChar: partialdiff
Encoding: 8706 8706 375
Width: 1166
VWidth: 0
GlyphClass: 2
Flags: W
PickledData: "(dp1
S'org.robofab.postScriptHintData'
p2
(dp3
sS'com.typemytype.robofont.layerData'
p4
(dp5
S'b'
(dp6
S'name'
p7
S'partialdiff'
p8
sS'lib'
p9
(dp10
sS'unicodes'
p11
(tsS'width'
p12
F1163.95
sS'contours'
p13
(tsS'components'
p14
(tsS'anchors'
p15
(tsss."
LayerCount: 2
Fore
SplineSet
498 95 m 256
 755 95 877 373 908 657 c 257
 868 778 764 884 614 884 c 256
 403 884 238 667 238 415 c 256
 238 222 339 95 498 95 c 256
925 801 m 257
 925 824.705 927.049 877.866 927.049 907.669 c 256
 927.049 1229.27 792.539 1422 569 1422 c 256
 485 1422 385 1394 302 1336 c 257
 292 1454 l 257
 370 1504 478 1541 594 1541 c 256
 891 1541 1076 1328 1076 858 c 256
 1076 422 881 -24 495 -24 c 256
 228 -24 91 170 91 418 c 256
 91 747 312 1002 589 1002 c 256
 786 1002 884 877 925 801 c 257
EndSplineSet
EndChar

StartChar: percent
Encoding: 37 37 377
Width: 1996
VWidth: 0
GlyphClass: 2
Flags: W
PickledData: "(dp1
S'org.robofab.postScriptHintData'
p2
(dp3
sS'com.typemytype.robofont.layerData'
p4
(dp5
S'b'
(dp6
S'name'
p7
S'percent'
p8
sS'lib'
p9
(dp10
sS'unicodes'
p11
(tsS'width'
p12
F1769.3
sS'contours'
p13
(tsS'components'
p14
(tsS'anchors'
p15
(tsss."
LayerCount: 2
Fore
SplineSet
1523 -10 m 256
 1303 -10 1183 149 1183 412 c 256
 1183 677 1304 842 1524 842 c 256
 1739 842 1855 679 1855 413 c 256
 1855 150 1737 -10 1523 -10 c 256
1523 90 m 256
 1662 90 1730 205 1730 413 c 256
 1730 624 1664 742 1524 742 c 256
 1377 742 1309 622 1309 412 c 256
 1309 203 1379 90 1523 90 c 256
597 0 m 257
 1290 1456 l 257
 1408 1456 l 257
 715 0 l 257
 597 0 l 257
480 615 m 256
 260 615 140 769 140 1036 c 256
 140 1306 261 1466 481 1466 c 256
 696 1466 813 1307 813 1037 c 256
 813 770 694 615 480 615 c 256
481 714 m 256
 620 714 687 829 687 1038 c 256
 687 1248 621 1366 481 1366 c 256
 335 1366 266 1247 266 1037 c 256
 266 828 336 714 481 714 c 256
EndSplineSet
EndChar

StartChar: period
Encoding: 46 46 378
Width: 546
VWidth: 0
GlyphClass: 2
Flags: W
PickledData: "(dp1
S'org.robofab.postScriptHintData'
p2
(dp3
sS'com.typemytype.robofont.layerData'
p4
(dp5
s."
LayerCount: 2
Fore
SplineSet
178 0 m 257
 178 196 l 257
 376 196 l 257
 376 0 l 257
 178 0 l 257
EndSplineSet
EndChar

StartChar: periodcentered
Encoding: 183 183 379
Width: 509
VWidth: 0
GlyphClass: 2
Flags: W
PickledData: "(dp1
S'org.robofab.postScriptHintData'
p2
(dp3
sS'com.typemytype.robofont.layerData'
p4
(dp5
S'b'
(dp6
S'name'
p7
S'middot'
p8
sS'lib'
p9
(dp10
sS'unicodes'
p11
(tsS'width'
p12
I509
sS'contours'
p13
(tsS'components'
p14
(tsS'anchors'
p15
(tsss."
LayerCount: 2
Fore
SplineSet
263 525 m 257
 263 705 l 257
 427 705 l 257
 427 525 l 257
 263 525 l 257
EndSplineSet
EndChar

StartChar: perthousand
Encoding: 8240 8240 380
Width: 2845
VWidth: 0
GlyphClass: 2
Flags: W
PickledData: "(dp1
S'org.robofab.postScriptHintData'
p2
(dp3
sS'com.typemytype.robofont.layerData'
p4
(dp5
S'b'
(dp6
S'name'
p7
S'perthousand'
p8
sS'lib'
p9
(dp10
sS'unicodes'
p11
(tsS'width'
p12
F2581.1999999999998
sS'contours'
p13
(tsS'components'
p14
(tsS'anchors'
p15
(tsss."
LayerCount: 2
Fore
SplineSet
2372 -10 m 256
 2152 -10 2032 149 2032 412 c 256
 2032 677 2152 842 2372 842 c 256
 2588 842 2704 679 2704 413 c 256
 2704 150 2586 -10 2372 -10 c 256
2372 90 m 256
 2511 90 2578 205 2578 413 c 256
 2578 624 2513 742 2372 742 c 256
 2226 742 2158 622 2158 412 c 256
 2158 203 2228 90 2372 90 c 256
EndSplineSet
Refer: 377 37 N 1 0 0 1 0 0 2
EndChar

StartChar: pi
Encoding: 960 960 381
Width: 1409
VWidth: 0
GlyphClass: 2
Flags: W
PickledData: "(dp1
S'org.robofab.postScriptHintData'
p2
(dp3
sS'com.typemytype.robofont.layerData'
p4
(dp5
S'b'
(dp6
S'name'
p7
S'pi'
p8
sS'lib'
p9
(dp10
sS'unicodes'
p11
(tsS'width'
p12
F1288
sS'contours'
p13
(tsS'components'
p14
(tsS'anchors'
p15
(tsss."
LayerCount: 2
Fore
SplineSet
1121 -12 m 256
 1195 -12 1260 11 1297 45 c 257
 1297 160 l 257
 1268 149 1212 126 1170 126 c 256
 1082 126 1038 224 1038 438 c 256
 1038 560 1053 727 1082 932 c 257
 1324 932 l 257
 1324 1082 l 257
 429 1082 l 258
 190 1082 120 1000 120 779 c 257
 209 779 l 257
 221 875 262 932 348 932 c 258
 476 932 l 257
 404 387 l 258
 375 165 245 104 123 104 c 257
 123 4 l 257
 461 4 527 109 540 333 c 257
 578 932 l 257
 968 932 l 257
 933 679 893 452 893 288 c 256
 893 99 946 -12 1121 -12 c 256
EndSplineSet
EndChar

StartChar: plus
Encoding: 43 43 382
Width: 1159
VWidth: 0
GlyphClass: 2
Flags: W
PickledData: "(dp1
S'org.robofab.postScriptHintData'
p2
(dp3
sS'com.typemytype.robofont.layerData'
p4
(dp5
S'b'
(dp6
S'name'
p7
S'plus'
p8
sS'lib'
p9
(dp10
sS'unicodes'
p11
(tsS'width'
p12
F1206.9000000000001
sS'contours'
p13
(tsS'components'
p14
(tsS'anchors'
p15
(tsss."
LayerCount: 2
Fore
SplineSet
513 120 m 257
 513 549 l 257
 126 549 l 257
 126 673 l 257
 513 673 l 257
 513 1078 l 257
 643 1078 l 257
 643 673 l 257
 1033 673 l 257
 1033 549 l 257
 645 549 l 257
 645 120 l 257
 513 120 l 257
EndSplineSet
EndChar

StartChar: plusminus
Encoding: 177 177 383
Width: 1206
VWidth: 0
GlyphClass: 2
Flags: W
PickledData: "(dp1
S'org.robofab.postScriptHintData'
p2
(dp3
sS'com.typemytype.robofont.layerData'
p4
(dp5
S'b'
(dp6
S'name'
p7
S'plusminus'
p8
sS'lib'
p9
(dp10
sS'unicodes'
p11
(tsS'width'
p12
F1234.75
sS'contours'
p13
(tsS'components'
p14
(tsS'anchors'
p15
(tsss."
LayerCount: 2
Fore
SplineSet
179 0 m 257
 179 112 l 257
 1042 112 l 257
 1042 0 l 257
 179 0 l 257
544 232 m 257
 544 595 l 257
 196 595 l 257
 196 720 l 257
 543 720 l 257
 543 1084 l 257
 669 1084 l 257
 669 720 l 257
 1005 720 l 257
 1005 595 l 257
 672 595 l 257
 672 232 l 257
 544 232 l 257
EndSplineSet
EndChar

StartChar: product
Encoding: 8719 8719 384
Width: 1540
VWidth: 0
GlyphClass: 2
Flags: W
PickledData: "(dp1
S'org.robofab.postScriptHintData'
p2
(dp3
sS'com.typemytype.robofont.guides'
p4
(tsS'com.typemytype.robofont.layerData'
p5
(dp6
S'b'
(dp7
S'name'
p8
S'product'
p9
sS'lib'
p10
(dp11
sS'unicodes'
p12
(tsS'width'
p13
F1568
sS'contours'
p14
(tsS'components'
p15
(tsS'anchors'
p16
(tsss."
LayerCount: 2
Fore
SplineSet
285 -66 m 257
 285 1335 l 257
 110 1335 l 257
 110 1456 l 257
 1419 1456 l 257
 1419 1335 l 257
 1253 1335 l 257
 1253 -66 l 257
 1105 -66 l 257
 1105 1335 l 257
 430 1335 l 257
 430 -66 l 257
 285 -66 l 257
EndSplineSet
EndChar

StartChar: q
Encoding: 113 113 385
Width: 1258
VWidth: 0
GlyphClass: 2
Flags: W
PickledData: "(dp1
S'org.robofab.postScriptHintData'
p2
(dp3
sS'com.typemytype.robofont.layerData'
p4
(dp5
S'b'
(dp6
S'name'
p7
S'q'
sS'lib'
p8
(dp9
sS'unicodes'
p10
(tsS'width'
p11
F1254.3
sS'contours'
p12
(tsS'components'
p13
(tsS'anchors'
p14
(tsss."
LayerCount: 2
Fore
SplineSet
577 98 m 256
 784 98 915 256 915 544 c 256
 915 784 783 933 591 933 c 256
 387 933 249 773 249 505 c 256
 249 246 382 98 577 98 c 256
918 -434 m 257
 918 193 l 257
 884 102 770 -21 564 -21 c 256
 301 -21 96 165 96 501 c 256
 96 849 290 1052 575 1052 c 256
 745 1052 866 969 918 863 c 257
 918 1026 l 257
 1067 1026 l 257
 1067.14 1027.14 1067.26 1027.68 1067.36 1027.68 c 256
 1067.58 1027.68 1067.67 1024.76 1067.67 1019.63 c 256
 1067.67 984.795 1062.99 848.092 1062 832 c 258
 1062 -434 l 257
 918 -434 l 257
EndSplineSet
EndChar

StartChar: question
Encoding: 63 63 386
Width: 1086
VWidth: 0
GlyphClass: 2
Flags: W
PickledData: "(dp1
S'org.robofab.postScriptHintData'
p2
(dp3
sS'com.typemytype.robofont.layerData'
p4
(dp5
S'b'
(dp6
S'name'
p7
S'question'
p8
sS'lib'
p9
(dp10
sS'unicodes'
p11
(tsS'width'
p12
F1055.9000000000001
sS'contours'
p13
(tsS'components'
p14
(tsS'anchors'
p15
(tsss."
LayerCount: 2
Fore
SplineSet
348 -12 m 257
 348 182 l 257
 523 182 l 257
 523 -12 l 257
 348 -12 l 257
376 358 m 257
 376 504 l 258
 376 743 768 877 768 1127 c 256
 768 1287 642 1352 486 1352 c 256
 362 1352 253 1302 205 1274 c 257
 205 1410 l 257
 321 1465 449 1476 505 1476 c 256
 754 1476 915 1364 915 1135 c 256
 915 837 490 695 490 479 c 258
 490 358 l 257
 376 358 l 257
EndSplineSet
EndChar

StartChar: quotedbl
Encoding: 34 34 388
Width: 799
VWidth: 0
GlyphClass: 2
Flags: W
PickledData: "(dp1
S'org.robofab.postScriptHintData'
p2
(dp3
sS'com.typemytype.robofont.layerData'
p4
(dp5
S'b'
(dp6
S'name'
p7
S'quotedbl'
p8
sS'lib'
p9
(dp10
sS'unicodes'
p11
(tsS'width'
p12
F785.64999999999998
sS'contours'
p13
(tsS'components'
p14
(tsS'anchors'
p15
(tsss."
LayerCount: 2
Fore
SplineSet
526 933 m 257
 493 1456 l 257
 646 1456 l 257
 624 933 l 257
 526 933 l 257
218 933 m 257
 185 1456 l 257
 338 1456 l 257
 316 933 l 257
 218 933 l 257
EndSplineSet
EndChar

StartChar: quotedblbase
Encoding: 8222 8222 389
Width: 1024
VWidth: 0
GlyphClass: 2
Flags: W
PickledData: "(dp1
S'org.robofab.postScriptHintData'
p2
(dp3
s."
LayerCount: 2
Fore
SplineSet
418 187 m 257
 604 187 l 257
 531 -313 l 257
 393 -313 l 257
 418 187 l 257
EndSplineSet
EndChar

StartChar: quotedblleft
Encoding: 8220 8220 390
Width: 1024
VWidth: 0
GlyphClass: 2
Flags: W
PickledData: "(dp1
S'org.robofab.postScriptHintData'
p2
(dp3
sS'com.typemytype.robofont.layerData'
p4
(dp5
S'b'
(dp6
S'name'
p7
S'quotedblleft'
p8
sS'lib'
p9
(dp10
sS'unicodes'
p11
(tsS'width'
p12
F1024
sS'contours'
p13
(tsS'components'
p14
(tsS'anchors'
p15
(tsss."
LayerCount: 2
Fore
SplineSet
555 893 m 257
 669 1456 l 257
 778 1456 l 257
 717 893 l 257
 555 893 l 257
189 893 m 257
 306 1456 l 257
 415 1456 l 257
 354 893 l 257
 189 893 l 257
EndSplineSet
EndChar

StartChar: quotedblright
Encoding: 8221 8221 391
Width: 1024
VWidth: 0
GlyphClass: 2
Flags: W
PickledData: "(dp1
S'org.robofab.postScriptHintData'
p2
(dp3
sS'com.typemytype.robofont.layerData'
p4
(dp5
S'b'
(dp6
S'name'
p7
S'quotedblright'
p8
sS'lib'
p9
(dp10
sS'unicodes'
p11
(tsS'width'
p12
F1024
sS'contours'
p13
(tsS'components'
p14
(tsS'anchors'
p15
(tsss."
LayerCount: 2
Fore
SplineSet
556 893 m 257
 616 1456 l 257
 778 1456 l 257
 665 893 l 257
 556 893 l 257
204 893 m 257
 264 1456 l 257
 426 1456 l 257
 313 893 l 257
 204 893 l 257
EndSplineSet
EndChar

StartChar: quoteleft
Encoding: 8216 8216 392
Width: 463
VWidth: 0
GlyphClass: 2
Flags: W
PickledData: "(dp1
S'org.robofab.postScriptHintData'
p2
(dp3
sS'com.typemytype.robofont.layerData'
p4
(dp5
S'b'
(dp6
S'name'
p7
S'quoteleft'
p8
sS'lib'
p9
(dp10
sS'unicodes'
p11
(tsS'width'
p12
F518.5
sS'contours'
p13
(tsS'components'
p14
(tsS'anchors'
p15
(tsss."
LayerCount: 2
Fore
SplineSet
350 1456 m 257
 302 893 l 257
 133 893 l 257
 249 1456 l 257
 350 1456 l 257
EndSplineSet
EndChar

StartChar: quoteright
Encoding: 8217 8217 393
Width: 463
VWidth: 0
GlyphClass: 2
Flags: W
PickledData: "(dp1
S'org.robofab.postScriptHintData'
p2
(dp3
sS'com.typemytype.robofont.layerData'
p4
(dp5
S'b'
(dp6
S'name'
p7
S'quoteright'
p8
sS'lib'
p9
(dp10
g4
(dp11
S'b'
(dp12
g7
S'quoteleft'
p13
sg9
(dp14
sS'unicodes'
p15
(tsS'width'
p16
I494
sS'contours'
p17
(tsS'components'
p18
(tsS'anchors'
p19
(tssssg15
(tsg16
F537.25
sg17
((dp20
S'points'
p21
((dp22
S'segmentType'
p23
S'line'
p24
sS'x'
F416
sS'smooth'
p25
I00
sS'y'
F888
s(dp26
g23
S'line'
p27
sS'x'
F300
sg25
I00
sS'y'
F888
s(dp28
g23
S'line'
p29
sS'x'
F150
sg25
I00
sS'y'
F1456
s(dp30
g23
S'line'
p31
sS'x'
F360
sg25
I00
sS'y'
F1456
stp32
stp33
sg18
(tsg19
(tsss."
LayerCount: 2
Fore
SplineSet
133 893 m 257
 181 1456 l 257
 350 1456 l 257
 234 893 l 257
 133 893 l 257
EndSplineSet
EndChar

StartChar: quotesinglbase
Encoding: 8218 8218 394
Width: 516
VWidth: 0
GlyphClass: 2
Flags: W
PickledData: "(dp1
S'org.robofab.postScriptHintData'
p2
(dp3
sS'com.typemytype.robofont.layerData'
p4
(dp5
S'b'
(dp6
S'name'
p7
S'quotesinglbase'
p8
sS'lib'
p9
(dp10
sS'unicodes'
p11
(tsS'width'
p12
F595.70000000000005
sS'contours'
p13
(tsS'components'
p14
(tsS'anchors'
p15
(tsss."
LayerCount: 2
Fore
SplineSet
181 -348 m 257
 207 187 l 257
 361 187 l 257
 289 -348 l 257
 181 -348 l 257
EndSplineSet
EndChar

StartChar: quotesingle
Encoding: 39 39 395
Width: 527
VWidth: 0
GlyphClass: 2
Flags: W
PickledData: "(dp1
S'org.robofab.postScriptHintData'
p2
(dp3
sS'com.typemytype.robofont.layerData'
p4
(dp5
S'b'
(dp6
S'name'
p7
S'quotesingle'
p8
sS'lib'
p9
(dp10
sS'unicodes'
p11
(tsS'width'
p12
F507.85000000000002
sS'contours'
p13
(tsS'components'
p14
(tsS'anchors'
p15
(tsss."
LayerCount: 2
Fore
SplineSet
218 933 m 257
 185 1456 l 257
 338 1456 l 257
 316 933 l 257
 218 933 l 257
EndSplineSet
EndChar

StartChar: r
Encoding: 114 114 396
Width: 786
VWidth: 0
GlyphClass: 2
Flags: W
PickledData: "(dp1
S'org.robofab.postScriptHintData'
p2
(dp3
sS'com.typemytype.robofont.layerData'
p4
(dp5
S'b'
(dp6
S'name'
p7
S'r'
sS'lib'
p8
(dp9
sS'unicodes'
p10
(tsS'width'
p11
F818.89999999999998
sS'contours'
p12
(tsS'components'
p13
(tsS'anchors'
p14
(tsss."
AnchorPoint: "top" 499 1026 basechar 0
LayerCount: 2
Fore
SplineSet
192 0 m 257
 192 775 l 258
 192 878 181 1026 181 1026 c 257
 328 1026 l 257
 334 851 l 257
 388 990 497 1049 622 1049 c 256
 656 1049 691 1046 725 1039 c 257
 722 912 l 257
 690 919 654 924 618 924 c 256
 454 924 334 817 334 565 c 258
 334 0 l 257
 192 0 l 257
EndSplineSet
EndChar

StartChar: radical
Encoding: 8730 8730 398
Width: 1314
VWidth: 0
GlyphClass: 2
Flags: W
PickledData: "(dp1
S'org.robofab.postScriptHintData'
p2
(dp3
sS'com.typemytype.robofont.layerData'
p4
(dp5
s."
LayerCount: 2
Fore
SplineSet
663 -155 m 257
 325 703 l 258
 324 703 149 675 149 675 c 257
 135 772 l 257
 411 821 l 257
 716 -9 l 257
 1145 1606 l 257
 1250 1606 l 257
 780 -155 l 257
 663 -155 l 257
EndSplineSet
EndChar

StartChar: registered
Encoding: 174 174 402
Width: 1738
VWidth: 0
GlyphClass: 2
Flags: W
PickledData: "(dp1
S'org.robofab.postScriptHintData'
p2
(dp3
sS'com.typemytype.robofont.layerData'
p4
(dp5
S'b'
(dp6
S'name'
p7
S'registered'
p8
sS'lib'
p9
(dp10
sS'unicodes'
p11
(tsS'width'
p12
F1727.05
sS'contours'
p13
(tsS'components'
p14
(tsS'anchors'
p15
(tsss."
LayerCount: 2
Fore
SplineSet
868 -32 m 256
 451 -32 109 308 109 726 c 256
 109 1143 451 1485 868 1485 c 256
 1287 1485 1630 1143 1630 726 c 256
 1630 308 1287 -32 868 -32 c 256
870 60 m 256
 1230 60 1522 362 1522 722 c 256
 1522 1083 1230 1387 870 1387 c 256
 509 1387 217 1083 217 722 c 256
 217 362 509 60 870 60 c 256
687 770 m 257
 822 770 l 258
 1008 770 1093 796 1093 925 c 256
 1093 1067 1033 1088 808 1088 c 258
 687 1088 l 257
 687 770 l 257
559 269 m 257
 559 1197 l 257
 822 1197 l 258
 1118 1197 1233 1105 1233 941 c 256
 1233 813 1188 724 1004 692 c 257
 1229 269 l 257
 1078 269 l 257
 872 679 l 257
 690 679 l 257
 690 269 l 257
 559 269 l 257
EndSplineSet
EndChar

StartChar: ring
Encoding: 730 730 403
Width: 581
VWidth: 0
GlyphClass: 2
Flags: W
PickledData: "(dp1
S'org.robofab.postScriptHintData'
p2
(dp3
sS'com.typemytype.robofont.layerData'
p4
(dp5
S'b'
(dp6
S'name'
p7
S'ring'
p8
sS'lib'
p9
(dp10
sS'unicodes'
p11
(tsS'width'
p12
F633.35000000000002
sS'contours'
p13
(tsS'components'
p14
(tsS'anchors'
p15
(tsss."
AnchorPoint: "top" 292 1026 mark 0
AnchorPoint: "top" 291 1466 basechar 0
LayerCount: 2
Fore
SplineSet
292 1136 m 256
 185 1136 103 1213 103 1318 c 256
 103 1423 185 1500 292 1500 c 256
 398 1500 479 1423 479 1318 c 256
 479 1213 398 1136 292 1136 c 256
291 1207 m 256
 351 1207 397 1255 397 1318 c 256
 397 1381 351 1429 291 1429 c 256
 231 1429 185 1381 185 1318 c 256
 185 1255 231 1207 291 1207 c 256
EndSplineSet
EndChar

StartChar: s
Encoding: 115 115 405
Width: 957
VWidth: 0
GlyphClass: 2
Flags: W
PickledData: "(dp1
S'org.robofab.postScriptHintData'
p2
(dp3
sS'com.typemytype.robofont.layerData'
p4
(dp5
S'b'
(dp6
S'name'
p7
S's'
sS'lib'
p8
(dp9
sS'unicodes'
p10
(tsS'width'
p11
F981.89999999999998
sS'contours'
p12
((dp13
S'points'
p14
((dp15
S'segmentType'
p16
S'curve'
p17
sS'x'
F498
sS'smooth'
p18
I01
sS'y'
F-23
s(dp19
S'y'
F-23
sS'x'
F282
sg18
I00
s(dp20
S'y'
F70
sS'x'
F145
sg18
I00
s(dp21
g16
S'curve'
p22
sS'x'
F116
sg18
I00
sS'y'
F94
s(dp23
g16
S'line'
p24
sS'x'
F160
sg18
I00
sS'y'
F222
s(dp25
S'y'
F189
sS'x'
F208
sg18
I00
s(dp26
S'y'
F109
sS'x'
F348
sg18
I00
s(dp27
g16
S'curve'
p28
sS'x'
F484
sg18
I01
sS'y'
F109
s(dp29
S'y'
F109
sS'x'
F589
sg18
I00
s(dp30
S'y'
F141
sS'x'
F711
sg18
I00
s(dp31
g16
S'curve'
p32
sS'x'
F711
sg18
I01
sS'y'
F272
s(dp33
S'y'
F395
sS'x'
F711
sg18
I00
s(dp34
S'y'
F426
sS'x'
F561
sg18
I00
s(dp35
g16
S'curve'
p36
sS'x'
F412
sg18
I00
sS'y'
F474
s(dp37
S'y'
F521
sS'x'
F262
sg18
I00
s(dp38
S'y'
F585
sS'x'
F112
sg18
I00
s(dp39
g16
S'curve'
p40
sS'x'
F112
sg18
I01
sS'y'
F771
s(dp41
S'y'
F970
sS'x'
F112
sg18
I00
s(dp42
S'y'
F1051
sS'x'
F318
sg18
I00
s(dp43
g16
S'curve'
p44
sS'x'
F488
sg18
I01
sS'y'
F1051
s(dp45
S'y'
F1051
sS'x'
F715
sg18
I00
s(dp46
S'y'
F991
sS'x'
F792
sg18
I00
s(dp47
g16
S'curve'
p48
sS'x'
F832
sg18
I00
sS'y'
F966
s(dp49
g16
S'line'
p50
sS'x'
F785
sg18
I00
sS'y'
F851
s(dp51
S'y'
F858
sS'x'
F772
sg18
I00
s(dp52
S'y'
F917
sS'x'
F667
sg18
I00
s(dp53
g16
S'curve'
p54
sS'x'
F504
sg18
I01
sS'y'
F917
s(dp55
S'y'
F917
sS'x'
F355
sg18
I00
s(dp56
S'y'
F882
sS'x'
F283
sg18
I00
s(dp57
g16
S'curve'
p58
sS'x'
F283
sg18
I01
sS'y'
F774
s(dp59
S'y'
F660
sS'x'
F283
sg18
I00
s(dp60
S'y'
F629
sS'x'
F433
sg18
I00
s(dp61
g16
S'curve'
p62
sS'x'
F582
sg18
I01
sS'y'
F581
s(dp63
S'y'
F533
sS'x'
F732
sg18
I00
s(dp64
S'y'
F468
sS'x'
F881
sg18
I00
s(dp65
g16
S'curve'
p66
sS'x'
F881
sg18
I01
sS'y'
F284
s(dp67
S'y'
F62
sS'x'
F881
sg18
I00
s(dp68
S'y'
F-23
sS'x'
F685
sg18
I00
stp69
stp70
sS'components'
p71
(tsS'anchors'
p72
(tsss."
AnchorPoint: "top" 476 1026 basechar 0
LayerCount: 2
Fore
SplineSet
497 -21 m 256
 298 -21 165 67 124 99 c 257
 168 206 l 257
 216 172 336 97 488 97 c 256
 601 97 726 127 726 270 c 256
 726 372 666 407 521 454 c 257
 373 500 l 257
 224 550 123 611 123 775 c 256
 123 971 288 1052 495 1052 c 256
 669 1052 769 1001 819 969 c 257
 778 867 l 257
 739 888 640 936 506 936 c 256
 343 936 263 879 263 781 c 256
 263 689 303 661 432 619 c 256
 441 615 572 574 584 570 c 256
 756 512 860 452 860 283 c 256
 860 64 688 -21 497 -21 c 256
EndSplineSet
EndChar

StartChar: section
Encoding: 167 167 412
Width: 1046
VWidth: 0
GlyphClass: 2
Flags: W
PickledData: "(dp1
S'org.robofab.postScriptHintData'
p2
(dp3
sS'com.typemytype.robofont.layerData'
p4
(dp5
S'b'
(dp6
S'name'
p7
S'section'
p8
sS'lib'
p9
(dp10
sS'unicodes'
p11
(tsS'width'
p12
F1071.6500000000001
sS'contours'
p13
(tsS'components'
p14
(tsS'anchors'
p15
(tsss."
LayerCount: 2
Fore
SplineSet
592 503 m 257
 684 549 750 622 750 712 c 256
 750 803 670 833 515 909 c 257
 407 868 320 809 320 723 c 256
 320 621 425 576 592 503 c 257
502 -83 m 256
 410 -83 307 -65 212 -30 c 257
 212 82 l 257
 316 41 414 20 496 20 c 256
 640.869 20 738.025 81.4844 738.025 203.736 c 256
 738.025 309.717 622.354 351.798 430 445 c 256
 281 518 195 579 195 715 c 256
 195 832 305 923 423 959 c 257
 286 1036 223 1094 223 1216 c 256
 223 1408 401 1493 589 1493 c 256
 668 1493 744 1480 814 1454 c 257
 814 1351 l 257
 750 1376 674 1391 603 1391 c 256
 472 1391 355 1341 355 1219 c 256
 355 1135 405 1095 587 1005 c 256
 770 913 885 862 885 720 c 256
 885 602 782 510 680 455 c 257
 795 397 869 327 869 210 c 256
 869 10 706 -83 502 -83 c 256
EndSplineSet
EndChar

StartChar: semicolon
Encoding: 59 59 413
Width: 546
VWidth: 0
GlyphClass: 2
Flags: W
PickledData: "(dp1
S'org.robofab.postScriptHintData'
p2
(dp3
sS'com.typemytype.robofont.layerData'
p4
(dp5
s."
LayerCount: 2
Fore
SplineSet
156 830 m 257
 156 1027 l 257
 364 1027 l 257
 364 830 l 257
 156 830 l 257
111 -260 m 257
 216 193 l 257
 380 193 l 257
 221 -260 l 257
 111 -260 l 257
EndSplineSet
EndChar

StartChar: seven
Encoding: 55 55 414
Width: 1204
VWidth: 0
GlyphClass: 2
Flags: W
PickledData: "(dp1
S'org.robofab.postScriptHintData'
p2
(dp3
sS'com.typemytype.robofont.layerData'
p4
(dp5
s."
LayerCount: 2
Fore
SplineSet
373 0 m 257
 907 1326 l 257
 180 1326 l 257
 180 1456 l 257
 1073 1456 l 257
 1073 1344 l 257
 537 0 l 257
 373 0 l 257
EndSplineSet
EndChar

StartChar: six
Encoding: 54 54 415
Width: 1204
VWidth: 0
GlyphClass: 2
Flags: W
PickledData: "(dp1
S'org.robofab.postScriptHintData'
p2
(dp3
sS'com.typemytype.robofont.layerData'
p4
(dp5
s."
LayerCount: 2
Fore
SplineSet
636 101 m 256
 837 101 949 256 949 458 c 256
 949 651 857 805 648 805 c 256
 428 805 301 651 301 528 c 256
 301 302 398 101 636 101 c 256
636 -23 m 256
 284 -23 132 269 132 691 c 256
 132 1125 306 1483 685 1483 c 256
 827 1483 941 1431 1010 1375 c 257
 955 1267 l 257
 894 1317 797 1359 686 1359 c 256
 380 1359 301 1026 289 802 c 256
 287 777 287 755 287 735 c 257
 338 824 469 926 660 926 c 256
 912 926 1102 746 1102 459 c 256
 1102 186 924 -23 636 -23 c 256
EndSplineSet
EndChar

StartChar: slash
Encoding: 47 47 416
Width: 821
VWidth: 0
GlyphClass: 2
Flags: W
PickledData: "(dp1
S'org.robofab.postScriptHintData'
p2
(dp3
sS'com.typemytype.robofont.layerData'
p4
(dp5
s."
LayerCount: 2
Fore
SplineSet
134 0 m 257
 612 1456 l 257
 739 1456 l 257
 257 0 l 257
 134 0 l 257
EndSplineSet
EndChar

StartChar: uni00AD
Encoding: 173 173 418
Width: 636
VWidth: 0
GlyphClass: 2
Flags: W
PickledData: "(dp1
S'org.robofab.postScriptHintData'
p2
(dp3
s."
LayerCount: 2
Fore
SplineSet
64 507 m 257
 64 614 l 257
 572 614 l 257
 572 507 l 257
 64 507 l 257
EndSplineSet
EndChar

StartChar: sterling
Encoding: 163 163 420
Width: 1170
VWidth: 0
GlyphClass: 2
Flags: W
PickledData: "(dp1
S'org.robofab.postScriptHintData'
p2
(dp3
sS'com.typemytype.robofont.layerData'
p4
(dp5
S'b'
(dp6
S'name'
p7
S'sterling'
p8
sS'lib'
p9
(dp10
sS'unicodes'
p11
(tsS'width'
p12
F1207.3
sS'contours'
p13
(tsS'components'
p14
(tsS'anchors'
p15
(tsss."
LayerCount: 2
Fore
SplineSet
768.724 1350.43 m 256
 551.75 1350.43 480 1208.51 480 1004 c 258
 480 805 l 257
 857 805 l 257
 857 705 l 257
 482 705 l 257
 482 570 l 258
 482 316 378 163 332 126 c 257
 1013 126 l 257
 1013 0 l 257
 150 0 l 257
 150 127 l 257
 279 210 331 415 331 570 c 258
 331 705 l 257
 136 705 l 257
 136 805 l 257
 331 805 l 257
 331 970 l 258
 331 1259 430 1477 751 1477 c 256
 894 1477 977 1437 1009 1402 c 257
 967 1296 l 257
 945.335 1313.9 868.655 1350.43 768.724 1350.43 c 256
EndSplineSet
EndChar

StartChar: summation
Encoding: 8721 8721 421
Width: 1148
VWidth: 0
GlyphClass: 2
Flags: W
PickledData: "(dp1
S'org.robofab.postScriptHintData'
p2
(dp3
sS'com.typemytype.robofont.layerData'
p4
(dp5
S'b'
(dp6
S'name'
p7
S'summation'
p8
sS'lib'
p9
(dp10
sS'unicodes'
p11
(tsS'width'
p12
F1198.3
sS'contours'
p13
(tsS'components'
p14
(tsS'anchors'
p15
(tsss."
LayerCount: 2
Fore
SplineSet
117 -105 m 257
 117 -32 l 257
 621 688 l 257
 136 1375 l 257
 136 1454 l 257
 1036 1454 l 257
 1036 1343 l 257
 316 1343 l 257
 771 697 l 257
 283 7 l 257
 1078 7 l 257
 1078 -105 l 257
 117 -105 l 257
EndSplineSet
EndChar

StartChar: t
Encoding: 116 116 422
Width: 745
VWidth: 0
GlyphClass: 2
Flags: W
PickledData: "(dp1
S'org.robofab.postScriptHintData'
p2
(dp3
sS'com.typemytype.robofont.layerData'
p4
(dp5
S'b'
(dp6
S'name'
p7
S't'
sS'lib'
p8
(dp9
sS'unicodes'
p10
(tsS'width'
p11
F763.89999999999998
sS'contours'
p12
(tsS'components'
p13
(tsS'anchors'
p14
(tsss."
AnchorPoint: "top" 311 1329 basechar 0
AnchorPoint: "caron.alt" 279 1272 basechar 0
LayerCount: 2
Fore
SplineSet
648 -1 m 257
 638 -1 591 0 582 0 c 256
 283 9 249 118 249 340 c 258
 249 932 l 257
 50 932 l 257
 50 1026 l 257
 251 1026 l 257
 251 1305 l 257
 390 1346 l 257
 390 1026 l 257
 645 1026 l 257
 645 932 l 257
 390 932 l 257
 390 334 l 258
 390 146 415 113 648 113 c 257
 648 -1 l 257
EndSplineSet
EndChar

StartChar: thorn
Encoding: 254 254 427
Width: 1242
VWidth: 0
GlyphClass: 2
Flags: W
PickledData: "(dp1
S'org.robofab.postScriptHintData'
p2
(dp3
sS'com.typemytype.robofont.layerData'
p4
(dp5
s."
LayerCount: 2
Fore
SplineSet
654 93 m 256
 868 93 988 267 988 516 c 256
 988 764 874 933 657 933 c 256
 396 933 310 723 310 505 c 256
 310 264 429 93 654 93 c 256
163 -434 m 257
 163 1454 l 257
 311 1454 l 257
 312 855 l 257
 380 980 510 1051 667 1051 c 256
 970 1051 1142 838 1142 518 c 256
 1142 205 969 -23 667 -23 c 256
 515 -23 379 46 311 169 c 257
 312 -434 l 257
 163 -434 l 257
EndSplineSet
EndChar

StartChar: three
Encoding: 51 51 428
Width: 1204
VWidth: 0
GlyphClass: 2
Flags: W
PickledData: "(dp1
S'org.robofab.postScriptHintData'
p2
(dp3
sS'com.typemytype.robofont.layerData'
p4
(dp5
S'b'
(dp6
S'name'
p7
S'three'
p8
sS'lib'
p9
(dp10
sS'unicodes'
p11
(tsS'width'
p12
F1234.0999999999999
sS'contours'
p13
((dp14
S'points'
p15
((dp16
S'segmentType'
p17
S'curve'
p18
sS'x'
F344
sS'smooth'
p19
I01
sS'y'
F1010
s(dp20
S'y'
F827
sS'x'
F344
sg19
I00
s(dp21
S'y'
F687
sS'x'
F423
sg19
I00
s(dp22
g17
S'curve'
p23
sS'x'
F634
sg19
I01
sS'y'
F687
s(dp24
S'y'
F687
sS'x'
F814
sg19
I00
s(dp25
S'y'
F803
sS'x'
F938
sg19
I00
s(dp26
g17
S'curve'
p27
sS'x'
F938
sg19
I01
sS'y'
F991
s(dp28
S'y'
F1166
sS'x'
F938
sg19
I00
s(dp29
S'y'
F1334
sS'x'
F845
sg19
I00
s(dp30
g17
S'curve'
p31
sS'x'
F635
sg19
I01
sS'y'
F1334
s(dp32
S'y'
F1334
sS'x'
F449
sg19
I00
s(dp33
S'y'
F1196
sS'x'
F344
sg19
I00
stp34
s(dp35
g15
((dp36
g17
S'curve'
p37
sS'x'
F594
sg19
I01
sS'y'
F-24
s(dp38
S'y'
F-24
sS'x'
F473
sg19
I00
s(dp39
S'y'
F-1
sS'x'
F367
sg19
I00
s(dp40
g17
S'curve'
p41
sS'x'
F238
sg19
I00
sS'y'
F65
s(dp42
g17
S'line'
p43
sS'x'
F287
sg19
I00
sS'y'
F197
s(dp44
S'y'
F138
sS'x'
F401
sg19
I00
s(dp45
S'y'
F124
sS'x'
F489
sg19
I00
s(dp46
g17
S'curve'
p47
sS'x'
F581
sg19
I01
sS'y'
F124
s(dp48
S'y'
F124
sS'x'
F812
sg19
I00
s(dp49
S'y'
F308
sS'x'
F950
sg19
I00
s(dp50
g17
S'curve'
p51
sS'x'
F950
sg19
I01
sS'y'
F657
s(dp52
g17
S'line'
p53
sS'x'
F950
sg19
I00
sS'y'
F722
s(dp54
S'y'
F600
sS'x'
F886
sg19
I00
s(dp55
S'y'
F544
sS'x'
F772
sg19
I00
s(dp56
g17
S'curve'
p57
sS'x'
F607
sg19
I01
sS'y'
F544
s(dp58
S'y'
F544
sS'x'
F328
sg19
I00
s(dp59
S'y'
F735
sS'x'
F168
sg19
I00
s(dp60
g17
S'curve'
p61
sS'x'
F168
sg19
I01
sS'y'
F1004
s(dp62
S'y'
F1275
sS'x'
F168
sg19
I00
s(dp63
S'y'
F1483
sS'x'
F341
sg19
I00
s(dp64
g17
S'curve'
p65
sS'x'
F643
sg19
I01
sS'y'
F1483
s(dp66
S'y'
F1483
sS'x'
F969
sg19
I00
s(dp67
S'y'
F1231
sS'x'
F1125
sg19
I00
s(dp68
g17
S'curve'
p69
sS'x'
F1125
sg19
I01
sS'y'
F774
s(dp70
S'y'
F203
sS'x'
F1125
sg19
I00
s(dp71
S'y'
F-24
sS'x'
F894
sg19
I00
stp72
stp73
sS'components'
p74
(tsS'anchors'
p75
(tsss."
LayerCount: 2
Fore
SplineSet
560 -23 m 256
 384 -23 239 38 187 68 c 257
 224 182 l 257
 302 143 436 101 552 101 c 256
 765 101 904 217 904 401 c 256
 904 594 770 702 527 704 c 257
 436 704 l 257
 434 832 l 257
 525 832 l 258
 758 832 872 926 872 1112 c 256
 872 1268 737 1359 558 1359 c 256
 406 1359 271 1297 195 1206 c 257
 123 1300 l 257
 217 1416 372 1483 568 1483 c 256
 821 1483 1015 1346 1015 1114 c 256
 1015 960 921 807 739 770 c 257
 934 736 1053 583 1053 398 c 256
 1053 139 849 -23 560 -23 c 256
EndSplineSet
EndChar

StartChar: threequarters
Encoding: 190 190 429
Width: 1863
VWidth: 0
GlyphClass: 2
Flags: W
PickledData: "(dp1
S'org.robofab.postScriptHintData'
p2
(dp3
sS'com.typemytype.robofont.layerData'
p4
(dp5
s."
LayerCount: 2
Fore
SplineSet
1159 278 m 257
 1434 278 l 257
 1434 670 l 257
 1159 278 l 257
469 0 m 257
 1386 1456 l 257
 1499 1456 l 257
 592 0 l 257
 469 0 l 257
1436 0 m 257
 1436 187 l 257
 1050 187 l 257
 1050 269 l 257
 1421 793 l 257
 1544 793 l 257
 1544 278 l 257
 1641 278 l 257
 1640 187 l 257
 1541 187 l 257
 1541 0 l 257
 1436 0 l 257
436 604 m 256
 339 604 241 638 178 696 c 257
 225 775 l 257
 284 724 361 694 432 694 c 256
 530 694 597 759 597 850 c 256
 597 941 529 998 405 998 c 258
 318 998 l 257
 318 1089 l 257
 403 1089 l 258
 515 1089 579 1143 579 1226 c 256
 579 1312 516 1368 423 1368 c 256
 352 1368 286 1343 232 1288 c 257
 180 1354 l 257
 233 1417 329 1457 430 1457 c 256
 580 1457 688 1374 688 1232 c 256
 688 1153 640 1082 548 1052 c 257
 650 1023 707 943 707 848 c 256
 707 695 592 604 436 604 c 256
EndSplineSet
EndChar

StartChar: uni00B3
Encoding: 179 179 430
Width: 971
VWidth: 0
GlyphClass: 2
Flags: W
PickledData: "(dp1
S'org.robofab.postScriptHintData'
p2
(dp3
sS'com.typemytype.robofont.layerData'
p4
(dp5
s."
LayerCount: 2
Fore
SplineSet
469 603 m 256
 372 603 273 637 212 695 c 257
 259 775 l 257
 315 725 394 694 466 694 c 256
 564 694 631 755 631 847 c 256
 631 941 562 998 435 998 c 258
 350 998 l 257
 350 1090 l 257
 433 1090 l 258
 547 1090 613 1140 613 1226 c 256
 613 1312 552 1364 458 1364 c 256
 386 1364 319 1339 267 1284 c 257
 215 1352 l 257
 265 1415 362 1456 462 1456 c 256
 611 1456 719 1372 719 1230 c 256
 719 1149 674 1076 577 1049 c 257
 680 1022 737 942 737 846 c 256
 737 694 624 603 469 603 c 256
EndSplineSet
EndChar

StartChar: tilde
Encoding: 732 732 431
Width: 620
VWidth: 0
GlyphClass: 4
Flags: W
PickledData: "(dp1
S'org.robofab.postScriptHintData'
p2
(dp3
sS'com.typemytype.robofont.layerData'
p4
(dp5
S'b'
(dp6
S'name'
p7
S'tilde'
p8
sS'lib'
p9
(dp10
sS'unicodes'
p11
(tsS'width'
p12
F672.35000000000002
sS'contours'
p13
(tsS'components'
p14
(tsS'anchors'
p15
(tsss."
AnchorPoint: "top" 314 1026 mark 0
LayerCount: 2
Fore
SplineSet
468.783 1203.99 m 256
 377.478 1203.99 240.705 1303 169 1303 c 256
 126 1303 106 1273 103 1216 c 257
 13 1216 l 257
 13 1334 69 1405 162 1405 c 256
 262.125 1405 390.092 1305.98 463.02 1305.98 c 256
 502.298 1305.98 511.033 1335.08 513 1399 c 257
 607 1399 l 257
 607 1286.67 567.476 1203.99 468.783 1203.99 c 256
EndSplineSet
EndChar

StartChar: trademark
Encoding: 8482 8482 432
Width: 1869
VWidth: 0
GlyphClass: 2
Flags: W
PickledData: "(dp1
S'org.robofab.postScriptHintData'
p2
(dp3
sS'com.typemytype.robofont.layerData'
p4
(dp5
S'b'
(dp6
S'name'
p7
S'trademark'
p8
sS'lib'
p9
(dp10
sS'unicodes'
p11
(tsS'width'
p12
F1869
sS'contours'
p13
(tsS'components'
p14
(tsS'anchors'
p15
(tsss."
LayerCount: 2
Fore
SplineSet
334 711 m 257
 334 1386 l 257
 69 1386 l 257
 69 1471 l 257
 709 1471 l 257
 709 1386 l 257
 440 1386 l 257
 440 711 l 257
 334 711 l 257
827 711 m 257
 827 1471 l 257
 961 1471 l 257
 1241 851 l 257
 1540 1471 l 257
 1661 1471 l 257
 1661 711 l 257
 1569 711 l 257
 1569 1341 l 257
 1271 711 l 257
 1206 711 l 257
 919 1342 l 257
 919 711 l 257
 827 711 l 257
EndSplineSet
EndChar

StartChar: two
Encoding: 50 50 433
Width: 1225
VWidth: 0
GlyphClass: 2
Flags: W
PickledData: "(dp1
S'org.robofab.postScriptHintData'
p2
(dp3
sS'com.typemytype.robofont.layerData'
p4
(dp5
S'b'
(dp6
S'name'
p7
S'two'
p8
sS'lib'
p9
(dp10
sS'unicodes'
p11
(tsS'width'
p12
F1244.5
sS'contours'
p13
(tsS'components'
p14
(tsS'anchors'
p15
(tsss."
LayerCount: 2
Fore
SplineSet
592 1483 m 256
 900.419 1483 1040.06 1287.84 1040.06 1063.76 c 256
 1040.06 870.036 935.619 729.41 767 546 c 257
 383 122 l 257
 1035 122 l 257
 1035 0 l 257
 214 0 l 257
 214 120 l 257
 681 635 l 258
 836.24 805.861 897.107 910.948 897.107 1050.78 c 256
 897.107 1224.95 806.641 1357 587 1357 c 256
 437 1357 292 1284 224 1246 c 257
 174 1360 l 257
 247 1403 404 1483 592 1483 c 256
EndSplineSet
EndChar

StartChar: uni00B2
Encoding: 178 178 434
Width: 1028
VWidth: 0
GlyphClass: 2
Flags: W
PickledData: "(dp1
S'org.robofab.postScriptHintData'
p2
(dp3
sS'com.typemytype.robofont.layerData'
p4
(dp5
s."
LayerCount: 2
Fore
SplineSet
250 625 m 257
 250 710 l 257
 534 996 l 258
 644 1106 675 1168 675 1236 c 256
 675 1304 632 1364 523 1364 c 256
 439 1364 363 1323 340 1217 c 257
 263 1260 l 257
 290 1384 391 1456 527 1456 c 256
 685 1456 781 1364 781 1239 c 256
 781 1129 727 1049 598 923 c 258
 386 714 l 257
 782 714 l 257
 782 625 l 257
 250 625 l 257
EndSplineSet
EndChar

StartChar: u
Encoding: 117 117 435
Width: 1260
VWidth: 0
GlyphClass: 2
Flags: W
PickledData: "(dp1
S'org.robofab.postScriptHintData'
p2
(dp3
sS'com.typemytype.robofont.layerData'
p4
(dp5
S'b'
(dp6
S'name'
p7
S'u'
sS'lib'
p8
(dp9
sS'unicodes'
p10
(tsS'width'
p11
F1227.2
sS'contours'
p12
(tsS'components'
p13
(tsS'anchors'
p14
(tsss."
AnchorPoint: "top" 630 1026 basechar 0
LayerCount: 2
Fore
SplineSet
570 -24 m 256
 305 -24 179 138 179 402 c 258
 179 1026 l 257
 320 1026 l 257
 320 400 l 258
 320 196 411 92 585 92 c 256
 805 92 922 253 922 379 c 258
 922 1026 l 257
 1064 1026 l 257
 1064 239 l 258
 1064 144 1068 46 1071 0 c 257
 932 0 l 257
 925 178 l 257
 859 65 744 -24 570 -24 c 256
EndSplineSet
EndChar

StartChar: underscore
Encoding: 95 95 446
Width: 894
VWidth: 0
GlyphClass: 2
Flags: W
PickledData: "(dp1
S'org.robofab.postScriptHintData'
p2
(dp3
sS'com.typemytype.robofont.layerData'
p4
(dp5
s."
LayerCount: 2
Fore
SplineSet
1 -277 m 257
 1 -164 l 257
 893 -164 l 257
 893 -277 l 257
 1 -277 l 257
EndSplineSet
EndChar

StartChar: uni0307
Encoding: 775 775 459
Width: 524
VWidth: 0
GlyphClass: 4
Flags: W
PickledData: "(dp1
S'org.robofab.postScriptHintData'
p2
(dp3
s."
AnchorPoint: "top" 262 1026 mark 0
LayerCount: 2
Fore
SplineSet
178 1257 m 257
 176 1428 l 257
 346 1428 l 257
 348 1257 l 257
 178 1257 l 257
EndSplineSet
EndChar

StartChar: uni030F
Encoding: 783 783 460
Width: 969
VWidth: 0
GlyphClass: 4
Flags: W
PickledData: "(dp1
S'org.robofab.postScriptHintData'
p2
(dp3
s."
AnchorPoint: "top" 613 1026 mark 0
LayerCount: 2
Fore
SplineSet
738 1174 m 257
 459 1527 l 257
 607 1527 l 257
 828 1174 l 257
 738 1174 l 257
433 1174 m 257
 141 1527 l 257
 289 1527 l 257
 525 1174 l 257
 433 1174 l 257
EndSplineSet
EndChar

StartChar: uni0311
Encoding: 785 785 461
Width: 629
VWidth: 0
GlyphClass: 4
Flags: W
PickledData: "(dp1
S'org.robofab.postScriptHintData'
p2
(dp3
sS'com.typemytype.robofont.layerData'
p4
(dp5
s."
AnchorPoint: "top" 312 1026 mark 0
LayerCount: 2
Fore
SplineSet
47 1211 m 257
 55 1361 184 1437 313 1437 c 256
 442 1437 572 1361 581 1211 c 257
 496 1211 l 257
 484 1300 398 1345 313 1345 c 256
 229 1345 145 1301 134 1211 c 257
 47 1211 l 257
EndSplineSet
EndChar

StartChar: uni0312
Encoding: 786 786 462
Width: 600
VWidth: 0
GlyphClass: 4
Flags: W
PickledData: "(dp1
S'org.robofab.postScriptHintData'
p2
(dp3
s."
AnchorPoint: "top" 284 1026 mark 0
LayerCount: 2
Fore
SplineSet
472 1682 m 257
 366 1221 l 257
 203 1221 l 257
 362 1682 l 257
 472 1682 l 257
EndSplineSet
EndChar

StartChar: uni0326
Encoding: 806 806 463
Width: 540
VWidth: 0
GlyphClass: 2
Flags: W
PickledData: "(dp1
S'org.robofab.postScriptHintData'
p2
(dp3
s."
LayerCount: 2
Fore
SplineSet
136 -582 m 257
 241 -129 l 257
 404 -129 l 257
 246 -582 l 257
 136 -582 l 257
EndSplineSet
EndChar

StartChar: afii00208
Encoding: 8213 8213 464
Width: 4096
VWidth: 0
GlyphClass: 2
Flags: W
PickledData: "(dp1
S'org.robofab.postScriptHintData'
p2
(dp3
s."
LayerCount: 2
Fore
SplineSet
67 497 m 257
 67 623 l 257
 4029 623 l 257
 4029 497 l 257
 67 497 l 257
EndSplineSet
EndChar

StartChar: v
Encoding: 118 118 469
Width: 1002
VWidth: 0
GlyphClass: 2
Flags: W
PickledData: "(dp1
S'org.robofab.postScriptHintData'
p2
(dp3
sS'com.typemytype.robofont.layerData'
p4
(dp5
S'b'
(dp6
S'name'
p7
S'v'
sS'lib'
p8
(dp9
sS'unicodes'
p10
(tsS'width'
p11
F1056.8
sS'contours'
p12
(tsS'components'
p13
(tsS'anchors'
p14
(tsss."
LayerCount: 2
Fore
SplineSet
432 0 m 257
 6 1026 l 257
 157 1026 l 257
 449 294 l 257
 507 134 l 257
 614.754 438.913 738.265 728.068 853 1026 c 257
 1002 1026 l 257
 576 0 l 257
 432 0 l 257
EndSplineSet
EndChar

StartChar: w
Encoding: 119 119 470
Width: 1594
VWidth: 0
GlyphClass: 2
Flags: W
PickledData: "(dp1
S'org.robofab.postScriptHintData'
p2
(dp3
sS'com.typemytype.robofont.layerData'
p4
(dp5
S'b'
(dp6
S'name'
p7
S'w'
sS'lib'
p8
(dp9
sS'unicodes'
p10
(tsS'width'
p11
F1634.0999999999999
sS'contours'
p12
(tsS'components'
p13
(tsS'anchors'
p14
(tsss."
AnchorPoint: "top" 816 1026 basechar 0
LayerCount: 2
Fore
SplineSet
357 0 m 257
 38 1026 l 257
 188 1026 l 257
 272.738 737.071 356.682 447.349 442 159 c 257
 539.259 449.074 638.804 736.862 737 1026 c 257
 890 1026 l 257
 985.22 736.554 1081.64 448.311 1176 158 c 257
 1256.3 446.031 1333.83 736.837 1413 1026 c 257
 1556 1026 l 257
 1247 0 l 257
 1096 0 l 257
 1001.06 290.394 905.253 579.919 811 871 c 257
 711.995 578.338 608.123 290.543 507 0 c 257
 357 0 l 257
EndSplineSet
EndChar

StartChar: x
Encoding: 120 120 475
Width: 1090
VWidth: 0
GlyphClass: 2
Flags: W
PickledData: "(dp1
S'org.robofab.postScriptHintData'
p2
(dp3
sS'com.typemytype.robofont.layerData'
p4
(dp5
S'b'
(dp6
S'name'
p7
S'x'
sS'lib'
p8
(dp9
sS'unicodes'
p10
(tsS'width'
p11
F1062.8499999999999
sS'contours'
p12
(tsS'components'
p13
(tsS'anchors'
p14
(tsssS'com.fontlab.hintData'
p15
(dp16
S'hhints'
p17
((dp18
S'position'
p19
I0
sg11
I21
s(dp20
g19
I1006
sg11
I20
stp21
ss."
HStem: 0 21<52 52 52 205 882 882 882 1036> 1006 20<236 236 868 1022 1022 1022>
LayerCount: 2
Fore
SplineSet
52 0 m 257
 468 519 l 257
 79 1028 l 257
 236 1026 l 257
 544 614 l 257
 868 1026 l 257
 1022 1026 l 257
 625 517 l 257
 1036 0 l 257
 882 0 l 257
 547 426 l 257
 205 0 l 257
 52 0 l 257
EndSplineSet
EndChar

StartChar: y
Encoding: 121 121 476
Width: 1024
VWidth: 0
GlyphClass: 2
Flags: W
PickledData: "(dp1
S'org.robofab.postScriptHintData'
p2
(dp3
sS'com.typemytype.robofont.layerData'
p4
(dp5
S'b'
(dp6
S'name'
p7
S'y'
sS'lib'
p8
(dp9
sS'unicodes'
p10
(tsS'width'
p11
F1065.05
sS'contours'
p12
(tsS'components'
p13
(tsS'anchors'
p14
(tsss."
AnchorPoint: "top" 535 1026 basechar 0
LayerCount: 2
Fore
SplineSet
183 -425 m 257
 129 -326 l 257
 332 -266 405 -155 440 -61 c 257
 461 -7 l 257
 52 1026 l 257
 201 1026 l 257
 530 151 l 257
 855 1026 l 257
 996 1026 l 257
 583 -53 l 257
 520 -222 395 -380 183 -425 c 257
EndSplineSet
EndChar

StartChar: yen
Encoding: 165 165 480
Width: 1182
VWidth: 0
GlyphClass: 2
Flags: W
PickledData: "(dp1
S'org.robofab.postScriptHintData'
p2
(dp3
sS'com.typemytype.robofont.layerData'
p4
(dp5
S'b'
(dp6
S'name'
p7
S'yen'
p8
sS'lib'
p9
(dp10
sS'unicodes'
p11
(tsS'width'
p12
F1225.45
sS'contours'
p13
(tsS'components'
p14
(tsS'anchors'
p15
(tsss."
LayerCount: 2
Fore
SplineSet
511.5 0 m 257
 661.5 0 l 257
 661.5 315 l 257
 962.5 315 l 257
 962.5 406 l 257
 661.5 406 l 257
 661.5 545 l 257
 963.5 545 l 257
 963.5 639 l 257
 691.96 639 l 257
 1161.5 1456 l 257
 1002.5 1456 l 257
 589.5 713 l 257
 181.5 1456 l 257
 20.5 1456 l 257
 480.004 639 l 257
 203.5 639 l 257
 203.5 545 l 257
 511.5 545 l 257
 511.5 406 l 257
 203.5 406 l 257
 203.5 315 l 257
 511.5 315 l 257
 511.5 0 l 257
EndSplineSet
EndChar

StartChar: z
Encoding: 122 122 484
Width: 952
VWidth: 0
GlyphClass: 2
Flags: W
PickledData: "(dp1
S'org.robofab.postScriptHintData'
p2
(dp3
sS'com.typemytype.robofont.layerData'
p4
(dp5
S'b'
(dp6
S'name'
p7
S'z'
sS'lib'
p8
(dp9
sS'unicodes'
p10
(tsS'width'
p11
F971.85000000000002
sS'contours'
p12
(tsS'components'
p13
(tsS'anchors'
p14
(tsss."
AnchorPoint: "top" 483 1026 basechar 0
LayerCount: 2
Fore
SplineSet
97 0 m 257
 97 79 l 257
 685 910 l 257
 117 910 l 257
 117 1026 l 257
 866 1026 l 257
 866 949 l 257
 281 115 l 257
 868 115 l 257
 868 0 l 257
 97 0 l 257
EndSplineSet
EndChar

StartChar: zero
Encoding: 48 48 488
Width: 1204
VWidth: 0
GlyphClass: 2
Flags: W
PickledData: "(dp1
S'org.robofab.postScriptHintData'
p2
(dp3
sS'com.typemytype.robofont.layerData'
p4
(dp5
s."
LayerCount: 2
Fore
SplineSet
609 -23 m 256
 291 -23 124 256 124 727 c 256
 124 1212 291 1483 610 1483 c 256
 922 1483 1080 1209 1080 727 c 256
 1080 256 922 -23 609 -23 c 256
610 101 m 256
 828 101 926 336 926 727 c 256
 926 1116 828 1359 610 1359 c 256
 382 1359 277 1116 277 727 c 256
 277 336 382 101 610 101 c 256
EndSplineSet
EndChar

StartChar: mu
Encoding: 181 181 493
Width: 1260
VWidth: 0
Flags: W
LayerCount: 2
Fore
SplineSet
320 -304 m 257
 179 -302 l 257
 179 1026 l 257
 320 1026 l 257
 320 400 l 258
 320 196 411 92 585 92 c 256
 805 92 922 253 922 379 c 258
 922 1026 l 257
 1064 1026 l 257
 1064 239 l 258
 1064 144 1068 46 1071 0 c 257
 932 0 l 257
 925 178 l 257
 859 65 744 -24 570 -24 c 256
 463 -24 379 3 320 57 c 257
 320 -304 l 257
EndSplineSet
EndChar

StartChar: uni0358
Encoding: 856 856 494
Width: 524
VWidth: 0
GlyphClass: 4
Flags: W
AnchorPoint: "top" 262 1026 mark 0
LayerCount: 2
Fore
SplineSet
178 1257 m 257
 176 1428 l 257
 346 1428 l 257
 348 1257 l 257
 178 1257 l 257
EndSplineSet
EndChar

StartChar: Sigma
Encoding: 931 931 495
Width: 1148
VWidth: 0
GlyphClass: 2
Flags: W
LayerCount: 2
Fore
SplineSet
117 -105 m 257
 117 -32 l 257
 621 688 l 257
 136 1375 l 257
 136 1454 l 257
 1036 1454 l 257
 1036 1343 l 257
 316 1343 l 257
 771 697 l 257
 283 7 l 257
 1078 7 l 257
 1078 -105 l 257
 117 -105 l 257
EndSplineSet
EndChar

StartChar: emptyset
Encoding: 8709 8709 496
Width: 1678
VWidth: 0
GlyphClass: 2
Flags: W
LayerCount: 2
Fore
SplineSet
112 733 m 256
 112 1150 459 1473 832 1473 c 256
 1006 1473 1174 1403 1304 1286 c 257
 1481 1485 l 257
 1518 1456 l 257
 1337 1254 l 257
 1467 1122 1552 939 1552 733 c 256
 1552 316 1205 -7 832 -7 c 256
 662 -7 498 60 369 172 c 257
 177 -43 l 257
 145 -14 l 257
 337 202 l 257
 201 335 112 522 112 733 c 256
398 204 m 257
 519 99 673 37 832 37 c 256
 1183 37 1509 341 1509 733 c 256
 1509 926 1430 1097 1308 1222 c 257
 398 204 l 257
366 234 m 257
 1275 1254 l 257
 1153 1364 995 1429 832 1429 c 256
 481 1429 155 1125 155 733 c 256
 155 535 238 359 366 234 c 257
EndSplineSet
EndChar

StartChar: uni03BC
Encoding: 956 956 497
Width: 1187
VWidth: 0
GlyphClass: 2
Flags: W
LayerCount: 2
Fore
SplineSet
873 249 m 257
 828 188 738 92 556 92 c 256
 374 92 307 209 307 396 c 258
 307 1082 l 257
 157 1082 l 257
 157 -299 l 257
 307 -299 l 257
 307 41.4588 l 257
 368.079 0.281889 447.358 -20 544 -20 c 256
 705 -20 812 39 884 135 c 257
 893 0 l 257
 1022 0 l 257
 1022 1082 l 257
 873 1082 l 257
 873 249 l 257
EndSplineSet
EndChar

StartChar: uni02C9
Encoding: 713 713 498
Width: 600
VWidth: 0
GlyphClass: 2
Flags: W
LayerCount: 2
Fore
SplineSet
6 1307 m 257
 590 1307 l 257
 590 1425 l 257
 6 1425 l 257
 6 1307 l 257
EndSplineSet
EndChar
